<svg width="24" height="25" viewBox="0 0 24 25" fill="none" xmlns="http://www.w3.org/2000/svg">
<path fill-rule="evenodd" clip-rule="evenodd" d="M7.78209 11.7332C8.07499 12.026 8.07499 12.5009 7.78209 12.7938L3.66598 16.9099C3.47072 17.1052 3.47072 17.4218 3.66598 17.617L7.14821 21.0993C7.34347 21.2945 7.66006 21.2945 7.85532 21.0993L11.9714 16.9832C12.2643 16.6903 12.7392 16.6903 13.0321 16.9832C13.325 17.276 13.325 17.7509 13.0321 18.0438L8.91598 22.1599C8.13493 22.941 6.8686 22.941 6.08755 22.1599L2.60532 18.6777C1.82427 17.8966 1.82427 16.6303 2.60532 15.8493L6.72143 11.7332C7.01433 11.4403 7.4892 11.4403 7.78209 11.7332Z" fill="white"/>
<path fill-rule="evenodd" clip-rule="evenodd" d="M16.8553 4.4277C16.6601 4.23243 16.3435 4.23243 16.1482 4.4277L11.7821 8.79381C11.4892 9.08671 11.0143 9.08671 10.7214 8.79381C10.4285 8.50092 10.4285 8.02605 10.7214 7.73315L15.0876 3.36704C15.8686 2.58599 17.1349 2.58599 17.916 3.36704L21.3982 6.84927C22.1793 7.63032 22.1793 8.89665 21.3982 9.6777L17.0321 14.0438C16.7392 14.3367 16.2643 14.3367 15.9714 14.0438C15.6785 13.7509 15.6785 13.276 15.9714 12.9832L20.3376 8.61704C20.5328 8.42177 20.5328 8.10519 20.3376 7.90993L16.8553 4.4277Z" fill="white"/>
<path fill-rule="evenodd" clip-rule="evenodd" d="M15.5321 9.23315C15.825 9.52605 15.825 10.0009 15.5321 10.2938L9.53209 16.2938C9.2392 16.5867 8.76433 16.5867 8.47143 16.2938C8.17854 16.0009 8.17854 15.526 8.47143 15.2332L14.4714 9.23315C14.7643 8.94026 15.2392 8.94026 15.5321 9.23315Z" fill="white"/>
</svg>
