<svg width="20" height="20" viewBox="0 0 20 20" fill="none" xmlns="http://www.w3.org/2000/svg">
<path d="M10.8979 15.652C11.0041 15.7579 11.0884 15.8837 11.1459 16.0222C11.2035 16.1607 11.2331 16.3092 11.2331 16.4592C11.2331 16.6092 11.2035 16.7577 11.1459 16.8962C11.0884 17.0348 11.0041 17.1606 10.8979 17.2664L10.3338 17.8306C9.26484 18.8995 7.81507 19.5 6.30337 19.5C4.79167 19.5 3.34189 18.8995 2.27296 17.8306C1.20403 16.7616 0.603516 15.3118 0.603516 13.8001C0.603516 12.2884 1.20403 10.8387 2.27296 9.76974L4.56357 7.48008C5.59063 6.45049 6.97249 5.85256 8.4261 5.80877C9.87971 5.76499 11.2951 6.27866 12.3822 7.24456C12.4945 7.34433 12.5859 7.46523 12.6515 7.60036C12.717 7.73549 12.7552 7.8822 12.7641 8.03212C12.7729 8.18203 12.7521 8.33221 12.7029 8.47409C12.6536 8.61597 12.577 8.74676 12.4772 8.859C12.3774 8.97125 12.2565 9.06274 12.1214 9.12825C11.9863 9.19377 11.8395 9.23203 11.6896 9.24085C11.5397 9.24967 11.3895 9.22887 11.2477 9.17965C11.1058 9.13043 10.975 9.05374 10.8627 8.95397C10.2108 8.37498 9.3623 8.06696 8.49076 8.09291C7.61923 8.11886 6.79054 8.47682 6.17421 9.09357L3.88551 11.3804C3.24425 12.0216 2.88399 12.8914 2.88399 13.7982C2.88399 14.7051 3.24425 15.5749 3.88551 16.2161C4.52676 16.8574 5.3965 17.2176 6.30337 17.2176C7.21024 17.2176 8.07998 16.8574 8.72123 16.2161L9.28534 15.652C9.39118 15.546 9.51686 15.462 9.65521 15.4046C9.79355 15.3473 9.94185 15.3178 10.0916 15.3178C10.2414 15.3178 10.3897 15.3473 10.528 15.4046C10.6664 15.462 10.792 15.546 10.8979 15.652ZM17.933 2.16667C16.8632 1.09938 15.4138 0.5 13.9026 0.5C12.3915 0.5 10.942 1.09938 9.87224 2.16667L9.30813 2.73078C9.09404 2.94486 8.97377 3.23523 8.97377 3.538C8.97377 3.84076 9.09404 4.13113 9.30813 4.34522C9.52222 4.55931 9.81258 4.67958 10.1154 4.67958C10.4181 4.67958 10.7085 4.55931 10.9226 4.34522L11.4867 3.78111C12.1279 3.13985 12.9977 2.7796 13.9045 2.7796C14.8114 2.7796 15.6811 3.13985 16.3224 3.78111C16.9637 4.42237 17.3239 5.2921 17.3239 6.19898C17.3239 7.10585 16.9637 7.97558 16.3224 8.61684L14.0327 10.9074C13.4159 11.5239 12.5867 11.8814 11.715 11.9066C10.8432 11.9319 9.99478 11.623 9.34327 11.0433C9.23103 10.9435 9.10023 10.8668 8.95836 10.8176C8.81648 10.7683 8.66629 10.7476 8.51638 10.7564C8.36646 10.7652 8.21975 10.8034 8.08463 10.869C7.9495 10.9345 7.8286 11.026 7.72883 11.1382C7.62906 11.2505 7.55237 11.3813 7.50315 11.5231C7.45393 11.665 7.43313 11.8152 7.44195 11.9651C7.45077 12.115 7.48903 12.2617 7.55454 12.3969C7.62006 12.532 7.71155 12.6529 7.82379 12.7527C8.9102 13.7184 10.3246 14.2323 11.7775 14.1894C13.2304 14.1465 14.6121 13.55 15.6396 12.5219L17.9302 10.2322C18.9987 9.16269 19.5992 7.71284 19.5997 6.20099C19.6002 4.68914 19.0008 3.23887 17.933 2.16857V2.16667Z" fill="#BDBDBD"/>
</svg>
