<svg width="33" height="32" viewBox="0 0 33 32" fill="none" xmlns="http://www.w3.org/2000/svg">
<path fill-rule="evenodd" clip-rule="evenodd" d="M5.68546 4.66797C5.32954 4.66797 5.04102 4.9565 5.04102 5.31241V26.6902C5.04102 27.0461 5.32954 27.3346 5.68546 27.3346H27.0632C27.4192 27.3346 27.7077 27.0461 27.7077 26.6902V5.31241C27.7077 4.9565 27.4192 4.66797 27.0632 4.66797H5.68546ZM3.04102 5.31241C3.04102 3.85193 4.22497 2.66797 5.68546 2.66797H27.0632C28.5237 2.66797 29.7077 3.85193 29.7077 5.31241V26.6902C29.7077 28.1507 28.5237 29.3346 27.0632 29.3346H5.68546C4.22497 29.3346 3.04102 28.1507 3.04102 26.6902V5.31241ZM8.32991 7.95686V12.5346H24.4188V7.95686H8.32991ZM6.32991 7.77908C6.32991 6.77269 7.14574 5.95686 8.15213 5.95686H24.5966C25.603 5.95686 26.4188 6.7727 26.4188 7.77908V12.7124C26.4188 13.7188 25.603 14.5346 24.5966 14.5346H8.15213C7.14574 14.5346 6.32991 13.7188 6.32991 12.7124V7.77908ZM6.32991 17.6457C6.32991 17.0935 6.77762 16.6457 7.32991 16.6457H13.9077C14.46 16.6457 14.9077 17.0935 14.9077 17.6457C14.9077 18.198 14.46 18.6457 13.9077 18.6457H7.32991C6.77762 18.6457 6.32991 18.198 6.32991 17.6457ZM17.0188 17.6457C17.0188 17.0935 17.4665 16.6457 18.0188 16.6457H24.5966C25.1489 16.6457 25.5966 17.0935 25.5966 17.6457C25.5966 18.198 25.1489 18.6457 24.5966 18.6457H18.0188C17.4665 18.6457 17.0188 18.198 17.0188 17.6457ZM6.32991 20.9346C6.32991 20.3824 6.77762 19.9346 7.32991 19.9346H13.9077C14.46 19.9346 14.9077 20.3824 14.9077 20.9346C14.9077 21.4869 14.46 21.9346 13.9077 21.9346H7.32991C6.77762 21.9346 6.32991 21.4869 6.32991 20.9346ZM17.0188 20.9346C17.0188 20.3824 17.4665 19.9346 18.0188 19.9346H24.5966C25.1489 19.9346 25.5966 20.3824 25.5966 20.9346C25.5966 21.4869 25.1489 21.9346 24.5966 21.9346H18.0188C17.4665 21.9346 17.0188 21.4869 17.0188 20.9346ZM6.32991 24.2235C6.32991 23.6712 6.77762 23.2235 7.32991 23.2235H11.441C11.9933 23.2235 12.441 23.6712 12.441 24.2235C12.441 24.7758 11.9933 25.2235 11.441 25.2235H7.32991C6.77762 25.2235 6.32991 24.7758 6.32991 24.2235ZM17.0188 24.2235C17.0188 23.6712 17.4665 23.2235 18.0188 23.2235H22.1299C22.6822 23.2235 23.1299 23.6712 23.1299 24.2235C23.1299 24.7758 22.6822 25.2235 22.1299 25.2235H18.0188C17.4665 25.2235 17.0188 24.7758 17.0188 24.2235Z" fill="#006FB9"/>
</svg>
