<svg width="33" height="33" viewBox="0 0 33 33" fill="none" xmlns="http://www.w3.org/2000/svg">
<path d="M18.6124 29.8464H13.1337C12.5817 29.8464 12.1337 29.3984 12.1337 28.8464V17.245H9.8457C9.2937 17.245 8.8457 16.797 8.8457 16.245V11.8624C8.8457 11.3104 9.2937 10.8624 9.8457 10.8624H12.1337V9.50502C12.1337 6.44769 13.7404 3.17969 18.251 3.17969H22.9964C23.5484 3.17969 23.9964 3.62769 23.9964 4.17969V8.56235C23.9964 9.11435 23.5484 9.56235 22.9964 9.56235H19.7097C19.7137 9.59569 19.6137 9.73435 19.6137 9.76769V10.861H23.2817C23.5644 10.861 23.8337 10.981 24.0244 11.1917C24.215 11.401 24.3057 11.6824 24.2764 11.9637L23.827 16.3464C23.775 16.8557 23.3457 17.2437 22.8324 17.2437H19.6137V28.845C19.6124 29.3984 19.1644 29.8464 18.6124 29.8464ZM14.1337 27.8464H17.6124V16.245C17.6124 15.693 18.0604 15.245 18.6124 15.245H21.9284L22.1724 12.8624H18.6124C18.0604 12.8624 17.6124 12.4144 17.6124 11.8624V9.76902C17.587 9.57569 17.619 9.28369 17.7124 9.00235C17.8044 8.72235 17.9524 8.46902 18.1497 8.25035C18.351 8.02902 18.5897 7.85835 18.8617 7.74102C19.119 7.62635 19.4137 7.56369 19.7084 7.56369H21.995V5.17969H18.2497C14.847 5.17969 14.1324 7.53169 14.1324 9.50502V11.8624C14.1324 12.4144 13.6844 12.8624 13.1324 12.8624H10.8457V15.245H13.1337C13.6857 15.245 14.1337 15.693 14.1337 16.245V27.8464Z" fill="white"/>
</svg>
