<svg width="21" height="20" viewBox="0 0 21 20" fill="none" xmlns="http://www.w3.org/2000/svg">
<rect width="21" height="20" fill="#F5F5F5"/>
<g id="Desktop 1280px">
<rect width="1280" height="3711.71" transform="translate(-1032 -764.867)" fill="white"/>
<g id="Quiz">
<rect x="-1032" y="-404.867" width="1280" height="650.434" rx="40" fill="white"/>
<g id="Encuesta">
<rect x="-936" y="-404.867" width="1088" height="554.434" rx="24" fill="#FFF4E8"/>
<g id="Frame 13369">
<mask id="path-3-inside-1_1408_15589" fill="white">
<path d="M-198 -404.867H128C141.255 -404.867 152 -394.122 152 -380.867V125.567C152 138.821 141.255 149.567 128 149.567H-198V-404.867Z"/>
</mask>
<path d="M-198 -404.867H128C141.255 -404.867 152 -394.122 152 -380.867V125.567C152 138.821 141.255 149.567 128 149.567H-198V-404.867Z" fill="white"/>
<path d="M-198 -404.867H152H-198ZM153 125.567C153 139.374 141.807 150.567 128 150.567H-199L-197 148.567H128C140.703 148.567 151 138.269 151 125.567H153ZM-199 150.567V-404.867H-197V148.567L-199 150.567ZM128 -404.867C141.807 -404.867 153 -393.674 153 -379.867V125.567C153 139.374 141.807 150.567 128 150.567V148.567C140.703 148.567 151 138.269 151 125.567V-380.867C151 -394.122 140.703 -404.867 128 -404.867Z" fill="#D3EAFF" mask="url(#path-3-inside-1_1408_15589)"/>
</g>
</g>
<g id="Frame 13468">
<g id="Frame 13467">
<g id="Frame 3">
<path id="Vector" d="M18.2226 0.5H2.98447C1.67018 0.5 0.603516 1.51333 0.603516 2.7619V17.2381C0.603516 18.4867 1.67018 19.5 2.98447 19.5H18.2226C19.5368 19.5 20.6035 18.4867 20.6035 17.2381V2.7619C20.6035 1.51333 19.5368 0.5 18.2226 0.5ZM6.79399 7.7381V16.3333H3.93685V7.7381H6.79399ZM3.93685 5.23643C3.93685 4.6031 4.50828 4.11905 5.36542 4.11905C6.22256 4.11905 6.76066 4.6031 6.79399 5.23643C6.79399 5.86976 6.26066 6.38095 5.36542 6.38095C4.50828 6.38095 3.93685 5.86976 3.93685 5.23643ZM17.2702 16.3333H14.413C14.413 16.3333 14.413 12.1443 14.413 11.8095C14.413 10.9048 13.9368 10 12.7464 9.9819H12.7083C11.5559 9.9819 11.0797 10.9138 11.0797 11.8095C11.0797 12.2212 11.0797 16.3333 11.0797 16.3333H8.22256V7.7381H11.0797V8.89619C11.0797 8.89619 11.9988 7.7381 13.8464 7.7381C15.7368 7.7381 17.2702 8.97309 17.2702 11.4748V16.3333Z" fill="#BDBDBD"/>
</g>
</g>
</g>
</g>
</g>
</svg>
