<svg width="25" height="25" viewBox="0 0 25 25" fill="none" xmlns="http://www.w3.org/2000/svg">
<path fill-rule="evenodd" clip-rule="evenodd" d="M14.625 6.80469C14.625 4.59555 16.4158 2.80469 18.625 2.80469C20.8342 2.80469 22.625 4.59555 22.625 6.80469C22.625 9.01382 20.8342 10.8047 18.625 10.8047C17.186 10.8047 15.9245 10.0449 15.2198 8.90454L10.5643 10.7668C10.6042 10.9934 10.625 11.2266 10.625 11.4647C10.625 11.8162 10.5797 12.157 10.4945 12.4818L15.4112 15.0828C16.1401 14.101 17.3082 13.4647 18.625 13.4647C20.8342 13.4647 22.625 15.2556 22.625 17.4647C22.625 19.6739 20.8342 21.4647 18.625 21.4647C16.4158 21.4647 14.625 19.6739 14.625 17.4647C14.625 17.1086 14.6715 16.7633 14.7589 16.4347L9.84666 13.836C9.11832 14.8239 7.9465 15.4647 6.625 15.4647C4.41586 15.4647 2.625 13.6739 2.625 11.4647C2.625 9.25558 4.41586 7.46472 6.625 7.46472C8.06396 7.46472 9.32545 8.22455 10.0302 9.36487L14.6857 7.50266C14.6458 7.276 14.625 7.04277 14.625 6.80469ZM18.625 4.30469C17.2442 4.30469 16.125 5.42397 16.125 6.80469C16.125 8.18541 17.2442 9.30469 18.625 9.30469C20.0058 9.30469 21.125 8.18541 21.125 6.80469C21.125 5.42397 20.0058 4.30469 18.625 4.30469ZM6.625 8.96472C5.24429 8.96472 4.125 10.084 4.125 11.4647C4.125 12.8454 5.24429 13.9647 6.625 13.9647C8.00571 13.9647 9.125 12.8454 9.125 11.4647C9.125 10.084 8.00571 8.96472 6.625 8.96472ZM16.125 17.4647C16.125 16.084 17.2442 14.9647 18.625 14.9647C20.0058 14.9647 21.125 16.084 21.125 17.4647C21.125 18.8454 20.0058 19.9647 18.625 19.9647C17.2442 19.9647 16.125 18.8454 16.125 17.4647Z" fill="#006FB9"/>
</svg>
