<svg width="33" height="33" viewBox="0 0 33 33" fill="none" xmlns="http://www.w3.org/2000/svg">
<path d="M23.4637 19.4136C23.3869 19.2821 23.1677 19.1944 22.8497 19.0409C22.5318 18.8874 20.9422 18.109 20.6571 17.9994C20.3721 17.8898 20.1419 17.8349 19.9336 18.1638C19.7253 18.4927 19.3854 18.9641 19.1991 19.1724C19.0127 19.3807 18.8263 19.4136 18.4974 19.2492C16.6214 18.4317 15.0385 17.0628 13.9588 15.3244C13.7724 15.0065 13.9588 14.8311 14.1013 14.6776C14.6385 14.1404 14.6494 14.2172 14.781 13.9541C14.828 13.8684 14.8527 13.7722 14.8527 13.6745C14.8527 13.5768 14.828 13.4806 14.781 13.3949C14.6166 13.2086 14.0136 11.6518 13.7395 11.016C13.4654 10.3801 12.0841 10.2595 11.5469 10.8515C5.8462 16.8592 19.7363 27.1535 23.2883 20.8826C23.4343 20.6745 23.5267 20.4335 23.5572 20.1811C23.5878 19.9286 23.5557 19.6726 23.4637 19.4355M16.8091 4.16414C13.5506 4.15248 10.4207 5.43425 8.10628 7.72807C5.79191 10.0219 4.48227 13.1403 4.46487 16.3988C4.46 18.9781 5.28227 21.491 6.81094 23.5686L5.27612 28.1182L10.0121 26.6163C11.8665 27.8339 14.0147 28.5293 16.2309 28.6294C18.4471 28.7294 20.6492 28.2304 22.6058 27.1848C24.5623 26.1392 26.201 24.5857 27.3493 22.6877C28.4977 20.7896 29.1133 18.6171 29.1315 16.3988C29.1141 13.1441 27.8075 10.029 25.4979 7.73583C23.1882 5.44263 20.0639 4.15829 16.8091 4.16414Z" stroke="#FAFBFC" stroke-width="1.5" stroke-linecap="round" stroke-linejoin="round"/>
</svg>
