<svg width="23" height="24" viewBox="0 0 23 24" fill="none" xmlns="http://www.w3.org/2000/svg">
<rect width="23" height="24" fill="#F5F5F5"/>
<g id="Desktop 1280px">
<rect width="1280" height="3711.71" transform="translate(-1068 -762.867)" fill="white"/>
<g id="Quiz">
<rect x="-1068" y="-402.867" width="1280" height="650.434" rx="40" fill="white"/>
<g id="Encuesta">
<rect x="-972" y="-402.867" width="1088" height="554.434" rx="24" fill="#FFF4E8"/>
<g id="Frame 13369">
<mask id="path-3-inside-1_1408_15589" fill="white">
<path d="M-234 -402.867H92C105.255 -402.867 116 -392.122 116 -378.867V127.567C116 140.821 105.255 151.567 92 151.567H-234V-402.867Z"/>
</mask>
<path d="M-234 -402.867H92C105.255 -402.867 116 -392.122 116 -378.867V127.567C116 140.821 105.255 151.567 92 151.567H-234V-402.867Z" fill="white"/>
<path d="M-234 -402.867H116H-234ZM117 127.567C117 141.374 105.807 152.567 92 152.567H-235L-233 150.567H92C104.703 150.567 115 140.269 115 127.567H117ZM-235 152.567V-402.867H-233V150.567L-235 152.567ZM92 -402.867C105.807 -402.867 117 -391.674 117 -377.867V127.567C117 141.374 105.807 152.567 92 152.567V150.567C104.703 150.567 115 140.269 115 127.567V-378.867C115 -392.122 104.703 -402.867 92 -402.867Z" fill="#D3EAFF" mask="url(#path-3-inside-1_1408_15589)"/>
</g>
</g>
<g id="Frame 13468">
<g id="Frame 13467">
<g id="Frame 3">
<g id="Whatapp">
<path id="Vector" d="M11.081 0.809259C9.24104 0.928514 7.3091 1.58953 5.78262 2.62195C4.17097 3.71228 2.89323 5.18424 2.06525 6.90152C1.61208 7.84194 1.32927 8.72784 1.13506 9.81818C0.988541 10.6359 0.957876 11.8694 1.06009 12.8166C1.19639 14.0909 1.66319 15.6174 2.29354 16.8645L2.47413 17.2154L2.05503 18.4659C1.82333 19.1542 1.40423 20.4081 1.12143 21.2531C0.835213 22.1015 0.603516 22.8171 0.603516 22.8511C0.603516 22.8818 0.647811 22.9261 0.702328 22.9465C0.790918 22.9806 0.801139 22.9942 0.784103 23.0999C0.763659 23.2089 0.767066 23.2157 0.845434 23.1919C0.985134 23.1476 4.03467 22.1765 5.32264 21.7608C5.99728 21.5461 6.57653 21.3689 6.6106 21.3689C6.64126 21.3689 6.78778 21.4269 6.93429 21.5018C8.18137 22.1288 9.51022 22.5036 10.9242 22.6331C11.483 22.6808 12.6211 22.6569 13.1697 22.5785C16.4202 22.1288 19.187 20.3331 20.8906 17.5766C21.446 16.6771 21.9741 15.4232 22.257 14.3329C22.5261 13.2868 22.6556 11.9886 22.5841 10.9869C22.4001 8.32578 21.3711 5.96792 19.5822 4.11435C17.8479 2.3187 15.64 1.20791 13.1254 0.87059C12.7574 0.822887 11.483 0.782001 11.081 0.809259ZM12.4132 3.13986C13.6297 3.23867 14.628 3.50784 15.6809 4.02235C17.1085 4.72425 18.3045 5.7737 19.1904 7.10937C19.8718 8.13497 20.2909 9.23894 20.4545 10.4451C20.5329 11.0175 20.5329 12.176 20.4545 12.7621C19.8991 16.8815 16.4986 20.0571 12.3724 20.3161C10.9174 20.4047 9.56473 20.1662 8.2427 19.5869C7.87812 19.4268 7.27502 19.0997 7.08762 18.9634C7.0297 18.9191 6.95474 18.8816 6.92066 18.8816C6.89 18.8816 6.16424 19.1031 5.31241 19.3757C4.46059 19.6483 3.75868 19.8697 3.75528 19.8629C3.74846 19.8561 3.96653 19.1917 4.23571 18.3876C4.50488 17.58 4.72636 16.8815 4.72636 16.827C4.72636 16.7725 4.66503 16.6464 4.57644 16.5203C3.15218 14.4794 2.68879 11.6615 3.38047 9.27301C3.5338 8.7551 3.65987 8.43822 3.9086 7.94416C4.59007 6.6119 5.62929 5.45001 6.90703 4.59818C8.51869 3.52147 10.5324 2.98993 12.4132 3.13986Z" fill="#BDBDBD"/>
<path id="Vector_2" d="M7.90446 6.28868C7.8261 6.31253 7.71365 6.36705 7.64892 6.40453C7.47514 6.51356 6.97086 7.05192 6.81413 7.29724C6.31325 8.07752 6.20081 9.11675 6.50065 10.1321C6.72894 10.8988 7.00834 11.4848 7.51944 12.2753C8.16683 13.2703 8.58593 13.8086 9.25717 14.5003C10.2657 15.5395 11.1141 16.1222 12.4157 16.6639C13.3766 17.066 14.0853 17.2943 14.484 17.3352C14.76 17.3624 15.3631 17.267 15.7174 17.1375C16.2081 16.9604 16.7703 16.5651 16.9883 16.2448C17.2064 15.9177 17.4313 15.1783 17.4586 14.6877L17.479 14.364L17.3734 14.2413C17.2984 14.1596 16.9918 13.9756 16.3716 13.6417C14.8997 12.8512 14.7123 12.7762 14.4806 12.8989C14.4226 12.9261 14.2046 13.1476 14.0001 13.3861C13.3936 14.0914 13.2676 14.2141 13.1653 14.2141C13.0359 14.2141 12.1874 13.7813 11.7922 13.5156C11.3322 13.2021 11.0324 12.95 10.6542 12.5581C10.2044 12.0913 9.71715 11.4235 9.44457 10.9022L9.38324 10.7795L9.62856 10.5103C9.95226 10.1662 10.0851 9.95835 10.2146 9.59718C10.3475 9.22919 10.3407 9.11675 10.1465 8.60906C9.9727 8.15589 9.833 7.78108 9.59108 7.13029C9.39346 6.59534 9.24694 6.37727 9.0425 6.31253C8.84829 6.25461 8.06461 6.23757 7.90446 6.28868Z" fill="#BDBDBD"/>
</g>
</g>
</g>
</g>
</g>
</g>
</svg>
