<svg width="24" height="24" viewBox="0 0 24 24" fill="none" xmlns="http://www.w3.org/2000/svg">
<path fill-rule="evenodd" clip-rule="evenodd" d="M12.1192 7.80706C11.8031 7.7852 11.4871 7.85066 11.2057 7.99628C10.9243 8.1419 10.6883 8.36207 10.5236 8.63274C10.3588 8.90341 10.2717 9.21415 10.2716 9.53101C10.2715 9.94011 9.93982 10.2717 9.53072 10.2716C9.12162 10.2715 8.79005 9.93982 8.79012 9.53072C8.79024 8.94228 8.95211 8.36518 9.25804 7.86251C9.56397 7.35985 10.0022 6.95095 10.5248 6.68052C11.0474 6.41008 11.6344 6.28852 12.2214 6.3291C12.8084 6.36969 13.373 6.57087 13.8535 6.91066C14.3339 7.25045 14.7117 7.71576 14.9455 8.25575C15.1794 8.79574 15.2603 9.38962 15.1794 9.97248C15.0985 10.5553 14.859 11.1048 14.487 11.5607C14.115 12.0166 13.6248 12.3615 13.07 12.5576C12.9736 12.5917 12.8902 12.6548 12.8313 12.7382C12.7723 12.8216 12.7407 12.9213 12.7407 13.0235V13.8519C12.7407 14.261 12.4091 14.5926 12 14.5926C11.5909 14.5926 11.2593 14.261 11.2593 13.8519V13.0243C11.2591 12.6157 11.3857 12.2168 11.6214 11.8832C11.8573 11.5495 12.1908 11.2971 12.5761 11.1609C12.8749 11.0553 13.1388 10.8696 13.3391 10.6241C13.5395 10.3786 13.6684 10.0827 13.712 9.76887C13.7555 9.45502 13.712 9.13524 13.5861 8.84448C13.4601 8.55372 13.2567 8.30316 12.998 8.1202C12.7393 7.93724 12.4353 7.82891 12.1192 7.80706Z" fill="#006FB9"/>
<path fill-rule="evenodd" clip-rule="evenodd" d="M4.92893 4.92893C6.8043 3.05357 9.34784 2 12 2C14.6522 2 17.1957 3.05357 19.0711 4.92893C20.9464 6.8043 22 9.34784 22 12C22 14.6522 20.9464 17.1957 19.0711 19.0711C17.1957 20.9464 14.6522 22 12 22C9.34784 22 6.8043 20.9464 4.92893 19.0711C3.05357 17.1957 2 14.6522 2 12C2 9.34784 3.05357 6.8043 4.92893 4.92893ZM12 3.48148C9.74075 3.48148 7.57403 4.37897 5.9765 5.9765C4.37897 7.57403 3.48148 9.74075 3.48148 12C3.48148 14.2593 4.37897 16.426 5.9765 18.0235C7.57403 19.621 9.74075 20.5185 12 20.5185C14.2593 20.5185 16.426 19.621 18.0235 18.0235C19.621 16.426 20.5185 14.2593 20.5185 12C20.5185 9.74075 19.621 7.57403 18.0235 5.9765C16.426 4.37897 14.2593 3.48148 12 3.48148Z" fill="#006FB9"/>
<path d="M12.9877 16.642C12.9877 17.1874 12.5455 17.6296 12 17.6296C11.4545 17.6296 11.0123 17.1874 11.0123 16.642C11.0123 16.0965 11.4545 15.6543 12 15.6543C12.5455 15.6543 12.9877 16.0965 12.9877 16.642Z" fill="#006FB9"/>
</svg>
