<svg width="33" height="33" viewBox="0 0 33 33" fill="none" xmlns="http://www.w3.org/2000/svg">
<path fill-rule="evenodd" clip-rule="evenodd" d="M20.8426 5.70508C17.9801 5.70508 15.6596 8.02556 15.6596 10.888C15.6596 13.7505 17.9801 16.071 20.8426 16.071C23.705 16.071 26.0255 13.7505 26.0255 10.888C26.0255 8.02556 23.705 5.70508 20.8426 5.70508ZM13.6596 10.888C13.6596 6.921 16.8755 3.70508 20.8426 3.70508C24.8096 3.70508 28.0255 6.921 28.0255 10.888C28.0255 14.8551 24.8096 18.071 20.8426 18.071C16.8755 18.071 13.6596 14.8551 13.6596 10.888ZM20.8425 5.88337C21.3948 5.88337 21.8425 6.33108 21.8425 6.88337V7.19012H22.1908C22.7431 7.19012 23.1908 7.63783 23.1908 8.19012C23.1908 8.7424 22.7431 9.19012 22.1908 9.19012H20.8443L20.8425 9.19012L20.8407 9.19012H20.3623L20.358 9.19011C20.31 9.18991 20.2634 9.20648 20.2264 9.23696C20.1893 9.26744 20.164 9.30992 20.1549 9.35705C20.1459 9.40419 20.1535 9.45301 20.1766 9.49509C20.1997 9.53716 20.2368 9.56985 20.2814 9.58749L20.2852 9.58897L22.1397 10.3306C22.6159 10.5204 23.0121 10.8705 23.2584 11.3201C23.5049 11.77 23.5869 12.2918 23.4903 12.7956C23.3937 13.2994 23.1244 13.7538 22.729 14.0805C22.4692 14.2952 22.1656 14.4459 21.8425 14.5241V14.7524C21.8425 15.3047 21.3948 15.7524 20.8425 15.7524C20.2902 15.7524 19.8425 15.3047 19.8425 14.7524V14.586H19.4929C18.9406 14.586 18.4929 14.1382 18.4929 13.5859C18.4929 13.0337 18.9406 12.5859 19.4929 12.5859H20.8389L20.8425 12.5859L20.8461 12.5859H21.3237C21.3716 12.586 21.4181 12.5693 21.455 12.5388C21.4919 12.5083 21.5171 12.4659 21.5261 12.4188C21.5351 12.3718 21.5275 12.3231 21.5044 12.2811C21.4814 12.2391 21.4445 12.2065 21.4 12.1888L19.5464 11.4475L19.544 11.4466C19.0668 11.2574 18.6705 10.9076 18.4234 10.4575C18.176 10.0068 18.0938 9.48367 18.191 8.97871C18.2883 8.47374 18.559 8.01863 18.9562 7.69205C19.2162 7.47832 19.5197 7.32843 19.8425 7.25097V6.88337C19.8425 6.33108 20.2902 5.88337 20.8425 5.88337ZM13.5839 20.5992C11.6325 18.9425 9.14909 18.0448 6.58924 18.0709L6.57904 18.071L4.16725 18.071C3.61497 18.071 3.16725 17.6233 3.16725 17.071C3.16725 16.5187 3.61497 16.071 4.16725 16.071H6.57406C9.51246 16.0422 12.3657 17.0381 14.6457 18.8818H18.7772C19.4908 18.8818 20.1751 19.1653 20.6796 19.6698C21.1013 20.0915 21.3685 20.6386 21.445 21.2234L26.5196 19.6023C26.5314 19.5986 26.5432 19.5951 26.5551 19.5917L26.6023 19.5786C26.6204 19.5735 26.6386 19.569 26.657 19.565C27.2776 19.4289 27.9265 19.5234 28.4825 19.8308C29.0386 20.1381 29.4638 20.6373 29.6787 21.2352C29.8937 21.8331 29.8836 22.4888 29.6506 23.0798C29.4177 23.6703 28.9782 24.1559 28.4138 24.4463C26.971 25.1933 25.7104 25.8635 24.5995 26.454C23.1841 27.2064 22.012 27.8295 21.0167 28.3174C19.2198 29.198 17.8242 29.7303 16.3557 29.8487C14.8849 29.9672 13.4428 29.6623 11.5704 29.0809C10.5657 28.769 9.37879 28.3573 7.95443 27.8632C6.76324 27.45 5.40595 26.9792 3.85024 26.461C3.32626 26.2864 3.043 25.7202 3.21754 25.1962C3.39209 24.6722 3.95836 24.389 4.48233 24.5635C6.10735 25.1048 7.47656 25.5802 8.66055 25.9912C10.0433 26.4712 11.1734 26.8635 12.1634 27.1709C13.9734 27.7328 15.1165 27.942 16.1951 27.8551C17.2759 27.768 18.394 27.3755 20.1365 26.5214C21.114 26.0424 22.2338 25.4468 23.6123 24.7137C24.7196 24.1248 25.9939 23.447 27.4955 22.6696L27.4984 22.6681C27.6315 22.5997 27.7351 22.4853 27.79 22.3461C27.8449 22.207 27.8472 22.0526 27.7966 21.9118C27.746 21.7711 27.6459 21.6535 27.515 21.5812C27.3908 21.5125 27.2468 21.489 27.1076 21.5141L20.5286 23.6157C20.0463 24.0293 19.4311 24.2605 18.7912 24.2638L11.9568 24.2978C11.4045 24.3005 10.9546 23.855 10.9519 23.3028C10.9491 22.7505 11.3946 22.3005 11.9469 22.2978L18.7808 22.2638C18.9633 22.2628 19.1382 22.1896 19.2669 22.0602C19.3956 21.9307 19.4678 21.7555 19.4677 21.5729C19.4677 21.3898 19.3949 21.2135 19.2654 21.084C19.1359 20.9546 18.9603 20.8818 18.7772 20.8818H14.2825C14.0397 20.8818 13.8052 20.7935 13.6227 20.6333L13.5839 20.5992Z" fill="#006FB9"/>
</svg>
