<svg width="24" height="24" viewBox="0 0 24 24" fill="none" xmlns="http://www.w3.org/2000/svg">
<path fill-rule="evenodd" clip-rule="evenodd" d="M17.5813 4.18634C18.0307 4.50735 18.1348 5.1319 17.8138 5.58132L7.81378 19.5813C7.49277 20.0307 6.86822 20.1348 6.41881 19.8138C5.9694 19.4928 5.8653 18.8683 6.18631 18.4188L16.1863 4.41884C16.5073 3.96943 17.1319 3.86534 17.5813 4.18634ZM17 14.0001C15.8954 14.0001 15 14.8955 15 16.0001C15 17.1046 15.8954 18.0001 17 18.0001C18.1046 18.0001 19 17.1046 19 16.0001C19 14.8955 18.1046 14.0001 17 14.0001ZM13 16.0001C13 13.7909 14.7909 12.0001 17 12.0001C19.2091 12.0001 21 13.7909 21 16.0001C21 18.2092 19.2091 20.0001 17 20.0001C14.7909 20.0001 13 18.2092 13 16.0001ZM4 9.00007C4 7.8955 4.89543 7.00007 6 7.00007C7.10457 7.00007 8 7.8955 8 9.00007C8 10.1046 7.10457 11.0001 6 11.0001C4.89543 11.0001 4 10.1046 4 9.00007ZM6 5.00007C3.79086 5.00007 2 6.79093 2 9.00007C2 11.2092 3.79086 13.0001 6 13.0001C8.20914 13.0001 10 11.2092 10 9.00007C10 6.79093 8.20914 5.00007 6 5.00007Z" fill="#006FB9"/>
</svg>
