<svg width="24" height="24" viewBox="0 0 24 24" fill="none" xmlns="http://www.w3.org/2000/svg">
<path fill-rule="evenodd" clip-rule="evenodd" d="M5.50461 2.43996C6.1934 2.15466 6.93164 2.00781 7.67717 2.00781C8.42271 2.00781 9.16095 2.15466 9.84974 2.43996C10.5385 2.72527 11.1644 3.14344 11.6915 3.67062C12.2187 4.19779 12.6369 4.82364 12.9222 5.51243C13.2075 6.20121 13.3543 6.93945 13.3543 7.68499C13.3543 8.43053 13.2075 9.16876 12.9222 9.85755C12.6369 10.5463 12.2187 11.1722 11.6915 11.6994C11.1644 12.2265 10.5385 12.6447 9.84974 12.93C9.16095 13.2153 8.42271 13.3622 7.67717 13.3622C6.93164 13.3622 6.1934 13.2153 5.50461 12.93C4.81583 12.6447 4.18998 12.2265 3.66281 11.6994C3.13563 11.1722 2.71745 10.5463 2.43215 9.85755C2.14684 9.16876 2 8.43053 2 7.68499C2 6.93945 2.14684 6.20121 2.43215 5.51243C2.71745 4.82364 3.13563 4.19779 3.66281 3.67062C4.18998 3.14344 4.81583 2.72527 5.50461 2.43996ZM7.67717 3.50781C7.12862 3.50781 6.58544 3.61586 6.07864 3.82578C5.57184 4.0357 5.11135 4.34339 4.72347 4.73128C4.33558 5.11917 4.02789 5.57965 3.81797 6.08645C3.60805 6.59325 3.5 7.13643 3.5 7.68499C3.5 8.23354 3.60805 8.77673 3.81797 9.28352C4.02789 9.79032 4.33558 10.2508 4.72347 10.6387C5.11135 11.0266 5.57184 11.3343 6.07864 11.5442C6.58544 11.7541 7.12862 11.8622 7.67717 11.8622C8.22573 11.8622 8.76891 11.7541 9.27571 11.5442C9.78251 11.3343 10.243 11.0266 10.6309 10.6387C11.0188 10.2508 11.3265 9.79032 11.5364 9.28352C11.7463 8.77673 11.8543 8.23354 11.8543 7.68499C11.8543 7.13643 11.7463 6.59325 11.5364 6.08645C11.3265 5.57965 11.0188 5.11917 10.6309 4.73128C10.243 4.34339 9.78251 4.0357 9.27571 3.82578C8.76891 3.61586 8.22573 3.50781 7.67717 3.50781ZM12.2813 2.72902C12.3276 2.3174 12.6988 2.02124 13.1104 2.06752C13.3277 2.09196 13.5509 2.12295 13.7704 2.16269C14.1779 2.2365 14.4485 2.62674 14.3747 3.03432C14.3009 3.44191 13.9107 3.71249 13.5031 3.63869C13.3235 3.60617 13.1344 3.57968 12.9428 3.55813C12.5311 3.51184 12.235 3.14064 12.2813 2.72902ZM16.416 3.85514C16.654 3.51612 17.1218 3.43421 17.4608 3.67219L17.965 4.02612C18.304 4.2641 18.386 4.73186 18.148 5.07088C17.91 5.40991 17.4422 5.49182 17.1032 5.25384L16.599 4.89991C16.26 4.66193 16.1781 4.19417 16.416 3.85514ZM6.935 4.49674C6.61548 4.55016 6.31367 4.68683 6.06114 4.89538C5.72959 5.16918 5.50364 5.5498 5.42205 5.97198C5.34045 6.39415 5.4083 6.83156 5.61394 7.20918C5.81958 7.5868 6.15021 7.8811 6.54912 8.0416L6.5507 8.04224L8.24546 8.71965C8.24539 8.71962 8.24552 8.71968 8.24546 8.71965C8.32137 8.75007 8.38451 8.80604 8.4237 8.87782C8.46292 8.94966 8.47588 9.03293 8.46035 9.11329C8.44483 9.19365 8.40179 9.2661 8.33863 9.31816C8.27547 9.37022 8.19614 9.39865 8.11429 9.39856L6.44558 9.39856C6.03136 9.39856 5.69558 9.73434 5.69558 10.1486C5.69558 10.5628 6.03136 10.8986 6.44558 10.8986H6.93913C7.00235 11.2488 7.30874 11.5145 7.67717 11.5145C8.05441 11.5145 8.36659 11.2359 8.41933 10.8733C8.73858 10.8201 9.04022 10.6838 9.29273 10.4756C9.62499 10.2017 9.85144 9.82061 9.93312 9.39783C10.0148 8.97505 9.94661 8.53702 9.74029 8.15907C9.53396 7.78112 9.20238 7.48688 8.80259 7.32695L7.10903 6.65002C7.10885 6.64995 7.10921 6.6501 7.10903 6.65002C7.03345 6.61947 6.97026 6.5634 6.93127 6.49179C6.89218 6.42001 6.87928 6.33687 6.89479 6.25662C6.9103 6.17637 6.95325 6.10402 7.01627 6.05198C7.07924 5.99998 7.15831 5.97149 7.23996 5.97138C7.23989 5.97138 7.24004 5.97138 7.23996 5.97138H8.90916C9.32338 5.97138 9.65916 5.63559 9.65916 5.22138C9.65916 4.80717 9.32338 4.47138 8.90916 4.47138H8.41522C8.352 4.12115 8.04561 3.85548 7.67717 3.85548C7.29989 3.85548 6.98768 4.13406 6.935 4.49674ZM19.6223 6.70455C19.98 6.49584 20.4393 6.6167 20.648 6.97449C20.7609 7.16804 20.8654 7.36398 20.9633 7.55979C21.1486 7.93027 20.9984 8.38078 20.6279 8.56602C20.2574 8.75126 19.8069 8.60109 19.6217 8.23061C19.5356 8.05852 19.4464 7.89149 19.3523 7.73029C19.1436 7.3725 19.2645 6.91326 19.6223 6.70455ZM12.3085 12.2932C13.3731 11.2285 14.8171 10.6303 16.3228 10.6303C17.8285 10.6303 19.2725 11.2285 20.3372 12.2932C21.4019 13.3578 22 14.8018 22 16.3075C22 17.8132 21.4019 19.2572 20.3372 20.3219C19.2725 21.3866 17.8285 21.9847 16.3228 21.9847C14.8171 21.9847 13.3731 21.3866 12.3085 20.3219C11.2438 19.2572 10.6457 17.8132 10.6457 16.3075C10.6457 14.8018 11.2438 13.3578 12.3085 12.2932ZM16.3228 12.1303C15.215 12.1303 14.1525 12.5704 13.3691 13.3538C12.5857 14.1372 12.1457 15.1997 12.1457 16.3075C12.1457 17.4154 12.5857 18.4779 13.3691 19.2612C14.1525 20.0446 15.215 20.4847 16.3228 20.4847C17.4307 20.4847 18.4932 20.0446 19.2765 19.2612C20.0599 18.4779 20.5 17.4154 20.5 16.3075C20.5 15.1997 20.0599 14.1372 19.2765 13.3538C18.4932 12.5704 17.4307 12.1303 16.3228 12.1303ZM2.95209 13.9682C3.34835 13.8475 3.76738 14.0709 3.88802 14.4672C3.94276 14.647 4.00383 14.8257 4.07127 15.0034C4.21828 15.3906 4.02351 15.8237 3.63626 15.9707C3.24901 16.1177 2.81592 15.9229 2.66891 15.5357C2.58964 15.3269 2.51768 15.1163 2.45306 14.9041C2.33241 14.5079 2.55584 14.0888 2.95209 13.9682ZM18.9686 14.2745C19.3 14.523 19.3672 14.9931 19.1187 15.3245L16.7332 18.5058C16.6156 18.6622 16.4653 18.7922 16.2935 18.8857C16.1216 18.9792 15.9317 19.0347 15.7366 19.0485C15.5415 19.0623 15.3457 19.0341 15.1624 18.9657C14.9792 18.8973 14.8127 18.7904 14.6743 18.6522L13.4422 17.4201C13.1493 17.1272 13.1493 16.6523 13.4422 16.3594C13.7351 16.0665 14.21 16.0665 14.5029 16.3594L15.6258 17.4823L17.9187 14.4246C18.1672 14.0932 18.6373 14.026 18.9686 14.2745ZM4.82333 17.8226C5.11317 17.5267 5.58802 17.5217 5.88393 17.8116L6.32327 18.2419C6.61919 18.5317 6.62413 19.0066 6.33429 19.3025C6.04445 19.5984 5.56961 19.6033 5.27369 19.3135L4.83435 18.8832C4.53843 18.5934 4.5335 18.1185 4.82333 17.8226ZM8.22448 20.415C8.37876 20.0306 8.81545 19.844 9.19986 19.9983C9.3581 20.0618 9.52056 20.1142 9.68607 20.1552C10.0882 20.2546 10.3335 20.6612 10.2341 21.0633C10.1347 21.4654 9.72809 21.7107 9.32599 21.6113C9.09286 21.5536 8.86403 21.4798 8.64117 21.3904C8.25676 21.2361 8.0702 20.7994 8.22448 20.415Z" fill="#006FB9"/>
</svg>
