<svg width="24" height="24" viewBox="0 0 24 24" fill="none" xmlns="http://www.w3.org/2000/svg">
<path fill-rule="evenodd" clip-rule="evenodd" d="M10.507 2.00039C10.515 2.00013 10.5231 2 10.5312 2H15.3149L15.3328 2.00021C15.5406 2.00519 15.7431 2.06741 15.9178 2.18002C16.0897 2.29078 16.2282 2.44606 16.3188 2.62925C16.4048 2.79932 16.4497 2.98729 16.4497 3.17797C16.4497 3.37183 16.4033 3.56289 16.3144 3.73519L16.3102 3.74343L15.5976 5.08354L15.6512 5.08333C16.7661 5.08333 17.683 5.74358 17.683 6.75833C17.6813 6.80886 17.6751 6.86679 17.674 6.87441L17.6724 6.88398L17.6714 6.88972L17.6706 6.89404L17.6694 6.90099L17.6654 6.92237L17.6507 7.00061C17.6379 7.06809 17.6192 7.16544 17.5955 7.28635C17.5481 7.52805 17.4805 7.86465 17.3993 8.2453C17.2382 9.00008 17.0188 9.95202 16.7946 10.6793C16.6893 11.0208 16.5551 11.4306 16.2551 11.7245C16.6151 12.1153 17.0086 12.5979 17.3786 13.1503C18.1741 14.3377 18.9163 15.9301 18.9163 17.7013C18.9163 19.3199 17.9592 20.425 16.7265 21.0855C15.5171 21.7334 13.9808 22 12.5555 22C11.1301 22 9.62014 21.7335 8.43738 21.0811C7.22625 20.4132 6.31634 19.3048 6.31634 17.7013C6.31634 15.8587 7.12559 14.2008 7.97444 12.9843C8.37645 12.4082 8.80562 11.9054 9.19373 11.5074C8.95063 11.3878 8.69405 11.2527 8.42344 11.1067C8.39759 11.3262 8.31713 11.5523 8.15554 11.7447C7.94339 11.9972 7.63784 12.1333 7.31301 12.1333H5.83301C5.41879 12.1333 5.08301 11.7975 5.08301 11.3833C5.08301 10.9691 5.41879 10.6333 5.83301 10.6333H6.93301V9.86308C6.93282 9.85331 6.93282 9.84353 6.93301 9.83374V5.96667H5.83301C5.41879 5.96667 5.08301 5.63088 5.08301 5.21667C5.08301 4.80245 5.41879 4.46667 5.83301 4.46667H7.31301C7.63784 4.46667 7.94339 4.60278 8.15554 4.85535C8.29488 5.02123 8.37389 5.2122 8.40959 5.40236H8.79368C8.84672 5.39918 8.89861 5.3853 8.94621 5.3615C8.99171 5.33875 9.03233 5.30742 9.06585 5.26928L9.8023 4.23411L9.5354 3.73551C9.44669 3.56321 9.4005 3.37217 9.4005 3.17838C9.4005 2.98805 9.44514 2.80042 9.53077 2.63054C9.62016 2.44859 9.75696 2.29401 9.92686 2.18316C10.0999 2.07028 10.3005 2.00706 10.507 2.00039ZM11.3692 3.98291C11.3545 3.9498 11.3373 3.91764 11.3177 3.88672L11.1107 3.5H14.7407L13.8952 5.09031L11.9661 5.09799L11.3692 3.98291ZM10.5927 5.71067L10.2716 6.16204C10.2628 6.17432 10.2537 6.18633 10.2443 6.19805C10.0738 6.40944 9.85991 6.5817 9.61703 6.70314C9.37414 6.82458 9.10798 6.89237 8.8366 6.9019C8.82783 6.90221 8.81905 6.90236 8.81027 6.90236H8.43301V9.40328C8.50159 9.44075 8.56864 9.47742 8.63424 9.51331C9.20896 9.82771 9.67311 10.0816 10.0949 10.2754C10.319 10.3783 10.5165 10.4569 10.6954 10.5139C10.7781 10.5225 10.859 10.5448 10.9346 10.5799C11.0941 10.6163 11.2394 10.6333 11.3781 10.6333L14.7952 10.6333C15.0137 10.6333 15.1372 10.6295 15.2212 10.6185C15.2217 10.6184 15.2221 10.6184 15.2226 10.6183C15.2558 10.5513 15.2993 10.4381 15.3612 10.2374C15.5646 9.57756 15.7727 8.68032 15.9323 7.93228C16.0114 7.56153 16.0774 7.23331 16.1235 6.99783C16.1445 6.89073 16.1614 6.80297 16.1735 6.73932C16.1671 6.73025 16.1566 6.71856 16.1397 6.7048C16.0871 6.66213 15.9455 6.58357 15.6525 6.58333C15.6521 6.58333 15.6516 6.58333 15.6512 6.58333L11.5208 6.59977C11.2432 6.60088 10.9877 6.44851 10.8566 6.20373L10.5927 5.71067ZM16.183 6.75833C16.183 6.76143 16.1837 6.76128 16.183 6.75833V6.75833ZM10.7749 12.0778C10.4213 12.3756 9.79802 12.9922 9.20457 13.8427C8.44598 14.9298 7.81634 16.2871 7.81634 17.7013C7.81634 18.6277 8.30257 19.2938 9.1618 19.7676C10.0494 20.2572 11.284 20.5 12.5555 20.5C13.8271 20.5 15.0962 20.2572 16.0181 19.7633C16.9165 19.2819 17.4163 18.6126 17.4163 17.7013C17.4163 16.3407 16.8393 15.0404 16.1324 13.9851C15.5398 13.1004 14.8949 12.4457 14.5323 12.1333L13.3435 12.1333C13.4536 12.2639 13.52 12.4325 13.52 12.6166L13.52 12.8032C13.6643 12.8424 13.8054 12.8943 13.9416 12.9584C14.3168 13.1351 14.6438 13.3998 14.8948 13.7299C15.1455 14.0597 15.0814 14.5302 14.7517 14.7809C14.422 15.0316 13.9514 14.9675 13.7007 14.6377C13.5959 14.4998 13.4593 14.3893 13.3026 14.3154C13.1458 14.2416 12.9736 14.2067 12.8005 14.2138C12.7903 14.2142 12.7802 14.2144 12.7701 14.2144C12.4488 14.2144 12.1865 14.313 12.0214 14.4368C11.8566 14.5604 11.8247 14.6739 11.8247 14.7364C11.8247 14.7992 11.8568 14.913 12.0215 15.0366C12.1864 15.1604 12.4486 15.2592 12.7701 15.2592C13.3848 15.2592 13.9703 15.4449 14.4191 15.7812C14.8681 16.1176 15.2163 16.6399 15.2163 17.2803C15.2163 17.9206 14.8683 18.443 14.4194 18.7796C14.1587 18.9751 13.8519 19.1198 13.52 19.2068L13.52 19.4001C13.52 19.8143 13.1842 20.15 12.77 20.15C12.3557 20.15 12.02 19.8142 12.02 19.3999L12.02 19.2132C11.8758 19.1739 11.7348 19.1221 11.5987 19.058C11.2237 18.8814 10.8968 18.617 10.6457 18.2872C10.3948 17.9576 10.4585 17.487 10.7881 17.2361C11.1176 16.9852 11.5882 17.049 11.8391 17.3785C11.9442 17.5165 12.0809 17.6271 12.2378 17.7009C12.3946 17.7748 12.567 17.8098 12.7403 17.8029C12.7502 17.8025 12.7601 17.8023 12.7701 17.8023C13.0917 17.8023 13.3542 17.7035 13.5194 17.5796C13.6846 17.4558 13.7163 17.3422 13.7163 17.2803C13.7163 17.2186 13.6847 17.1052 13.5197 16.9816C13.3545 16.8579 13.0919 16.7592 12.7701 16.7592C12.1551 16.7592 11.5696 16.573 11.1209 16.2362C10.672 15.8991 10.3247 15.3765 10.3247 14.7364C10.3247 14.0958 10.6726 13.5734 11.1216 13.2367C11.382 13.0414 11.6885 12.8968 12.02 12.8099L12.02 12.6167C12.02 12.4326 12.0864 12.2639 12.1965 12.1333H11.3781C11.1735 12.1333 10.9729 12.1136 10.7749 12.0778Z" fill="#006FB9"/>
</svg>
