<svg width="48" height="41" viewBox="0 0 48 41" fill="none" xmlns="http://www.w3.org/2000/svg">
<mask id="mask0_75_336" style="mask-type:alpha" maskUnits="userSpaceOnUse" x="0" y="0" width="48" height="41">
<path d="M0.792389 0.930298H47.6814V40.0616H0.792389V0.930298Z" fill="white"/>
</mask>
<g mask="url(#mask0_75_336)">
<path fill-rule="evenodd" clip-rule="evenodd" d="M4.06702 10.6941C1.80021 11.6415 0.477026 13.9899 0.856575 16.3921L2.93361 29.5432C3.2513 31.5385 4.68562 33.1828 6.63474 33.7854L26.149 39.8199C27.5446 40.2507 29.0575 40.1016 30.3419 39.4058L43.2696 32.3917C44.791 31.5695 45.8133 30.0671 46.0114 28.3607L47.645 14.577C47.8976 12.4626 46.8439 10.4041 44.965 9.34798L31.2058 1.62257C29.7558 0.808712 28.0038 0.706204 26.4583 1.34818L4.06702 10.6941Z" fill="white"/>
</g>
<path fill-rule="evenodd" clip-rule="evenodd" d="M7.60771 18.1358V20.0534H10.6986V20.743H7.60771V23.1535H6.6882V20.743H6.67981V20.0534H6.6882V17.4317H7.60771V17.4472H10.945V18.1358H7.60771Z" fill="#245BA7"/>
<mask id="mask1_75_336" style="mask-type:alpha" maskUnits="userSpaceOnUse" x="0" y="0" width="48" height="41">
<path d="M0.792389 40.0616H47.6814V0.930298H0.792389V40.0616Z" fill="white"/>
</mask>
<g mask="url(#mask1_75_336)">
<path fill-rule="evenodd" clip-rule="evenodd" d="M12.0226 23.1529H12.7125V17.431H12.0226V23.1529Z" fill="#245BA7"/>
<path fill-rule="evenodd" clip-rule="evenodd" d="M22.651 17.6817H24.6326V18.1042H22.651V23.153H22.2232V18.1042H20.2416V17.6817H22.2232V17.6745H22.651V17.6817Z" fill="#245BA7"/>
<path fill-rule="evenodd" clip-rule="evenodd" d="M37.4965 20.0691H41.032V17.6586H41.4755V23.1692H41.032V20.5071H37.4965V23.1692H37.053V17.6586H37.4965V20.0691Z" fill="#245BA7"/>
<path fill-rule="evenodd" clip-rule="evenodd" d="M26.2019 20.0929H29.3012V20.5153H26.2019V22.7301H29.7289V23.1536H25.7258V17.6741H26.2019V17.6813H29.7289V18.1048H26.2019V20.0929Z" fill="#245BA7"/>
<path fill-rule="evenodd" clip-rule="evenodd" d="M14.7489 17.4315L18.4584 21.9242V17.4315H19.1473V23.1533H18.5696L18.5528 23.0984L14.9313 18.6678V23.1533H14.2414V17.4315H14.7489Z" fill="#245BA7"/>
<path fill-rule="evenodd" clip-rule="evenodd" d="M35.9351 18.3865L35.912 18.371L35.5629 18.6993C35.111 18.1981 34.4693 17.8926 33.7553 17.8926C32.3996 17.8926 31.3061 19.012 31.3061 20.3901C31.3061 21.7683 32.408 22.8876 33.7553 22.8876C34.5165 22.8876 35.198 22.5345 35.6499 21.9795L35.9907 22.2995C35.4675 22.8876 34.7147 23.2624 33.8748 23.2624C32.3053 23.2624 31.0366 21.9712 31.0366 20.3746C31.0366 18.7779 32.3053 17.4857 33.8748 17.4857C34.6906 17.4857 35.4203 17.8305 35.9351 18.3865Z" fill="#245BA7"/>
<path fill-rule="evenodd" clip-rule="evenodd" d="M29.2695 25.6892L30.0852 26.8945L30.9418 25.6892H31.2029V28.0293H30.8789V26.3074L30.1576 27.3801H30.0223L29.301 26.355V27.9982H29V25.6892H29.2695Z" fill="#245BA7"/>
<path fill-rule="evenodd" clip-rule="evenodd" d="M32.3606 25.4622L32.7884 24.9456L33.1218 25.1413L32.693 25.4705H32.3606V25.4622ZM32.0272 27.7009H33.4468V28.0291H31.6948V25.689H33.407V25.9945H32.0272V26.6758H33.2875V26.9812H32.0272V27.7009Z" fill="#245BA7"/>
<path fill-rule="evenodd" clip-rule="evenodd" d="M34.667 26.5973L35.3883 25.6892H35.7532L34.841 26.824L35.7846 27.9982H35.4198L34.667 27.0508L33.9058 27.9982H33.5409L34.4845 26.824L33.5807 25.6892H33.9383L34.667 26.5973Z" fill="#245BA7"/>
<path fill-rule="evenodd" clip-rule="evenodd" d="M36.0779 28.0298H36.4103V25.6897H36.0779V28.0298Z" fill="#245BA7"/>
<path fill-rule="evenodd" clip-rule="evenodd" d="M38.971 26.0492L38.7414 26.2688C38.582 26.0575 38.3293 25.9167 38.0431 25.9167C37.5513 25.9167 37.1561 26.3236 37.1561 26.832C37.1561 27.3332 37.5513 27.7484 38.0431 27.7484C38.344 27.7484 38.6145 27.591 38.7728 27.357L39.0108 27.5599C38.7885 27.8499 38.4394 28.03 38.0431 28.03C37.3699 28.03 36.83 27.4895 36.83 26.832C36.83 26.1745 37.3773 25.6351 38.0431 25.6351C38.4163 25.6268 38.7487 25.7904 38.971 26.0492Z" fill="#245BA7"/>
<path fill-rule="evenodd" clip-rule="evenodd" d="M40.2944 27.748C40.7704 27.748 41.1583 27.3328 41.1583 26.8244C41.1583 26.316 40.7704 25.9008 40.2944 25.9008C39.8183 25.9008 39.4304 26.316 39.4304 26.8244C39.4304 27.3328 39.8183 27.748 40.2944 27.748ZM40.2786 28.0224C39.6128 28.0224 39.0739 27.4891 39.0739 26.8316C39.0739 26.1741 39.6128 25.6419 40.2786 25.6419C40.9444 25.6419 41.4833 26.1741 41.4833 26.8316C41.4833 27.4891 40.9444 28.0224 40.2786 28.0224Z" fill="#245BA7"/>
</g>
</svg>
