<svg width="186" height="217" viewBox="0 0 186 217" fill="none" xmlns="http://www.w3.org/2000/svg">
<path d="M120.795 167.879H37.9199C32.2245 167.879 27.6074 172.496 27.6074 178.191V185.23C27.6074 190.925 32.2245 195.542 37.9199 195.542H120.795C126.491 195.542 131.108 190.925 131.108 185.23V178.191C131.108 172.496 126.491 167.879 120.795 167.879Z" fill="#275BA7"/>
<path d="M37.9141 173.168H120.795C123.567 173.168 125.813 175.414 125.813 178.186V185.23C125.813 188.002 123.567 190.248 120.795 190.248H37.9141C35.1426 190.248 32.8965 188.002 32.8965 185.23V178.186C32.8965 175.414 35.1426 173.168 37.9141 173.168Z" fill="#00AEE8"/>
<path d="M37.9141 145.51H120.789C126.477 145.51 131.102 150.129 131.102 155.822V162.867C131.102 168.554 126.483 173.173 120.795 173.173H37.9141C32.2266 173.173 27.6016 168.554 27.6016 162.861V155.816C27.6016 150.129 32.2208 145.504 37.9141 145.504V145.51Z" fill="#275BA7"/>
<path d="M37.9141 150.799H120.789C123.561 150.799 125.807 153.045 125.807 155.816V162.861C125.807 165.632 123.561 167.879 120.789 167.879H37.9141C35.1426 167.879 32.8965 165.632 32.8965 162.861V155.816C32.8965 153.045 35.1426 150.799 37.9141 150.799Z" fill="#00AEE8"/>
<path d="M120.795 123.143H37.9199C32.2245 123.143 27.6074 127.76 27.6074 133.455V140.494C27.6074 146.189 32.2245 150.806 37.9199 150.806H120.795C126.491 150.806 131.108 146.189 131.108 140.494V133.455C131.108 127.76 126.491 123.143 120.795 123.143Z" fill="#275BA7"/>
<path d="M120.789 128.43H37.9141C35.143 128.43 32.8965 130.676 32.8965 133.447V140.486C32.8965 143.257 35.143 145.504 37.9141 145.504H120.789C123.561 145.504 125.807 143.257 125.807 140.486V133.447C125.807 130.676 123.561 128.43 120.789 128.43Z" fill="#00AEE8"/>
<path d="M134.434 100.773H51.5586C45.8632 100.773 41.2461 105.39 41.2461 111.086V118.125C41.2461 123.82 45.8632 128.437 51.5586 128.437H134.434C140.129 128.437 144.746 123.82 144.746 118.125V111.086C144.746 105.39 140.129 100.773 134.434 100.773Z" fill="#275BA7"/>
<path d="M134.434 106.062H51.5587C48.7875 106.062 46.541 108.309 46.541 111.08V118.119C46.541 120.89 48.7875 123.136 51.5587 123.136H134.434C137.205 123.136 139.452 120.89 139.452 118.119V111.08C139.452 108.309 137.205 106.062 134.434 106.062Z" fill="#00AEE8"/>
<path d="M120.795 78.4043H37.9199C32.2245 78.4043 27.6074 83.0214 27.6074 88.7168V95.7554C27.6074 101.451 32.2245 106.068 37.9199 106.068H120.795C126.491 106.068 131.108 101.451 131.108 95.7554V88.7168C131.108 83.0214 126.491 78.4043 120.795 78.4043Z" fill="#275BA7"/>
<path d="M120.789 83.6934H37.9141C35.143 83.6934 32.8965 85.9398 32.8965 88.711V95.7496C32.8965 98.5208 35.143 100.767 37.9141 100.767H120.789C123.561 100.767 125.807 98.5208 125.807 95.7496V88.711C125.807 85.9398 123.561 83.6934 120.789 83.6934Z" fill="#00AEE8"/>
<path d="M120.594 209.261C140.933 209.261 157.421 192.773 157.421 172.434C157.421 152.095 140.933 135.607 120.594 135.607C100.255 135.607 83.7666 152.095 83.7666 172.434C83.7666 192.773 100.255 209.261 120.594 209.261Z" fill="#FFE539"/>
<path d="M111.02 179.255C113.301 181.385 116.823 183.424 119.999 183.424C122.083 183.424 124.664 182.234 124.664 179.803C124.664 177.026 120.795 176.529 116.875 175.092C113.006 173.654 109.086 171.419 109.086 165.368C109.086 159.317 113.15 154.109 119.202 153.71V147.711H123.815V153.71C126.939 154.01 130.167 154.853 132.84 156.586L129.168 163.78C127.384 162.342 125.149 161.349 122.816 161.349C120.634 161.349 118.601 162.14 118.601 164.127C118.601 166.407 121.725 167.401 123.463 167.995C129.116 169.878 134.226 171.962 134.226 178.856C134.226 185.751 130.259 189.371 123.809 190.959V197.16H119.196V191.259C117.013 191.259 114.883 190.814 112.798 190.018C110.714 189.226 108.583 188.28 106.943 186.744L111.008 179.255H111.02Z" fill="#275BA7"/>
<circle cx="25.6539" cy="25.0145" r="12.154" transform="rotate(15 25.6539 25.0145)" stroke="#FFDD35" stroke-width="5.00741"/>
<circle cx="139.226" cy="50.9602" r="10.5294" transform="rotate(15 139.226 50.9602)" stroke="#FFDD35" stroke-width="5.00741"/>
<path d="M40.5 44.7891L47.5009 51.7899" stroke="white" stroke-width="0.77037" stroke-linecap="round" stroke-linejoin="round"/>
<path d="M53.0762 57.3613L60.077 64.3622" stroke="white" stroke-width="0.77037" stroke-linecap="round" stroke-linejoin="round"/>
<path d="M60.077 44.7891L53.0762 51.7899" stroke="white" stroke-width="0.77037" stroke-linecap="round" stroke-linejoin="round"/>
<path d="M47.5009 57.3613L40.5 64.3622" stroke="white" stroke-width="0.77037" stroke-linecap="round" stroke-linejoin="round"/>
<path d="M160.825 21.0039L167.826 28.0048" stroke="white" stroke-width="0.77037" stroke-linecap="round" stroke-linejoin="round"/>
<path d="M173.401 33.5762L180.402 40.577" stroke="white" stroke-width="0.77037" stroke-linecap="round" stroke-linejoin="round"/>
<path d="M180.402 21.0039L173.401 28.0048" stroke="white" stroke-width="0.77037" stroke-linecap="round" stroke-linejoin="round"/>
<path d="M167.826 33.5762L160.825 40.577" stroke="white" stroke-width="0.77037" stroke-linecap="round" stroke-linejoin="round"/>
<circle cx="167.5" cy="77.7897" r="5.27022" fill="#9CD7FF" stroke="black" stroke-width="2"/>
</svg>
