<svg width="93" height="97" viewBox="0 0 93 97" fill="none" xmlns="http://www.w3.org/2000/svg">
<path d="M60.7327 72.25H18.2966C15.3803 72.25 13.0161 74.5863 13.0161 77.4684V81.0301C13.0161 83.9121 15.3803 86.2484 18.2966 86.2484H60.7327C63.649 86.2484 66.0132 83.9121 66.0132 81.0301V77.4684C66.0132 74.5863 63.649 72.25 60.7327 72.25Z" fill="#275BA7"/>
<path d="M18.2934 74.9297H60.7325C62.1516 74.9297 63.3018 76.0663 63.3018 77.4687V81.0334C63.3018 82.4358 62.1516 83.5724 60.7325 83.5724H18.2934C16.8742 83.5724 15.7241 82.4358 15.7241 81.0334V77.4687C15.7241 76.0663 16.8742 74.9297 18.2934 74.9297Z" fill="#00AEE8"/>
<path d="M18.2937 60.9326H60.7298C63.642 60.9326 66.0103 63.2701 66.0103 66.151V69.7156C66.0103 72.5936 63.645 74.931 60.7327 74.931H18.2937C15.3814 74.931 13.0132 72.5936 13.0132 69.7127V66.1481C13.0132 63.2701 15.3785 60.9297 18.2937 60.9297V60.9326Z" fill="#275BA7"/>
<path d="M18.2934 63.6094H60.7295C62.1487 63.6094 63.2988 64.746 63.2988 66.1484V69.7131C63.2988 71.1155 62.1487 72.2521 60.7295 72.2521H18.2934C16.8742 72.2521 15.7241 71.1155 15.7241 69.7131V66.1484C15.7241 64.746 16.8742 63.6094 18.2934 63.6094Z" fill="#00AEE8"/>
<path d="M60.7327 49.6094H18.2966C15.3803 49.6094 13.0161 51.9457 13.0161 54.8277V58.3894C13.0161 61.2715 15.3803 63.6078 18.2966 63.6078H60.7327C63.649 63.6078 66.0132 61.2715 66.0132 58.3894V54.8277C66.0132 51.9457 63.649 49.6094 60.7327 49.6094Z" fill="#275BA7"/>
<path d="M60.7295 52.2891H18.2934C16.8744 52.2891 15.7241 53.4258 15.7241 54.8281V58.3898C15.7241 59.7921 16.8744 60.9289 18.2934 60.9289H60.7295C62.1485 60.9289 63.2988 59.7921 63.2988 58.3898V54.8281C63.2988 53.4258 62.1485 52.2891 60.7295 52.2891Z" fill="#00AEE8"/>
<path d="M67.7161 38.2969H25.28C22.3637 38.2969 19.9995 40.6332 19.9995 43.5152V47.0769C19.9995 49.959 22.3637 52.2953 25.28 52.2953H67.7161C70.6324 52.2953 72.9966 49.959 72.9966 47.0769V43.5152C72.9966 40.6332 70.6324 38.2969 67.7161 38.2969Z" fill="#275BA7"/>
<path d="M67.7158 40.9688H25.2797C23.8608 40.9688 22.7104 42.1055 22.7104 43.5078V47.0695C22.7104 48.4718 23.8608 49.6086 25.2797 49.6086H67.7158C69.1348 49.6086 70.2851 48.4718 70.2851 47.0695V43.5078C70.2851 42.1055 69.1348 40.9688 67.7158 40.9688Z" fill="#00AEE8"/>
<path d="M60.7327 26.9766H18.2966C15.3803 26.9766 13.0161 29.3129 13.0161 32.1949V35.7566C13.0161 38.6387 15.3803 40.975 18.2966 40.975H60.7327C63.649 40.975 66.0132 38.6387 66.0132 35.7566V32.1949C66.0132 29.3129 63.649 26.9766 60.7327 26.9766Z" fill="#275BA7"/>
<path d="M60.7295 29.6484H18.2934C16.8744 29.6484 15.7241 30.7852 15.7241 32.1875V35.7492C15.7241 37.1515 16.8744 38.2883 18.2934 38.2883H60.7295C62.1485 38.2883 63.2988 37.1515 63.2988 35.7492V32.1875C63.2988 30.7852 62.1485 29.6484 60.7295 29.6484Z" fill="#00AEE8"/>
<path d="M60.6292 93.1926C71.0437 93.1926 79.4864 84.8493 79.4864 74.5572C79.4864 64.2652 71.0437 55.9219 60.6292 55.9219C50.2146 55.9219 41.772 64.2652 41.772 74.5572C41.772 84.8493 50.2146 93.1926 60.6292 93.1926Z" fill="#FFE539"/>
<path d="M55.727 78.0088C56.8949 79.0869 58.6984 80.1183 60.3245 80.1183C61.3919 80.1183 62.7135 79.5164 62.7135 78.2863C62.7135 76.8809 60.7325 76.6297 58.725 75.9021C56.7441 75.1746 54.7365 74.0439 54.7365 70.9818C54.7365 67.9197 56.818 65.2842 59.9165 65.0826V62.0469H62.2788V65.0826C63.8784 65.2346 65.5311 65.6612 66.9 66.5377L65.0196 70.1783C64.106 69.4508 62.9618 68.9482 61.7673 68.9482C60.6498 68.9482 59.609 69.3485 59.609 70.3536C59.609 71.5077 61.2085 72.0103 62.0985 72.3112C64.993 73.2637 67.6096 74.3185 67.6096 77.8072C67.6096 81.2958 65.5784 83.1278 62.2759 83.9313V87.0693H59.9136V84.0832C58.796 84.0832 57.705 83.8582 56.6376 83.455C55.5703 83.0547 54.4793 82.5756 53.6396 81.7984L55.7211 78.0088H55.727Z" fill="#275BA7"/>
<path d="M77.5088 25.0078L81.5033 29.0189" stroke="white" stroke-width="0.77037" stroke-linecap="round" stroke-linejoin="round"/>
<path d="M84.6841 32.2109L88.6786 36.222" stroke="white" stroke-width="0.77037" stroke-linecap="round" stroke-linejoin="round"/>
<path d="M88.6786 25.0078L84.6841 29.0189" stroke="white" stroke-width="0.77037" stroke-linecap="round" stroke-linejoin="round"/>
<path d="M81.5033 32.2109L77.5088 36.222" stroke="white" stroke-width="0.77037" stroke-linecap="round" stroke-linejoin="round"/>
<path d="M70.8455 17.0663C74.7483 18.1164 78.7444 15.7891 79.7845 11.8913C80.8246 7.99351 78.5227 3.97163 74.6199 2.92154C70.7171 1.87146 66.721 4.19878 65.6809 8.09655C64.6408 11.9943 66.9427 16.0162 70.8455 17.0663Z" stroke="#FFDD35" stroke-width="5.00741"/>
</svg>
