<svg width="25" height="25" viewBox="0 0 25 25" fill="none" xmlns="http://www.w3.org/2000/svg">
<path fill-rule="evenodd" clip-rule="evenodd" d="M20.5196 5.39068L12.5593 15.8588L16.5141 21.1618C16.8264 21.5806 17.4875 21.4279 17.5846 20.9146L20.5196 5.39068ZM11.2481 15.105L19.1163 4.75798L4.38336 14.0081C3.87292 14.3286 4.10073 15.1173 4.70344 15.1163L11.2481 15.105ZM11.2447 16.605L10.3177 16.6066V20.1725C10.3177 20.6372 10.8369 20.9132 11.2221 20.6533L13.2455 19.288L11.2447 16.605ZM14.1432 20.4918L15.3116 22.0586C16.4047 23.5243 18.7188 22.9899 19.0585 21.1933L22.0502 5.36957C22.3956 3.54297 20.3991 2.18148 18.8247 3.16995L3.58576 12.7378C1.79922 13.8595 2.59653 16.6199 4.70602 16.6163L8.81769 16.6092V20.1725C8.81769 21.839 10.6796 22.8288 12.0611 21.8967L14.1432 20.4918Z" fill="#006FB9"/>
</svg>
