<svg  width="186" height="217" viewBox="0 0 186 217" fill="none" xmlns="http://www.w3.org/2000/svg">
<path d="M95.8817 200.17C94.0428 200.17 92.204 200.006 90.3886 199.678L37.0327 189.974C32.3009 189.114 28.8633 184.997 28.8633 180.189V164.33C28.8633 155.885 35.1997 148.887 43.6034 148.044C56.446 146.762 69.3414 149.133 80.8898 154.908L87.3492 158.134C87.9817 158.451 88.6903 158.62 89.3989 158.62H107.951C112.343 158.62 116.109 161.332 117.667 165.173L142.995 158.117C147.727 156.313 153.167 158.415 155.439 162.96C156.628 165.337 156.821 168.031 155.978 170.555C155.141 173.073 153.366 175.117 150.989 176.306L109.79 196.902C105.486 199.057 100.69 200.17 95.8876 200.17H95.8817Z" fill="#275BA7"/>
<path d="M50.4024 153.074C48.3176 153.074 46.221 153.18 44.1304 153.385C38.485 153.947 34.2275 158.655 34.2275 164.33V180.188C34.2275 182.402 35.8087 184.3 37.9872 184.692L91.3431 194.396C96.7601 195.379 102.458 194.565 107.383 192.106L148.582 171.51C149.677 170.965 150.491 170.022 150.877 168.863C151.264 167.703 151.176 166.462 150.631 165.366C149.577 163.252 147.03 162.286 144.834 163.164C144.746 163.2 144.652 163.229 144.558 163.258L118.323 170.567C117.608 175.656 113.228 179.585 107.945 179.585H78.3189C76.8373 179.585 75.6368 178.385 75.6368 176.903C75.6368 175.422 76.8373 174.221 78.3189 174.221H107.945C110.762 174.221 113.058 171.925 113.058 169.109C113.058 166.292 110.762 163.996 107.945 163.996H89.393C87.8587 163.996 86.3185 163.633 84.9423 162.948L78.4829 159.721C69.7279 155.341 60.1295 153.086 50.4024 153.086V153.074Z" fill="white"/>
<path d="M104.754 149.799C103.337 149.799 101.89 149.554 100.449 149.067C94.9094 147.188 91.0034 141.999 90.734 136.155C90.5641 132.407 91.8174 129.068 94.3765 126.503C99.202 121.655 108.244 119.564 122.024 120.132C122.826 120.167 123.576 120.559 124.062 121.198C124.548 121.842 124.718 122.668 124.524 123.447C121.245 136.84 116.736 144.951 110.739 148.242C108.853 149.278 106.833 149.794 104.76 149.794L104.754 149.799Z" fill="#275BA7"/>
<path d="M117.884 125.408C105.726 125.408 100.461 127.997 98.1832 130.286C96.6782 131.803 95.993 133.642 96.0984 135.908C96.2683 139.563 98.7103 142.807 102.171 143.984C104.321 144.716 106.277 144.57 108.15 143.539C111.026 141.958 115.055 137.507 118.457 125.414C118.264 125.414 118.071 125.414 117.884 125.414V125.408Z" fill="#00AEE8"/>
<path d="M84.6079 151.627C82.9623 151.627 81.3577 151.211 79.8585 150.391C75.2438 147.861 71.8003 141.718 69.3232 131.622C69.1299 130.843 69.2997 130.012 69.7858 129.373C70.2719 128.735 71.0156 128.337 71.8238 128.307C82.2185 127.88 89.0703 129.49 92.7831 133.221C94.8152 135.259 95.8108 137.912 95.6761 140.881C95.4653 145.484 92.3908 149.571 88.022 151.053C86.8801 151.439 85.7381 151.633 84.6137 151.633L84.6079 151.627Z" fill="#275BA7"/>
<path d="M75.4199 133.602C77.8034 141.63 80.5031 144.617 82.4415 145.683C83.642 146.345 84.907 146.433 86.2949 145.964C88.5847 145.185 90.1951 143.042 90.3064 140.629C90.3767 139.159 89.9375 137.976 88.9712 137.004C87.4076 135.435 83.7884 133.672 75.4141 133.607L75.4199 133.602Z" fill="#00AEE8"/>
<path d="M93.2398 119.956C107.652 119.956 119.335 108.273 119.335 93.8609C119.335 79.4489 107.652 67.7656 93.2398 67.7656C78.8278 67.7656 67.1445 79.4489 67.1445 93.8609C67.1445 108.273 78.8278 119.956 93.2398 119.956Z" fill="#FFE539"/>
<path d="M92.9995 161.378C91.5179 161.378 90.3174 160.178 90.3174 158.696V119.963C90.3174 118.482 91.5179 117.281 92.9995 117.281C94.4811 117.281 95.6817 118.482 95.6817 119.963V158.696C95.6817 160.178 94.4811 161.378 92.9995 161.378Z" fill="#275BA7"/>
<path d="M86.4525 98.693C88.0689 100.204 90.5636 101.645 92.8124 101.645C94.2881 101.645 96.1153 100.801 96.1153 99.0795C96.1153 97.1118 93.3746 96.7604 90.5987 95.7415C87.858 94.7225 85.0822 93.1413 85.0822 88.8546C85.0822 84.5678 87.9634 80.8784 92.2502 80.5973V76.3457H95.518V80.5973C97.7316 80.8081 100.016 81.4055 101.913 82.6353L99.3128 87.7302C98.0478 86.7112 96.4667 86.0084 94.8152 86.0084C93.2692 86.0084 91.8285 86.5706 91.8285 87.9761C91.8285 89.5924 94.0422 90.2952 95.272 90.7168C99.2776 92.0521 102.897 93.5278 102.897 98.4119C102.897 103.296 100.086 105.861 95.518 106.985V111.378H92.2502V107.196C90.7041 107.196 89.1933 106.88 87.7175 106.318C86.2417 105.756 84.7308 105.088 83.5713 103.999L86.4525 98.693Z" fill="#275BA7"/>
<circle id="circle-yellow1" cx="159.957" cy="26.2458" r="14.3076" transform="rotate(15 159.957 26.2458)" stroke="#FFDD35" stroke-width="5.00741"/>
<circle id="circle-yellow2" cx="27.7316" cy="79.4934" r="10.5294" transform="rotate(15 27.7316 79.4934)" stroke="#FFDD35" stroke-width="5.00741"/>
<path d="M30.5 23.7891L37.5009 30.7899" stroke="white" stroke-width="0.77037" stroke-linecap="round" stroke-linejoin="round"/>
<path d="M43.0762 36.3613L50.077 43.3622" stroke="white" stroke-width="0.77037" stroke-linecap="round" stroke-linejoin="round"/>
<path d="M50.077 23.7891L43.0762 30.7899" stroke="white" stroke-width="0.77037" stroke-linecap="round" stroke-linejoin="round"/>
<path d="M37.5009 36.3613L30.5 43.3622" stroke="white" stroke-width="0.77037" stroke-linecap="round" stroke-linejoin="round"/>
<path d="M165.5 63.7891L172.501 70.7899" stroke="white" stroke-width="0.77037" stroke-linecap="round" stroke-linejoin="round"/>
<path d="M178.076 76.3613L185.077 83.3622" stroke="white" stroke-width="0.77037" stroke-linecap="round" stroke-linejoin="round"/>
<path d="M185.077 63.7891L178.076 70.7899" stroke="white" stroke-width="0.77037" stroke-linecap="round" stroke-linejoin="round"/>
<path d="M172.501 76.3613L165.5 83.3622" stroke="white" stroke-width="0.77037" stroke-linecap="round" stroke-linejoin="round"/>
<circle id="circle-blue" cx="7.49971" cy="57.7897" r="5.27022" fill="#9CD7FF" stroke="black" stroke-width="2"/>
</svg>
