<svg width="21" height="20" viewBox="0 0 21 20" fill="none" xmlns="http://www.w3.org/2000/svg">
<path d="M18.1659 0.851562H2.92783C1.61354 0.851562 0.546875 1.8649 0.546875 3.11347V17.5897C0.546875 18.8382 1.61354 19.8516 2.92783 19.8516H18.1659C19.4802 19.8516 20.5469 18.8382 20.5469 17.5897V3.11347C20.5469 1.8649 19.4802 0.851562 18.1659 0.851562ZM6.73735 8.08966V16.6849H3.88021V8.08966H6.73735ZM3.88021 5.58799C3.88021 4.95466 4.45164 4.47061 5.30878 4.47061C6.16592 4.47061 6.70402 4.95466 6.73735 5.58799C6.73735 6.22132 6.20402 6.73251 5.30878 6.73251C4.45164 6.73251 3.88021 6.22132 3.88021 5.58799ZM17.2135 16.6849H14.3564C14.3564 16.6849 14.3564 12.4958 14.3564 12.1611C14.3564 11.2563 13.8802 10.3516 12.6897 10.3335H12.6516C11.4993 10.3335 11.0231 11.2654 11.0231 12.1611C11.0231 12.5728 11.0231 16.6849 11.0231 16.6849H8.16592V8.08966H11.0231V9.24775C11.0231 9.24775 11.9421 8.08966 13.7897 8.08966C15.6802 8.08966 17.2135 9.32466 17.2135 11.8263V16.6849Z" fill="white"/>
</svg>
