<svg width="72" height="40" viewBox="0 0 72 40" fill="none" xmlns="http://www.w3.org/2000/svg">
<mask id="mask0_1914_36104" style="mask-type:alpha" maskUnits="userSpaceOnUse" x="0" y="0" width="72" height="40">
<path d="M0.610352 0.121094H71.1158V39.6843H0.610352V0.121094Z" fill="white"/>
</mask>
<g mask="url(#mask0_1914_36104)">
<path fill-rule="evenodd" clip-rule="evenodd" d="M68.6912 0.121094H3.0435C1.70454 0.121094 0.610352 1.12912 0.610352 2.36815V37.4338C0.610352 38.677 1.70454 39.6851 3.0435 39.6851H68.6912C70.0294 39.6851 71.116 38.677 71.116 37.4338V2.36815C71.116 1.12912 70.0294 0.121094 68.6912 0.121094ZM68.1323 1.46537C68.9787 1.46537 69.6703 2.09972 69.6703 2.88876V36.9174C69.6703 37.705 68.9787 38.3422 68.1323 38.3422H3.59937C2.74917 38.3422 2.05911 37.705 2.05911 36.9174V2.88876C2.05911 2.10607 2.74917 1.46537 3.59937 1.46537H68.1323Z" fill="white"/>
</g>
<path fill-rule="evenodd" clip-rule="evenodd" d="M29.9278 8.82031C29.8203 9.45113 29.7891 9.96892 29.7891 10.9607V19.879C29.7891 20.4462 29.9347 21.2353 29.9347 21.2353C29.9347 21.2353 29.8828 21.7502 29.9278 22.0187H27.2087C27.2522 21.7559 27.2087 21.2416 27.2087 21.2416C27.2087 21.2416 27.3506 20.4497 27.3506 19.879V10.9607C27.3506 9.9336 27.314 9.48503 27.2087 8.82031H29.9278Z" fill="white"/>
<path fill-rule="evenodd" clip-rule="evenodd" d="M37.3031 15.1907C38.9478 15.1907 39.8399 14.3805 39.8399 12.9246C39.8399 12.2549 39.644 11.7117 39.2528 11.3289C38.8395 10.9135 38.2486 10.7334 37.3031 10.7334H33.884V15.1907H37.3031ZM31.3784 22.0202C31.4173 21.7518 31.3784 21.2297 31.3784 21.2297C31.3784 21.2297 31.5241 20.4146 31.518 19.8812V10.9135C31.518 10.1195 31.4829 9.51836 31.3784 8.77734C32.1455 8.81125 32.7006 8.82185 33.6484 8.82185H37.39C39.1239 8.82185 40.3439 9.20754 41.2002 10.0015C41.9353 10.6627 42.3097 11.6623 42.3097 12.8511C42.3097 14.1107 41.8933 15.1448 41.1118 15.9014C40.2334 16.7102 39.0187 17.0959 37.3031 17.0959H33.884V19.8636C33.884 20.3934 34.0228 21.2297 34.0228 21.2297C34.0228 21.2297 33.9831 21.7631 34.0228 22.0202H31.3784Z" fill="white"/>
<path fill-rule="evenodd" clip-rule="evenodd" d="M59.9135 20.1462H56.0682V16.066H59.8815C60.7019 16.066 61.3829 16.2674 61.8312 16.6298C62.2285 16.9646 62.3985 17.4082 62.3985 18.0765C62.3985 19.4243 61.5064 20.1462 59.9135 20.1462ZM56.0682 10.6854H59.7709C60.4877 10.6854 61.1 10.867 61.4881 11.194C61.7778 11.4391 61.957 11.8919 61.957 12.4182C61.957 13.5506 61.1503 14.2301 59.7877 14.2301H56.0682V10.6854ZM44.9944 16.5669L46.8587 11.6624C46.9052 11.5077 46.9052 11.5077 47.195 10.7306C47.3955 11.2795 47.4443 11.4773 47.5183 11.6624L49.4306 16.5669H44.9944ZM63.7642 15.8499C63.2823 15.4381 62.8675 15.2735 61.957 15.0919C62.6532 14.8934 62.9742 14.7415 63.3692 14.3975C64.0486 13.8176 64.3734 13.0688 64.3734 12.0551C64.3734 9.98466 62.8141 8.82264 60.0409 8.82264H55.8181C54.6019 8.82264 54.3206 8.82264 53.5657 8.79297C53.6518 9.47394 53.7067 10.0673 53.7067 10.8302C53.7067 10.8302 53.6983 20.6315 53.6846 20.9183C53.5756 20.6859 49.3422 10.5017 49.3422 10.5017C48.9274 9.48736 48.8237 9.22105 48.7314 8.82264H45.6204C45.5296 9.25354 45.3878 9.6689 45.05 10.5017L41.1117 20.0628C40.9417 20.4704 40.1662 21.2298 40.1662 21.2298C40.1662 21.2298 40.1616 21.802 40.1616 22.0203H43.0965C43.2368 21.3245 43.3108 21.0702 43.6318 20.2811L44.3485 18.472H50.0719L50.7917 20.2811C50.9884 20.7629 51.1867 21.4764 51.2904 22.0203H60.2345C63.2068 22.0203 64.8736 20.7057 64.8736 18.3894C64.8736 17.31 64.4977 16.4856 63.7642 15.8499Z" fill="white"/>
<path fill-rule="evenodd" clip-rule="evenodd" d="M29.9278 8.03906C29.8203 8.66564 29.7891 9.17707 29.7891 10.1724V19.0914C29.7891 20.0669 29.8203 20.6045 29.9278 21.2282H27.2087C27.314 20.6045 27.3506 20.0669 27.3506 19.0914V10.1724C27.3506 9.14881 27.314 8.70025 27.2087 8.03906H29.9278Z" fill="white"/>
<path fill-rule="evenodd" clip-rule="evenodd" d="M37.3031 14.3971C38.9478 14.3971 39.8399 13.5861 39.8399 12.1274C39.8399 11.4697 39.644 10.9195 39.2528 10.5352C38.8395 10.1205 38.2486 9.94251 37.3031 9.94251H33.884V14.3971H37.3031ZM31.3784 21.2279C31.4829 20.5689 31.518 19.9861 31.518 19.0918V10.1205C31.518 9.32512 31.4829 8.73033 31.3784 7.98438C32.1455 8.0204 32.7006 8.03877 33.6484 8.03877H37.39C39.1239 8.03877 40.3439 8.41245 41.2002 9.21068C41.9353 9.87611 42.3097 10.87 42.3097 12.0617C42.3097 13.3226 41.8933 14.3504 41.1118 15.1148C40.2334 15.9257 39.0187 16.305 37.3031 16.305H33.884V19.0727C33.884 19.9691 33.9191 20.6042 34.0228 21.2279H31.3784Z" fill="white"/>
<path fill-rule="evenodd" clip-rule="evenodd" d="M59.9135 19.361H56.0682V15.2837H59.8815C60.7019 15.2837 61.3829 15.4815 61.8312 15.8439C62.2285 16.178 62.3985 16.6245 62.3985 17.2892C62.3985 18.6306 61.5064 19.361 59.9135 19.361ZM56.0682 9.89743H59.7709C60.4877 9.89743 61.1 10.0754 61.4881 10.4074C61.7778 10.6554 61.957 11.104 61.957 11.6323C61.957 12.7619 61.1503 13.4414 59.7877 13.4414H56.0682V9.89743ZM44.9944 15.7768L46.8587 10.8723C46.9052 10.7232 46.9052 10.7232 47.195 9.94546C47.3955 10.4908 47.4443 10.6886 47.5183 10.8723L49.4306 15.7768H44.9944ZM63.7642 15.0676C63.2823 14.6536 62.8675 14.4848 61.957 14.3054C62.6532 14.104 62.9742 13.9578 63.3692 13.6046C64.0486 13.0254 64.3734 12.2808 64.3734 11.2693C64.3734 9.20092 62.8141 8.04172 60.0409 8.04172H55.8181C54.6019 8.04172 54.3206 8.04172 53.5657 8.00781C53.6518 8.6803 53.7067 9.28004 53.7067 10.0451C53.7067 10.0451 53.6983 19.84 53.6846 20.1395C53.5756 19.8972 49.3422 9.71165 49.3422 9.71165C48.9274 8.7022 48.8237 8.4366 48.7314 8.04172H45.6204C45.5296 8.46909 45.3878 8.88516 45.05 9.71165L41.1117 19.2784C40.7907 20.0378 40.4346 20.7809 40.1616 21.2302H43.0965C43.2368 20.5358 43.3108 20.2864 43.6318 19.4953L44.3485 17.6819H50.0719L50.7917 19.4953C50.9884 19.9714 51.1867 20.6863 51.2904 21.2302H60.2345C63.2068 21.2302 64.8736 19.9233 64.8736 17.6014C64.8736 16.5263 64.4977 15.6984 63.7642 15.0676Z" fill="white"/>
<path fill-rule="evenodd" clip-rule="evenodd" d="M23.7445 9.78103C18.8141 7.14688 12.6196 7.14688 7.68921 9.78103V7.7784C12.6196 4.76137 18.8141 4.76137 23.7445 7.7784V9.5896V9.78103Z" fill="white"/>
<path fill-rule="evenodd" clip-rule="evenodd" d="M23.7445 13.4849C18.8141 11.7924 12.6196 11.7924 7.68921 13.4849V11.4774C12.6196 9.40338 18.8141 9.40338 23.7445 11.4774V13.2886V13.4849Z" fill="white"/>
<path fill-rule="evenodd" clip-rule="evenodd" d="M23.7445 17.1855C18.8141 16.4375 12.6196 16.4375 7.68921 17.1855V15.1808C12.6196 14.0491 18.8141 14.0491 23.7445 15.1808V16.987V17.1855Z" fill="white"/>
<path fill-rule="evenodd" clip-rule="evenodd" d="M23.7445 20.8148C18.8141 21.0098 12.6196 21.0098 7.68921 20.8148V18.8037C12.6196 18.6123 18.8141 18.6123 23.7445 18.8037V20.6135V20.8148Z" fill="white"/>
<path fill-rule="evenodd" clip-rule="evenodd" d="M23.7445 24.4412C18.8141 25.5771 12.6196 25.5771 7.68921 24.4412V22.4336C12.6196 23.1838 18.8141 23.1838 23.7445 22.4336V24.4412Z" fill="white"/>
<path fill-rule="evenodd" clip-rule="evenodd" d="M7.68921 6.99339V9.00451C12.6096 6.36682 18.8141 6.36682 23.7445 9.00451V8.80107V6.99339C21.2793 5.48453 18.5 4.72656 15.7153 4.72656C12.9307 4.72656 10.1521 5.48453 7.68921 6.99339Z" fill="white"/>
<path fill-rule="evenodd" clip-rule="evenodd" d="M9.01689 27.3594C9.00066 27.4553 8.9955 27.5332 8.9955 27.6848V29.0435C8.9955 29.1923 9.00066 29.273 9.01689 29.3697H8.60962C8.62585 29.273 8.63102 29.1923 8.63102 29.0435V27.6848C8.63102 27.5283 8.62585 27.4602 8.60962 27.3594H9.01689Z" fill="white"/>
<path fill-rule="evenodd" clip-rule="evenodd" d="M10.9228 29.3697C10.8771 29.2834 10.8291 29.2104 10.7516 29.0992L10.0603 28.1166C10.0094 28.0415 9.94225 27.933 9.87732 27.8141C9.88027 27.8489 9.88027 27.8489 9.88839 27.9428C9.89134 27.9908 9.8965 28.1048 9.8965 28.1625V28.9907C9.8965 29.1597 9.90462 29.2786 9.9179 29.3697H9.52686C9.54014 29.2862 9.54825 29.1597 9.54825 28.9879V27.6848C9.54825 27.5541 9.54309 27.463 9.52686 27.3594H9.94446C9.96881 27.422 10.0168 27.4984 10.1083 27.6271L10.7863 28.5895C10.8505 28.6799 10.9361 28.8113 10.9951 28.9128C10.984 28.8141 10.9767 28.6618 10.9767 28.5561V27.7078C10.9767 27.5589 10.9708 27.4553 10.9545 27.3594H11.3463C11.3301 27.4602 11.3249 27.5541 11.3249 27.7078V29.0435C11.3249 29.1847 11.3301 29.2807 11.3463 29.3697H10.9228Z" fill="white"/>
<path fill-rule="evenodd" clip-rule="evenodd" d="M12.1725 28.7415C12.1828 28.8555 12.1991 28.9056 12.2478 28.964C12.3252 29.0599 12.4647 29.1128 12.6388 29.1128C12.9066 29.1128 13.0675 28.9994 13.0675 28.8103C13.0675 28.706 13.0166 28.6205 12.9332 28.5781C12.8528 28.537 12.8365 28.5342 12.4669 28.4536C12.2662 28.4105 12.1585 28.3708 12.0626 28.2999C11.9261 28.1991 11.856 28.06 11.856 27.8903C11.856 27.5392 12.1563 27.3125 12.6174 27.3125C12.9229 27.3125 13.1531 27.4008 13.2844 27.5677C13.3515 27.6511 13.3833 27.7262 13.4157 27.8604L13.0328 27.9036C13.0166 27.8173 12.9974 27.7742 12.9524 27.7242C12.8823 27.6456 12.7642 27.6025 12.6174 27.6025C12.3843 27.6025 12.2256 27.7137 12.2256 27.8785C12.2256 27.9842 12.2846 28.0579 12.4079 28.108C12.4669 28.1302 12.4883 28.1358 12.7864 28.1991C12.9974 28.2415 13.1258 28.2902 13.2224 28.3528C13.3751 28.4591 13.4452 28.5975 13.4452 28.7867C13.4452 28.9661 13.3862 29.1128 13.2763 29.2164C13.1346 29.345 12.9229 29.4083 12.6359 29.4083C12.416 29.4083 12.202 29.3583 12.0729 29.2776C11.9659 29.2087 11.8884 29.1128 11.8375 28.989C11.8132 28.9306 11.8029 28.8833 11.7866 28.7797L12.1725 28.7415Z" fill="white"/>
<path fill-rule="evenodd" clip-rule="evenodd" d="M14.8429 29.0393C14.8429 29.1756 14.8481 29.2639 14.8643 29.3682H14.4593C14.4755 29.2611 14.4814 29.1756 14.4814 29.0393V27.6611H14.1191C13.9612 27.6611 13.8461 27.6653 13.7524 27.6785V27.3398C13.8484 27.3524 13.9642 27.3579 14.1169 27.3579H15.1779C15.3705 27.3579 15.4701 27.3524 15.5719 27.3398V27.6785C15.4723 27.6653 15.3705 27.6611 15.1779 27.6611H14.8429V29.0393Z" fill="white"/>
<path fill-rule="evenodd" clip-rule="evenodd" d="M16.3399 27.3594C16.3237 27.4553 16.3185 27.5332 16.3185 27.6848V29.0435C16.3185 29.1923 16.3237 29.273 16.3399 29.3697H15.9326C15.9488 29.273 15.954 29.1923 15.954 29.0435V27.6848C15.954 27.5283 15.9488 27.4602 15.9326 27.3594H16.3399Z" fill="white"/>
<path fill-rule="evenodd" clip-rule="evenodd" d="M17.7904 29.0393C17.7904 29.1756 17.7956 29.2639 17.8118 29.3682H17.4068C17.423 29.2611 17.4289 29.1756 17.4289 29.0393V27.6611H17.0674C16.9088 27.6611 16.7937 27.6653 16.7 27.6785V27.3398C16.7959 27.3524 16.9117 27.3579 17.0644 27.3579H18.1254C18.318 27.3579 18.4176 27.3524 18.5194 27.3398V27.6785C18.4198 27.6653 18.318 27.6611 18.1254 27.6611H17.7904V29.0393Z" fill="white"/>
<path fill-rule="evenodd" clip-rule="evenodd" d="M20.723 27.3594C20.7068 27.4526 20.7016 27.5436 20.7016 27.7022V28.5985C20.7016 29.1214 20.3718 29.4149 19.7874 29.4149C19.4908 29.4149 19.2444 29.3286 19.0968 29.177C18.9596 29.038 18.8954 28.8495 18.8954 28.5964V27.705C18.8954 27.5478 18.8903 27.4498 18.874 27.3594H19.2732C19.2577 27.4449 19.2518 27.5409 19.2518 27.705V28.5964C19.2518 28.9378 19.4399 29.1166 19.8015 29.1166C20.16 29.1166 20.3452 28.9378 20.3452 28.5936V27.705C20.3452 27.5436 20.3393 27.4526 20.3238 27.3594H20.723Z" fill="white"/>
<path fill-rule="evenodd" clip-rule="evenodd" d="M22.1708 29.0393C22.1708 29.1756 22.176 29.2639 22.1922 29.3682H21.7872C21.8034 29.2611 21.8093 29.1756 21.8093 29.0393V27.6611H21.447C21.2891 27.6611 21.174 27.6653 21.0803 27.6785V27.3398C21.1762 27.3524 21.2921 27.3579 21.4448 27.3579H22.5058C22.6984 27.3579 22.798 27.3524 22.8998 27.3398V27.6785C22.8002 27.6653 22.6984 27.6611 22.5058 27.6611H22.1708V29.0393Z" fill="white"/>
<path fill-rule="evenodd" clip-rule="evenodd" d="M24.8173 28.3567C24.8173 28.1022 24.7421 27.897 24.6056 27.7684C24.4956 27.6676 24.354 27.6147 24.1931 27.6147C23.8072 27.6147 23.563 27.9026 23.563 28.3594C23.563 28.6119 23.6412 28.8239 23.7807 28.9547C23.8906 29.0562 24.0323 29.109 24.1961 29.109C24.579 29.109 24.8173 28.8212 24.8173 28.3567ZM24.8926 27.5688C25.0881 27.7531 25.1921 28.0285 25.1921 28.3567C25.1921 28.9957 24.7989 29.4101 24.1902 29.4101C23.5822 29.4101 23.1912 28.9985 23.1912 28.3567C23.1912 28.0305 23.2981 27.751 23.4966 27.5688C23.6811 27.3971 23.9039 27.3164 24.1872 27.3164C24.4823 27.3164 24.7103 27.3971 24.8926 27.5688Z" fill="white"/>
<path fill-rule="evenodd" clip-rule="evenodd" d="M27.5465 28.3292C27.793 28.3292 27.9272 28.2048 27.9272 27.9829C27.9272 27.8814 27.8977 27.7987 27.8387 27.7403C27.7767 27.6777 27.6882 27.6492 27.5465 27.6492H27.0345V28.3292H27.5465ZM26.6597 29.3695C26.6759 29.2687 26.6811 29.1804 26.6811 29.0434V27.6777C26.6811 27.5567 26.6759 27.4656 26.6597 27.3516C26.7748 27.3571 26.8574 27.3592 26.9998 27.3592H27.5598C27.8203 27.3592 28.0018 27.4169 28.1309 27.5386C28.2401 27.6394 28.2969 27.791 28.2969 27.9725C28.2969 28.1651 28.2349 28.3209 28.1169 28.437C27.9863 28.5615 27.804 28.6192 27.5465 28.6192H27.0345V29.0406C27.0345 29.1776 27.0396 29.2728 27.0559 29.3695H26.6597Z" fill="white"/>
<path fill-rule="evenodd" clip-rule="evenodd" d="M29.6355 27.7905C29.6244 27.7627 29.6171 27.7328 29.5875 27.6493C29.544 27.7682 29.544 27.7682 29.5359 27.7905L29.2577 28.538H29.9218L29.6355 27.7905ZM30.2007 29.3697C30.1844 29.2855 30.1557 29.177 30.1261 29.104L30.0184 28.8287H29.1611L29.0541 29.104C29.0054 29.225 28.9951 29.2626 28.9737 29.3697H28.5339C28.5745 29.3008 28.6276 29.1875 28.6763 29.0714L29.2659 27.6139C29.3168 27.4873 29.3382 27.4247 29.3514 27.3594H29.8177C29.831 27.4199 29.8473 27.4595 29.9085 27.6139L30.5032 29.0714C30.5703 29.2327 30.6028 29.3036 30.6404 29.3697H30.2007Z" fill="white"/>
<path fill-rule="evenodd" clip-rule="evenodd" d="M31.9059 28.2354C32.0047 28.2354 32.0984 28.2027 32.1604 28.1443C32.2165 28.0914 32.246 28.0184 32.246 27.9225C32.246 27.7403 32.1361 27.6464 31.9162 27.6464H31.3673V28.2354H31.9059ZM32.3508 29.3695C32.3449 29.3083 32.2999 29.1797 32.2113 28.9655C32.0667 28.6164 31.973 28.5232 31.7664 28.5232H31.3673V29.0378C31.3673 29.1901 31.3724 29.2708 31.3887 29.3695H30.9895C31.0057 29.2631 31.0109 29.195 31.0109 29.0406V27.6798C31.0109 27.5463 31.0057 27.4698 30.9895 27.3516C31.1017 27.3564 31.185 27.3592 31.3326 27.3592H31.9752C32.3825 27.3592 32.6157 27.5511 32.6157 27.8842C32.6157 28.0462 32.5699 28.1721 32.4792 28.2604C32.4039 28.3341 32.3345 28.3661 32.1818 28.4071C32.3508 28.4572 32.4017 28.5281 32.6666 29.1192C32.688 29.1644 32.7551 29.3007 32.7927 29.3695H32.3508Z" fill="white"/>
<path fill-rule="evenodd" clip-rule="evenodd" d="M34.1316 27.7905C34.1205 27.7627 34.1131 27.7328 34.0836 27.6493C34.0401 27.7682 34.0401 27.7682 34.032 27.7905L33.7538 28.538H34.4179L34.1316 27.7905ZM34.6968 29.3697C34.6805 29.2855 34.6518 29.177 34.6222 29.104L34.5145 28.8287H33.6572L33.5502 29.104C33.5015 29.225 33.4912 29.2626 33.4698 29.3697H33.03C33.0706 29.3008 33.1237 29.1875 33.1724 29.0714L33.7619 27.6139C33.8129 27.4873 33.8343 27.4247 33.8475 27.3594H34.3138C34.3271 27.4199 34.3433 27.4595 34.4046 27.6139L34.9993 29.0714C35.0664 29.2327 35.0989 29.3036 35.1365 29.3697H34.6968Z" fill="white"/>
<path fill-rule="evenodd" clip-rule="evenodd" d="M38.0235 29.387C37.9269 29.3738 37.8332 29.3697 37.6428 29.3697H36.8504C36.6999 29.3697 36.6062 29.3717 36.5095 29.3766C36.5258 29.2834 36.5317 29.1903 36.5317 29.0435V27.7328C36.5317 27.5582 36.5258 27.4672 36.5095 27.3594H36.9146C36.8984 27.4623 36.8932 27.5464 36.8932 27.73V29.0637H37.6428C37.8251 29.0637 37.9114 29.0581 38.0235 29.0463V29.387Z" fill="white"/>
<path fill-rule="evenodd" clip-rule="evenodd" d="M39.3035 27.7905C39.2924 27.7627 39.285 27.7328 39.2555 27.6493C39.212 27.7682 39.212 27.7682 39.2039 27.7905L38.9257 28.538H39.5897L39.3035 27.7905ZM39.8686 29.3697C39.8524 29.2855 39.8236 29.177 39.7941 29.104L39.6864 28.8287H38.829L38.7221 29.104C38.6734 29.225 38.663 29.2626 38.6416 29.3697H38.2019C38.2425 29.3008 38.2956 29.1875 38.3443 29.0714L38.9338 27.6139C38.9847 27.4873 39.0061 27.4247 39.0194 27.3594H39.4857C39.499 27.4199 39.5152 27.4595 39.5765 27.6139L40.1711 29.0714C40.2383 29.2327 40.2707 29.3036 40.3084 29.3697H39.8686Z" fill="white"/>
<path fill-rule="evenodd" clip-rule="evenodd" d="M42.6115 28.2835C42.7989 28.2835 42.9088 28.1847 42.9088 28.0102C42.9088 27.8357 42.804 27.7453 42.6115 27.7453H42.2123V28.2835H42.6115ZM41.6575 29.4169C41.6737 29.3064 41.6789 29.1923 41.6789 29.0435V27.6771C41.6789 27.5408 41.6737 27.4275 41.6575 27.3086C41.7836 27.3135 41.8796 27.3155 42.0515 27.3155H42.638C43.1685 27.3155 43.4607 27.5561 43.4607 27.9956C43.4607 28.4448 43.1552 28.7125 42.6358 28.7125H42.2123V29.0359C42.2123 29.1847 42.2204 29.3085 42.2337 29.4169H41.6575Z" fill="white"/>
<path fill-rule="evenodd" clip-rule="evenodd" d="M44.8042 28.1864C44.9621 28.1864 45.0588 28.0953 45.0588 27.9514C45.0588 27.8102 44.9732 27.7372 44.8064 27.7372H44.3866V28.1864H44.8042ZM45.1849 29.4137C45.1687 29.3324 45.1363 29.2294 45.0536 29.0194C44.968 28.8004 44.9356 28.742 44.8684 28.6864C44.8123 28.6384 44.7452 28.6182 44.6596 28.6182H44.3866V29.0327C44.3866 29.2044 44.3918 29.2976 44.4073 29.4137H43.8318C43.848 29.2976 43.8532 29.2218 43.8532 29.0347V27.6767C43.8532 27.5196 43.848 27.4264 43.8318 27.3047C43.9491 27.3103 44.0487 27.3123 44.2309 27.3123H44.9274C45.3613 27.3123 45.6136 27.5251 45.6136 27.8881C45.6136 28.0675 45.5598 28.2087 45.455 28.3025C45.3886 28.3609 45.3318 28.3881 45.2012 28.4291C45.3377 28.4687 45.3989 28.5271 45.4845 28.7065C45.5251 28.7872 45.5627 28.8727 45.683 29.146C45.7125 29.2162 45.7442 29.2795 45.8114 29.4137H45.1849Z" fill="white"/>
<path fill-rule="evenodd" clip-rule="evenodd" d="M47.7014 28.3606C47.7014 27.951 47.503 27.7041 47.1791 27.7041C46.8522 27.7041 46.6515 27.9538 46.6515 28.3606C46.6515 28.7722 46.8522 29.0274 47.1791 29.0274C47.503 29.0274 47.7014 28.775 47.7014 28.3606ZM48.2592 28.355C48.2592 29.0218 47.8276 29.4641 47.1761 29.4641C46.5194 29.4641 46.0967 29.0323 46.0967 28.3633C46.0967 27.6965 46.5195 27.2695 47.1791 27.2695C47.8387 27.2695 48.2592 27.6937 48.2592 28.355Z" fill="white"/>
<path fill-rule="evenodd" clip-rule="evenodd" d="M49.8003 29.0346C49.8003 29.1862 49.8062 29.2974 49.8217 29.4156H49.23C49.2462 29.2974 49.2514 29.1938 49.2514 29.0346V27.7614H48.9348C48.7666 27.7614 48.7209 27.7642 48.5305 27.7795V27.2969C48.6183 27.3073 48.7666 27.3143 48.9297 27.3143H50.1035C50.291 27.3143 50.3987 27.3101 50.5219 27.2969V27.7795C50.4001 27.7669 50.2961 27.7614 50.1035 27.7614H49.8003V29.0346Z" fill="white"/>
<path fill-rule="evenodd" clip-rule="evenodd" d="M52.5369 29.433C52.4218 29.4205 52.3252 29.4156 52.095 29.4156H51.2509C51.0473 29.4156 50.972 29.4184 50.8577 29.4226C50.8732 29.3225 50.8783 29.2286 50.8783 29.0541V27.6758C50.8783 27.5194 50.8732 27.4304 50.8577 27.3066C50.9669 27.3122 51.0421 27.3143 51.2509 27.3143H52.1061C52.2876 27.3143 52.379 27.3094 52.5052 27.2969V27.769C52.382 27.7565 52.2853 27.7516 52.1061 27.7516H51.4096V28.1223H51.988C52.1643 28.1223 52.2293 28.1202 52.3901 28.1049V28.5722C52.2639 28.5597 52.1725 28.5541 51.988 28.5541H51.4096V28.979H52.1002C52.3045 28.979 52.4218 28.9741 52.5369 28.9609V29.433Z" fill="white"/>
<path fill-rule="evenodd" clip-rule="evenodd" d="M54.3713 28.0476C54.3211 27.8175 54.1787 27.7041 53.9485 27.7041C53.6209 27.7041 53.4313 27.9461 53.4313 28.3633C53.4313 28.775 53.6291 29.0246 53.9611 29.0246C54.1094 29.0246 54.2348 28.9662 54.313 28.8661C54.358 28.8049 54.3772 28.7548 54.3927 28.6484L54.9505 28.727C54.8996 28.9412 54.8406 29.065 54.7277 29.1894C54.5617 29.3681 54.3019 29.4641 53.978 29.4641C53.6505 29.4641 53.3745 29.3681 53.1849 29.1866C52.9864 28.9968 52.8743 28.7013 52.8743 28.3633C52.8743 28.0198 52.9864 27.7292 53.1982 27.5324C53.3826 27.3634 53.6534 27.2695 53.967 27.2695C54.313 27.2695 54.5831 27.3808 54.7572 27.5998C54.8435 27.7041 54.8885 27.798 54.9232 27.9461L54.3713 28.0476Z" fill="white"/>
<path fill-rule="evenodd" clip-rule="evenodd" d="M56.7658 28.0476C56.7157 27.8175 56.5733 27.7041 56.3431 27.7041C56.0155 27.7041 55.8259 27.9461 55.8259 28.3633C55.8259 28.775 56.0236 29.0246 56.3556 29.0246C56.5039 29.0246 56.6293 28.9662 56.7075 28.8661C56.7526 28.8049 56.7717 28.7548 56.7872 28.6484L57.345 28.727C57.2941 28.9412 57.2351 29.065 57.1222 29.1894C56.9562 29.3681 56.6965 29.4641 56.3726 29.4641C56.045 29.4641 55.769 29.3681 55.5794 29.1866C55.3809 28.9968 55.2688 28.7013 55.2688 28.3633C55.2688 28.0198 55.3809 27.7292 55.5927 27.5324C55.7772 27.3634 56.0479 27.2695 56.3615 27.2695C56.7075 27.2695 56.9776 27.3808 57.1517 27.5998C57.238 27.7041 57.283 27.798 57.3177 27.9461L56.7658 28.0476Z" fill="white"/>
<path fill-rule="evenodd" clip-rule="evenodd" d="M58.3185 27.3125C58.3023 27.4161 58.2971 27.5016 58.2971 27.6866V29.0398C58.2971 29.2136 58.3023 29.3075 58.3185 29.4132H57.729C57.7452 29.3151 57.7497 29.2094 57.7497 29.0398V27.6866C57.7497 27.4975 57.7452 27.4238 57.729 27.3125H58.3185Z" fill="white"/>
<path fill-rule="evenodd" clip-rule="evenodd" d="M59.6912 27.2158L59.5466 27.0343L60.1737 26.4961L60.4578 26.8473L59.6912 27.2158ZM60.3213 28.3604C60.3213 27.9508 60.1228 27.7032 59.7989 27.7032C59.4713 27.7032 59.2707 27.9536 59.2707 28.3604C59.2707 28.7713 59.4713 29.0265 59.7989 29.0265C60.1228 29.0265 60.3213 28.7741 60.3213 28.3604ZM60.8784 28.3548C60.8784 29.0216 60.4467 29.4632 59.796 29.4632C59.1393 29.4632 58.7166 29.0314 58.7166 28.3624C58.7166 27.6956 59.1393 27.2686 59.7989 27.2686C60.4578 27.2686 60.8784 27.6935 60.8784 28.3548Z" fill="white"/>
<path fill-rule="evenodd" clip-rule="evenodd" d="M62.556 28.349C62.6335 28.4575 62.6851 28.5382 62.7493 28.6501C62.7382 28.534 62.7331 28.4179 62.7331 28.276V27.7002C62.7331 27.5334 62.7272 27.4325 62.7117 27.3164H63.282C63.2665 27.4304 63.2606 27.5361 63.2606 27.7002V29.0409C63.2606 29.1953 63.2687 29.3114 63.282 29.4171H62.6947C62.6475 29.3211 62.5855 29.228 62.4948 29.0965L61.9989 28.3921C61.9259 28.2913 61.8809 28.2155 61.8056 28.0813C61.8189 28.1946 61.8248 28.3344 61.8248 28.4575V29.0235C61.8248 29.1981 61.83 29.3086 61.8462 29.4171H61.2759C61.2914 29.319 61.2965 29.2078 61.2965 29.0207V27.6926C61.2965 27.5466 61.2914 27.4325 61.2759 27.3164H61.8573C61.8838 27.3846 61.9429 27.4854 62.0476 27.6321L62.556 28.349Z" fill="white"/>
<path fill-rule="evenodd" clip-rule="evenodd" d="M9.55005 32.2014C9.53898 32.1742 9.5316 32.1436 9.50209 32.0602C9.45856 32.1791 9.45856 32.1791 9.45044 32.2014L9.17229 32.9489H9.83632L9.55005 32.2014ZM10.1152 33.7805C10.099 33.6964 10.0702 33.5879 10.0407 33.5149L9.93298 33.2395H9.07563L8.96865 33.5149C8.91995 33.6359 8.90962 33.6734 8.88823 33.7805H8.44849C8.48907 33.7117 8.54219 33.5983 8.59089 33.4822L9.1804 32.0247C9.23131 31.8982 9.25271 31.8356 9.26599 31.7695H9.73229C9.74557 31.8307 9.7618 31.8704 9.82304 32.0247L10.4177 33.4822C10.4849 33.6435 10.5173 33.7145 10.555 33.7805H10.1152Z" fill="white"/>
<path fill-rule="evenodd" clip-rule="evenodd" d="M12.4178 33.7979C12.3219 33.7847 12.2275 33.7805 12.0371 33.7805H11.2447C11.0942 33.7805 11.0005 33.7826 10.9038 33.7875C10.92 33.6943 10.9259 33.6011 10.9259 33.4544V32.1436C10.9259 31.9691 10.92 31.878 10.9038 31.7695H11.3089C11.2926 31.8731 11.2875 31.9573 11.2875 32.1409V33.4746H12.0371C12.2193 33.4746 12.3057 33.469 12.4178 33.4572V33.7979Z" fill="white"/>
<path fill-rule="evenodd" clip-rule="evenodd" d="M14.7224 32.2014C14.7113 32.1742 14.704 32.1436 14.6745 32.0602C14.6309 32.1791 14.6309 32.1791 14.6228 32.2014L14.3446 32.9489H15.0087L14.7224 32.2014ZM15.2876 33.7805C15.2713 33.6964 15.2418 33.5879 15.2131 33.5149L15.1053 33.2395H14.248L14.141 33.5149C14.0923 33.6359 14.082 33.6734 14.0606 33.7805H13.6208C13.6614 33.7117 13.7146 33.5983 13.7632 33.4822L14.3528 32.0247C14.4037 31.8982 14.4251 31.8356 14.4384 31.7695H14.9047C14.9179 31.8307 14.9342 31.8704 14.9954 32.0247L15.5901 33.4822C15.6572 33.6435 15.6897 33.7145 15.7273 33.7805H15.2876Z" fill="white"/>
<path fill-rule="evenodd" clip-rule="evenodd" d="M17.9089 31.7695C17.8934 31.8731 17.8875 31.9496 17.8875 32.0929V33.4544C17.8875 33.6011 17.8934 33.6734 17.9089 33.7805H17.5098C17.526 33.6818 17.5311 33.6032 17.5311 33.4544V32.8835H16.4539V33.4544C16.4539 33.6011 16.4598 33.6762 16.4753 33.7805H16.0762C16.0924 33.6839 16.0976 33.6032 16.0976 33.4544V32.0957C16.0976 31.9468 16.0924 31.869 16.0762 31.7695H16.4753C16.4598 31.8759 16.4539 31.9587 16.4539 32.0929V32.5803H17.5311V32.0957C17.5311 31.9517 17.526 31.8606 17.5098 31.7695H17.9089Z" fill="white"/>
<path fill-rule="evenodd" clip-rule="evenodd" d="M19.9758 32.7707C19.9758 32.5162 19.9005 32.3111 19.764 32.1825C19.6541 32.0816 19.5124 32.0288 19.3516 32.0288C18.9657 32.0288 18.7222 32.3167 18.7222 32.7735C18.7222 33.0259 18.7997 33.238 18.9391 33.3687C19.0491 33.4703 19.1907 33.5231 19.3545 33.5231C19.7374 33.5231 19.9758 33.2352 19.9758 32.7707ZM20.051 31.9829C20.2465 32.1672 20.3513 32.4425 20.3513 32.7707C20.3513 33.4098 19.9573 33.8242 19.3486 33.8242C18.7407 33.8242 18.3496 33.4125 18.3496 32.7707C18.3496 32.4446 18.4566 32.1651 18.6551 31.9829C18.8395 31.8111 19.0623 31.7305 19.3457 31.7305C19.6408 31.7305 19.8688 31.8111 20.051 31.9829Z" fill="white"/>
<path fill-rule="evenodd" clip-rule="evenodd" d="M21.7103 32.6455C21.8092 32.6455 21.9029 32.6128 21.9649 32.5544C22.0209 32.5016 22.0505 32.4286 22.0505 32.3326C22.0505 32.1504 21.9405 32.0566 21.7206 32.0566H21.1717V32.6455H21.7103ZM22.1552 33.7797C22.1493 33.7185 22.1043 33.5898 22.0158 33.3757C21.8712 33.0266 21.7775 32.9334 21.5709 32.9334H21.1717V33.448C21.1717 33.6003 21.1769 33.6809 21.1931 33.7797H20.7939C20.8102 33.6733 20.8153 33.6051 20.8153 33.4507V32.0899C20.8153 31.9564 20.8102 31.8799 20.7939 31.7617C20.9061 31.7666 20.9895 31.7687 21.137 31.7687H21.7797C22.1869 31.7687 22.4201 31.9613 22.4201 32.2944C22.4201 32.4564 22.3744 32.5822 22.2836 32.6706C22.2083 32.7443 22.139 32.7763 21.9863 32.8173C22.1552 32.8673 22.2061 32.9383 22.471 33.5293C22.4924 33.5745 22.5595 33.7108 22.5972 33.7797H22.1552Z" fill="white"/>
<path fill-rule="evenodd" clip-rule="evenodd" d="M23.9117 32.6455C24.0106 32.6455 24.1043 32.6128 24.1663 32.5544C24.2224 32.5016 24.2519 32.4286 24.2519 32.3326C24.2519 32.1504 24.1419 32.0566 23.9221 32.0566H23.3731V32.6455H23.9117ZM24.3566 33.7797C24.3507 33.7185 24.3057 33.5898 24.2172 33.3757C24.0726 33.0266 23.9789 32.9334 23.7723 32.9334H23.3731V33.448C23.3731 33.6003 23.3783 33.6809 23.3945 33.7797H22.9954C23.0116 33.6733 23.0168 33.6051 23.0168 33.4507V32.0899C23.0168 31.9564 23.0116 31.8799 22.9954 31.7617C23.1075 31.7666 23.1909 31.7687 23.3384 31.7687H23.9811C24.3884 31.7687 24.6215 31.9613 24.6215 32.2944C24.6215 32.4564 24.5758 32.5822 24.485 32.6706C24.4098 32.7443 24.3404 32.7763 24.1877 32.8173C24.3566 32.8673 24.4075 32.9383 24.6724 33.5293C24.6938 33.5745 24.761 33.7108 24.7986 33.7797H24.3566Z" fill="white"/>
<path fill-rule="evenodd" clip-rule="evenodd" d="M26.7533 32.7707C26.7533 32.5162 26.6781 32.3111 26.5416 32.1825C26.4317 32.0816 26.29 32.0288 26.1292 32.0288C25.7433 32.0288 25.4991 32.3167 25.4991 32.7735C25.4991 33.0259 25.5773 33.238 25.7167 33.3687C25.8266 33.4703 25.9683 33.5231 26.1321 33.5231C26.515 33.5231 26.7533 33.2352 26.7533 32.7707ZM26.8286 31.9829C27.0241 32.1672 27.1282 32.4425 27.1282 32.7707C27.1282 33.4098 26.7349 33.8242 26.1262 33.8242C25.5182 33.8242 25.1272 33.4125 25.1272 32.7707C25.1272 32.4446 25.2342 32.1651 25.4327 31.9829C25.6171 31.8111 25.8399 31.7305 26.1233 31.7305C26.4184 31.7305 26.6464 31.8111 26.8286 31.9829Z" fill="white"/>
<path fill-rule="evenodd" clip-rule="evenodd" d="M28.9737 33.495H29.5499C29.7883 33.495 29.9225 33.3844 29.9225 33.18C29.9225 33.0785 29.8952 33.0103 29.8362 32.9596C29.7698 32.9039 29.6673 32.874 29.544 32.874H28.9737V33.495ZM29.5308 32.5938C29.7344 32.5938 29.8554 32.4902 29.8554 32.3184C29.8554 32.2371 29.8281 32.1696 29.7853 32.1314C29.727 32.0813 29.6355 32.0535 29.5278 32.0535H28.9737V32.5938H29.5308ZM28.939 33.7808C28.7834 33.7808 28.7059 33.7829 28.5959 33.7884C28.6144 33.6827 28.6203 33.609 28.6203 33.4477V32.0758C28.6203 31.9596 28.6122 31.8692 28.5982 31.7656C28.711 31.7705 28.7538 31.7705 28.9361 31.7705H29.5684C29.9838 31.7705 30.2169 31.9471 30.2169 32.2635C30.2169 32.4165 30.169 32.5305 30.0664 32.6188C30.0081 32.6717 29.9594 32.6953 29.8554 32.7252C29.9919 32.753 30.0531 32.7781 30.1262 32.8413C30.2354 32.9373 30.2922 33.0632 30.2922 33.2273C30.2922 33.5812 30.0428 33.7808 29.5979 33.7808H28.939Z" fill="white"/>
<path fill-rule="evenodd" clip-rule="evenodd" d="M31.6868 32.2014C31.6757 32.1742 31.6683 32.1436 31.6388 32.0602C31.5953 32.1791 31.5953 32.1791 31.5872 32.2014L31.309 32.9489H31.973L31.6868 32.2014ZM32.2519 33.7805C32.2357 33.6964 32.2069 33.5879 32.1774 33.5149L32.0697 33.2395H31.2124L31.1054 33.5149C31.0567 33.6359 31.0463 33.6734 31.0249 33.7805H30.5852C30.6258 33.7117 30.6789 33.5983 30.7276 33.4822L31.3171 32.0247C31.368 31.8982 31.3894 31.8356 31.4027 31.7695H31.869C31.8823 31.8307 31.8985 31.8704 31.9598 32.0247L32.5544 33.4822C32.6216 33.6435 32.654 33.7145 32.6917 33.7805H32.2519Z" fill="white"/>
<path fill-rule="evenodd" clip-rule="evenodd" d="M34.4367 33.7805C34.391 33.6943 34.343 33.6213 34.2655 33.51L33.5742 32.5275C33.5233 32.4524 33.4562 32.3439 33.3912 32.225C33.3942 32.2598 33.3942 32.2598 33.4023 32.3536C33.4053 32.4016 33.4104 32.5157 33.4104 32.5734V33.4015C33.4104 33.5705 33.4185 33.6894 33.4318 33.7805H33.0408C33.0541 33.6971 33.0622 33.5705 33.0622 33.3988V32.0957C33.0622 31.9649 33.057 31.8738 33.0408 31.7695H33.4584C33.4827 31.8328 33.5307 31.9093 33.6222 32.0379L34.3002 33.0003C34.3644 33.0907 34.45 33.2221 34.509 33.3237C34.498 33.2242 34.4906 33.0726 34.4906 32.9669V32.1186C34.4906 31.9698 34.4847 31.8662 34.4684 31.7695H34.8602C34.844 31.8711 34.8388 31.9649 34.8388 32.1186V33.4544C34.8388 33.5955 34.844 33.6915 34.8602 33.7805H34.4367Z" fill="white"/>
<path fill-rule="evenodd" clip-rule="evenodd" d="M37.1925 33.1671C37.1416 33.3493 37.0929 33.4473 37.0125 33.5461C36.8598 33.7227 36.603 33.8207 36.2813 33.8207C35.9892 33.8207 35.756 33.7373 35.593 33.5787C35.4056 33.3945 35.3008 33.1087 35.3008 32.7853C35.3008 32.4529 35.4129 32.1595 35.6144 31.9697C35.7752 31.816 36.0157 31.7305 36.2843 31.7305C36.4931 31.7305 36.651 31.768 36.7986 31.8515C36.9188 31.9224 37.0155 32.0156 37.0826 32.1268C37.1151 32.1797 37.1335 32.2256 37.1652 32.3208L36.7926 32.4015C36.7558 32.2909 36.7314 32.2429 36.6783 32.1845C36.5868 32.0809 36.4533 32.0281 36.2865 32.0281C35.9065 32.0281 35.6756 32.309 35.6756 32.7735C35.6756 33.2352 35.9117 33.5231 36.2865 33.5231C36.4739 33.5231 36.6355 33.455 36.7211 33.3361C36.7661 33.2728 36.7875 33.2199 36.8089 33.1038L37.1925 33.1671Z" fill="white"/>
<path fill-rule="evenodd" clip-rule="evenodd" d="M38.5657 32.2014C38.5546 32.1742 38.5472 32.1436 38.5177 32.0602C38.4742 32.1791 38.4742 32.1791 38.4661 32.2014L38.1879 32.9489H38.8519L38.5657 32.2014ZM39.1308 33.7805C39.1146 33.6964 39.0858 33.5879 39.0563 33.5149L38.9486 33.2395H38.0913L37.9843 33.5149C37.9356 33.6359 37.9252 33.6734 37.9038 33.7805H37.4641C37.5047 33.7117 37.5578 33.5983 37.6065 33.4822L38.196 32.0247C38.2469 31.8982 38.2683 31.8356 38.2816 31.7695H38.7479C38.7612 31.8307 38.7774 31.8704 38.8387 32.0247L39.4333 33.4822C39.5005 33.6435 39.533 33.7145 39.5706 33.7805H39.1308Z" fill="white"/>
<path fill-rule="evenodd" clip-rule="evenodd" d="M40.836 32.6455C40.9349 32.6455 41.0286 32.6128 41.0906 32.5544C41.1467 32.5016 41.1762 32.4286 41.1762 32.3326C41.1762 32.1504 41.0662 32.0566 40.8464 32.0566H40.2974V32.6455H40.836ZM41.281 33.7797C41.275 33.7185 41.23 33.5898 41.1415 33.3757C40.9969 33.0266 40.9032 32.9334 40.6966 32.9334H40.2974V33.448C40.2974 33.6003 40.3026 33.6809 40.3188 33.7797H39.9197C39.9359 33.6733 39.9411 33.6051 39.9411 33.4507V32.0899C39.9411 31.9564 39.9359 31.8799 39.9197 31.7617C40.0318 31.7666 40.1152 31.7687 40.2628 31.7687H40.9054C41.3127 31.7687 41.5458 31.9613 41.5458 32.2944C41.5458 32.4564 41.5001 32.5822 41.4093 32.6706C41.3341 32.7443 41.2647 32.7763 41.112 32.8173C41.281 32.8673 41.3319 32.9383 41.5967 33.5293C41.6181 33.5745 41.6853 33.7108 41.7229 33.7797H41.281Z" fill="white"/>
<path fill-rule="evenodd" clip-rule="evenodd" d="M42.5281 31.7695C42.5119 31.8662 42.5067 31.9441 42.5067 32.0957V33.4544C42.5067 33.6032 42.5119 33.6839 42.5281 33.7805H42.1208C42.1371 33.6839 42.1422 33.6032 42.1422 33.4544V32.0957C42.1422 31.9392 42.1371 31.8711 42.1208 31.7695H42.5281Z" fill="white"/>
<path fill-rule="evenodd" clip-rule="evenodd" d="M44.5947 32.7707C44.5947 32.5162 44.5194 32.3111 44.3829 32.1825C44.273 32.0816 44.1313 32.0288 43.9705 32.0288C43.5846 32.0288 43.3411 32.3167 43.3411 32.7735C43.3411 33.0259 43.4186 33.238 43.558 33.3687C43.668 33.4703 43.8096 33.5231 43.9734 33.5231C44.3563 33.5231 44.5947 33.2352 44.5947 32.7707ZM44.6699 31.9829C44.8654 32.1672 44.9702 32.4425 44.9702 32.7707C44.9702 33.4098 44.5762 33.8242 43.9675 33.8242C43.3596 33.8242 42.9685 33.4125 42.9685 32.7707C42.9685 32.4446 43.0755 32.1651 43.274 31.9829C43.4584 31.8111 43.6812 31.7305 43.9646 31.7305C44.2597 31.7305 44.4877 31.8111 44.6699 31.9829Z" fill="white"/>
</svg>
