<svg width="100" height="101" viewBox="0 0 100 101" fill="none" xmlns="http://www.w3.org/2000/svg">
<path d="M66.7446 70.748H16.8198C13.3888 70.748 10.6074 73.5294 10.6074 76.9604V81.2005C10.6074 84.6315 13.3888 87.4128 16.8198 87.4128H66.7446C70.1756 87.4128 72.9569 84.6315 72.9569 81.2005V76.9604C72.9569 73.5294 70.1756 70.748 66.7446 70.748Z" fill="#275BA7"/>
<path d="M16.8157 73.9336H66.744C68.4136 73.9336 69.7667 75.2867 69.7667 76.9563V81.1999C69.7667 82.8695 68.4136 84.2226 66.744 84.2226H16.8157C15.146 84.2226 13.793 82.8695 13.793 81.1999V76.9563C13.793 75.2867 15.146 73.9336 16.8157 73.9336Z" fill="#00AEE8"/>
<path d="M16.8159 57.2711H66.7407C70.1669 57.2711 72.953 60.0537 72.953 63.4834V67.727C72.953 71.1532 70.1703 73.9359 66.7442 73.9359H16.8159C13.3897 73.9359 10.6035 71.1532 10.6035 67.7235V63.4799C10.6035 60.0537 13.3862 57.2676 16.8159 57.2676V57.2711Z" fill="#275BA7"/>
<path d="M16.8157 60.459H66.7405C68.4101 60.459 69.7632 61.8121 69.7632 63.4817V67.7253C69.7632 69.3949 68.4101 70.748 66.7405 70.748H16.8157C15.146 70.748 13.793 69.3949 13.793 67.7253V63.4817C13.793 61.8121 15.146 60.459 16.8157 60.459Z" fill="#00AEE8"/>
<path d="M66.7446 43.7969H16.8198C13.3888 43.7969 10.6074 46.5782 10.6074 50.0092V54.2493C10.6074 57.6803 13.3888 60.4617 16.8198 60.4617H66.7446C70.1756 60.4617 72.9569 57.6803 72.9569 54.2493V50.0092C72.9569 46.5782 70.1756 43.7969 66.7446 43.7969Z" fill="#275BA7"/>
<path d="M66.7405 46.9824H16.8157C15.1463 46.9824 13.793 48.3357 13.793 50.0051V54.2452C13.793 55.9146 15.1463 57.2679 16.8157 57.2679H66.7405C68.4099 57.2679 69.7632 55.9146 69.7632 54.2452V50.0051C69.7632 48.3357 68.4099 46.9824 66.7405 46.9824Z" fill="#00AEE8"/>
<path d="M74.9604 30.3223H25.0356C21.6046 30.3223 18.8232 33.1036 18.8232 36.5346V40.7747C18.8232 44.2057 21.6046 46.9871 25.0356 46.9871H74.9604C78.3914 46.9871 81.1728 44.2057 81.1728 40.7747V36.5346C81.1728 33.1036 78.3914 30.3223 74.9604 30.3223Z" fill="#275BA7"/>
<path d="M74.9602 33.5078H25.0354C23.366 33.5078 22.0127 34.8611 22.0127 36.5305V40.7706C22.0127 42.44 23.366 43.7933 25.0354 43.7933H74.9602C76.6296 43.7933 77.9829 42.44 77.9829 40.7706V36.5305C77.9829 34.8611 76.6296 33.5078 74.9602 33.5078Z" fill="#00AEE8"/>
<path d="M66.7446 16.8457H16.8198C13.3888 16.8457 10.6074 19.6271 10.6074 23.058V27.2982C10.6074 30.7291 13.3888 33.5105 16.8198 33.5105H66.7446C70.1756 33.5105 72.9569 30.7291 72.9569 27.2982V23.058C72.9569 19.6271 70.1756 16.8457 66.7446 16.8457Z" fill="#275BA7"/>
<path d="M66.7405 20.0332H16.8157C15.1463 20.0332 13.793 21.3865 13.793 23.0559V27.296C13.793 28.9654 15.1463 30.3187 16.8157 30.3187H66.7405C68.4099 30.3187 69.7632 28.9654 69.7632 27.296V23.0559C69.7632 21.3865 68.4099 20.0332 66.7405 20.0332Z" fill="#00AEE8"/>
<path d="M66.6224 95.6765C78.8749 95.6765 88.8074 85.744 88.8074 73.4916C88.8074 61.2392 78.8749 51.3066 66.6224 51.3066C54.37 51.3066 44.4375 61.2392 44.4375 73.4916C44.4375 85.744 54.37 95.6765 66.6224 95.6765Z" fill="#FFE539"/>
<path d="M60.8551 77.5999C62.2291 78.8834 64.3509 80.1113 66.264 80.1113C67.5197 80.1113 69.0745 79.3947 69.0745 77.9304C69.0745 76.2573 66.744 75.9581 64.3822 75.092C62.0517 74.2259 59.6899 72.8798 59.6899 69.2345C59.6899 65.5892 62.1386 62.4517 65.784 62.2117V58.5977H68.5632V62.2117C70.445 62.3925 72.3894 62.9004 73.9998 63.9439L71.7876 68.2779C70.7128 67.4118 69.3667 66.8135 67.9614 66.8135C66.6466 66.8135 65.4222 67.2901 65.4222 68.4866C65.4222 69.8606 67.304 70.4588 68.351 70.8171C71.7563 71.9511 74.8346 73.2067 74.8346 77.3599C74.8346 81.5131 72.445 83.694 68.5597 84.6505V88.3863H65.7805V84.8314C64.4657 84.8314 63.1822 84.5636 61.9265 84.0836C60.6708 83.607 59.3873 83.0366 58.3994 82.1113L60.8482 77.5999H60.8551Z" fill="#275BA7"/>
</svg>
