<svg width="32" height="32" viewBox="0 0 32 32" fill="none" xmlns="http://www.w3.org/2000/svg">
<path fill-rule="evenodd" clip-rule="evenodd" d="M15.6977 2.6707C17.4417 2.61673 19.1684 3.02988 20.6992 3.86737C22.2299 4.70486 23.509 5.93626 24.404 7.43409C25.299 8.93192 25.7774 10.6417 25.7897 12.3866C25.8027 14.2343 25.2924 16.048 24.318 17.6179C23.4545 19.0092 22.2576 20.1587 20.84 20.9649V24.5479C20.84 25.1022 20.6198 25.6338 20.2279 26.0257C20.0825 26.1711 19.9179 26.2928 19.74 26.3885V27.2428C19.74 27.7971 19.5198 28.3286 19.1279 28.7206C18.736 29.1125 18.2044 29.3327 17.6501 29.3327H14.3503C13.796 29.3327 13.2645 29.1125 12.8725 28.7206C12.4806 28.3286 12.2604 27.7971 12.2604 27.2428V26.3885C12.0826 26.2928 11.918 26.1711 11.7726 26.0257C11.3807 25.6338 11.1605 25.1022 11.1605 24.5479V20.9649C9.8316 20.209 8.69552 19.1509 7.84634 17.8726C6.8808 16.4192 6.32127 14.7342 6.22565 12.992C6.13003 11.2497 6.50181 9.51361 7.30249 7.9633C8.10318 6.41299 9.30367 5.10487 10.7797 4.17433C12.2557 3.24379 13.9536 2.72467 15.6977 2.6707ZM13.1404 23.283V24.5479C13.1404 24.5691 13.1465 24.5896 13.1577 24.6072C13.1882 24.6044 13.2191 24.6029 13.2504 24.6029H18.7501C18.7813 24.6029 18.8122 24.6044 18.8427 24.6072C18.854 24.5896 18.8601 24.5691 18.8601 24.5479V23.283H13.1404ZM18.8601 21.3031H13.1404V20.3681C13.1404 19.9893 12.9242 19.6437 12.5835 19.478C11.3319 18.8689 10.2657 17.9365 9.49548 16.777C8.72523 15.6176 8.27885 14.2734 8.20257 12.8835C8.1263 11.4936 8.42288 10.1086 9.06163 8.87184C9.70038 7.63508 10.6581 6.59152 11.8356 5.84918C13.0131 5.10684 14.3676 4.69271 15.7589 4.64965C17.1502 4.6066 18.5277 4.93619 19.7489 5.6043C20.97 6.27241 21.9904 7.25476 22.7044 8.44966C23.4184 9.64455 23.8 11.0086 23.8099 12.4005C23.8202 13.8745 23.4132 15.3214 22.6358 16.5738C21.8584 17.8262 20.7425 18.8331 19.417 19.4779C19.0763 19.6437 18.8601 19.9893 18.8601 20.3681V21.3031ZM14.2403 26.6378V27.2428C14.2403 27.272 14.2519 27.2999 14.2725 27.3206C14.2932 27.3412 14.3211 27.3528 14.3503 27.3528H17.6501C17.6793 27.3528 17.7073 27.3412 17.7279 27.3206C17.7485 27.2999 17.7601 27.272 17.7601 27.2428V26.6378H14.2403Z" fill="#006FB9"/>
</svg>
