<svg width="24" height="25" viewBox="0 0 24 25" fill="none" xmlns="http://www.w3.org/2000/svg">
<path d="M21.6763 18.1699L19.4223 15.9109C19.2813 15.7689 19.0903 15.6899 18.8913 15.6899C18.6923 15.6899 18.5013 15.7689 18.3613 15.9099L18.3483 15.9229L17.9243 15.5379L16.1703 8.13294C16.1023 7.84094 15.9773 7.56994 15.8013 7.32394C15.6243 7.07794 15.4053 6.87394 15.1483 6.71694C14.8923 6.55894 14.6113 6.45394 14.3153 6.40694C14.0173 6.35894 13.7173 6.36794 13.4263 6.43894C13.1693 6.49894 12.9313 6.60794 12.7163 6.76294C12.5033 6.91594 12.3253 7.10894 12.1863 7.33394C12.1133 7.45194 12.0553 7.57394 12.0093 7.70094C11.9633 7.57394 11.9053 7.45094 11.8333 7.33494C11.6953 7.10994 11.5163 6.91794 11.3013 6.76294C11.0873 6.60894 10.8483 6.49994 10.5933 6.43994C10.0003 6.29994 9.38834 6.39694 8.86934 6.71794C8.35034 7.03794 7.98734 7.53994 7.84734 8.13294L6.09334 15.5409L5.67134 15.9249L5.65734 15.9109C5.51634 15.7699 5.32534 15.6909 5.12734 15.6909C4.92834 15.6909 4.73734 15.7699 4.59634 15.9119L2.32434 18.1899C2.03234 18.4829 2.03234 18.9579 2.32534 19.2509C2.61934 19.5429 3.09534 19.5429 3.38634 19.2489L5.12834 17.5029L8.24134 20.6159L7.92634 20.9319C7.63434 21.2259 7.63434 21.7009 7.92834 21.9929C8.07534 22.1379 8.26734 22.2109 8.45834 22.2109C8.65034 22.2109 8.84334 22.1379 8.98934 21.9899L9.83234 21.1429C10.1243 20.8499 10.1243 20.3749 9.83134 20.0829L9.77434 20.0259L10.6573 18.8889C11.0783 18.3999 11.3793 17.8079 11.5283 17.1799L12.0093 15.1569L12.4903 17.1779C12.6383 17.8059 12.9383 18.3969 13.3353 18.8569L14.2433 20.0249L14.1853 20.0829C13.8923 20.3759 13.8923 20.8499 14.1843 21.1429L15.0003 21.9609C15.1463 22.1079 15.3393 22.1819 15.5313 22.1819C15.7223 22.1819 15.9153 22.1089 16.0603 21.9629C16.3543 21.6699 16.3543 21.1949 16.0623 20.9019L15.7743 20.6139L18.8873 17.5009L20.6113 19.2279C20.9033 19.5219 21.3803 19.5219 21.6723 19.2299C21.9683 18.9379 21.9683 18.4629 21.6763 18.1699ZM10.8303 13.6349L10.0683 16.8349C9.97434 17.2309 9.78434 17.6049 9.49634 17.9419L8.70634 18.9579L6.73334 16.9849L7.27534 16.4929C7.38734 16.3909 7.46534 16.2589 7.50134 16.1109L9.30934 8.47794C9.35734 8.27794 9.48434 8.10194 9.66034 7.99394C9.83734 7.88394 10.0463 7.84794 10.2503 7.89894C10.3133 7.91394 10.3733 7.94094 10.4263 7.97994C10.4793 8.01794 10.5233 8.06594 10.5583 8.12194C10.5923 8.17694 10.6153 8.23794 10.6253 8.30494C10.6353 8.36894 10.6333 8.43394 10.6183 8.49894L9.87634 11.6469C9.78434 11.6819 9.69534 11.7249 9.60934 11.7769C9.43034 11.8869 9.27834 12.0289 9.15534 12.1999C9.03234 12.3709 8.94634 12.5609 8.89934 12.7599L8.38934 14.8939C8.29334 15.2959 8.54134 15.7009 8.94434 15.7969C9.34834 15.8899 9.75234 15.6449 9.84834 15.2409L10.3583 13.1069L10.4623 13.0419C10.5903 13.0719 10.6993 13.1509 10.7683 13.2629C10.8373 13.3759 10.8593 13.5099 10.8303 13.6349ZM12.0093 12.4299C11.8433 12.1789 11.6263 11.9749 11.3743 11.8239L12.0093 9.12894L12.6443 11.8249C12.3923 11.9759 12.1743 12.1779 12.0093 12.4299ZM14.4973 17.9099C14.2323 17.6019 14.0443 17.2299 13.9503 16.8339L13.1893 13.6389C13.1593 13.5099 13.1803 13.3769 13.2513 13.2629C13.3193 13.1519 13.4293 13.0729 13.5573 13.0419L13.6613 13.1079L14.1723 15.2419C14.2693 15.6449 14.6813 15.8919 15.0763 15.7969C15.4783 15.6999 15.7273 15.2959 15.6313 14.8929L15.1203 12.7599C15.0713 12.5549 14.9853 12.3659 14.8643 12.1979C14.7423 12.0299 14.5913 11.8879 14.4123 11.7769C14.3273 11.7239 14.2373 11.6809 14.1433 11.6449L13.4013 8.49594C13.3863 8.43294 13.3833 8.36894 13.3953 8.29994C13.4053 8.23894 13.4273 8.17694 13.4623 8.12094C13.4973 8.06494 13.5403 8.01694 13.5923 7.97994C13.6463 7.94094 13.7043 7.91494 13.7723 7.89894C13.8733 7.87494 13.9733 7.87294 14.0763 7.88794C14.1773 7.90394 14.2723 7.93994 14.3613 7.99394C14.4483 8.04694 14.5223 8.11694 14.5823 8.19894C14.6443 8.28394 14.6863 8.37694 14.7103 8.47694L16.5193 16.1099C16.5533 16.2569 16.6323 16.3899 16.7453 16.4929L17.2873 16.9839L15.3123 18.9589L14.4973 17.9099Z" fill="#006FB9"/>
<path d="M12.0093 5.37294C12.4233 5.37294 12.7593 5.03694 12.7593 4.62294V2.96094C12.7593 2.54694 12.4233 2.21094 12.0093 2.21094C11.5953 2.21094 11.2593 2.54694 11.2593 2.96094V4.62294C11.2593 5.03694 11.5953 5.37294 12.0093 5.37294Z" fill="#006FB9"/>
<path d="M18.1003 7.92394C18.2923 7.92394 18.4843 7.85094 18.6303 7.70394L19.8053 6.52894C20.0983 6.23594 20.0983 5.76094 19.8053 5.46794C19.5113 5.17394 19.0373 5.17594 18.7443 5.46794L17.5693 6.64294C17.2763 6.93594 17.2763 7.41094 17.5693 7.70394C17.7163 7.85094 17.9073 7.92394 18.1003 7.92394Z" fill="#006FB9"/>
<path d="M5.36934 7.65594C5.51534 7.80194 5.70734 7.87594 5.89934 7.87594C6.09134 7.87594 6.28334 7.80294 6.42934 7.65594C6.72234 7.36294 6.72234 6.88794 6.42934 6.59494L5.25434 5.41994C4.96134 5.12694 4.48634 5.12694 4.19334 5.41994C3.90034 5.71294 3.90034 6.18794 4.19334 6.48094L5.36934 7.65594Z" fill="#006FB9"/>
</svg>
