<svg width="24" height="25" viewBox="0 0 24 25" fill="none" xmlns="http://www.w3.org/2000/svg">
<path d="M21.42 11.2144C21.233 11.0274 21.01 10.8814 20.767 10.7824V10.1494C20.767 9.29037 20.433 8.48237 19.826 7.87537C19.336 7.38437 18.712 7.08337 18.038 6.98037L16.307 3.51837C16.19 3.28337 16.031 3.07737 15.832 2.90637C15.635 2.73437 15.408 2.60537 15.159 2.52237C14.911 2.44037 14.652 2.40937 14.393 2.42637C14.131 2.44437 13.88 2.51337 13.646 2.63037L4.997 6.95437C4.221 7.00737 3.497 7.32037 2.943 7.87437C2.335 8.48237 2 9.29037 2 10.1494V18.7824C2 19.6414 2.334 20.4494 2.942 21.0564C3.55 21.6634 4.357 21.9984 5.217 21.9984H17.55C18.409 21.9984 19.218 21.6634 19.826 21.0554C20.432 20.4484 20.766 19.6404 20.766 18.7824V18.1504C21.008 18.0504 21.232 17.9054 21.418 17.7184C21.794 17.3444 22 16.8464 22 16.3154V12.6154C22 12.0944 21.788 11.5834 21.42 11.2144ZM16.934 16.8004C16.311 16.8004 15.725 16.5574 15.284 16.1154C14.844 15.6744 14.6 15.0894 14.6 14.4664C14.6 13.8434 14.843 13.2574 15.284 12.8174C15.725 12.3764 16.311 12.1334 16.934 12.1334H20.017C20.145 12.1334 20.269 12.1844 20.359 12.2744C20.449 12.3644 20.501 12.4894 20.501 12.6164V16.3164C20.501 16.4464 20.45 16.5674 20.359 16.6594C20.269 16.7494 20.144 16.8014 20.017 16.8014L16.934 16.8004ZM14.315 3.97237C14.372 3.94437 14.434 3.92737 14.499 3.92237C14.558 3.91637 14.624 3.92537 14.686 3.94637C14.746 3.96637 14.8 3.99737 14.85 4.04037C14.897 4.08137 14.936 4.13137 14.964 4.18837L16.336 6.93337H8.394L14.315 3.97237ZM18.765 19.9964C18.441 20.3204 18.009 20.4994 17.55 20.4994H5.217C4.759 20.4994 4.327 20.3204 4.003 19.9964C3.679 19.6724 3.5 19.2404 3.5 18.7824V10.1494C3.5 9.69137 3.679 9.25937 4.003 8.93537C4.327 8.61137 4.758 8.43237 5.216 8.43237H17.55C18.009 8.43237 18.441 8.61137 18.765 8.93537C19.084 9.25437 19.267 9.69737 19.267 10.1494V10.6324H16.934C15.911 10.6324 14.949 11.0304 14.223 11.7554C13.498 12.4804 13.1 13.4424 13.1 14.4654C13.1 15.4884 13.498 16.4514 14.223 17.1754C14.948 17.9004 15.911 18.2994 16.934 18.2994H19.267V18.7814C19.267 19.2404 19.088 19.6724 18.765 19.9964Z" fill="#006FB9"/>
<path d="M16.934 15.5254C17.5189 15.5254 17.993 15.0512 17.993 14.4664C17.993 13.8815 17.5189 13.4074 16.934 13.4074C16.3491 13.4074 15.875 13.8815 15.875 14.4664C15.875 15.0512 16.3491 15.5254 16.934 15.5254Z" fill="#006FB9"/>
</svg>
