<svg width="41" height="41" viewBox="0 0 41 41" fill="none" xmlns="http://www.w3.org/2000/svg">
<path fill-rule="evenodd" clip-rule="evenodd" d="M7.7167 17.8774H9.80583C10.4102 17.8774 10.8939 17.7363 11.2531 17.4527C11.6189 17.1692 11.7998 16.7841 11.7998 16.2988C11.7998 15.7594 11.6323 15.3677 11.296 15.1251C10.9596 14.8772 10.4491 14.7532 9.76161 14.7532H7.7167V17.8774ZM7.7167 18.9166V22.4509H10.0001C10.6434 22.4509 11.1499 22.2953 11.5197 21.9854C11.895 21.6702 12.0812 21.2389 12.0812 20.6903C12.0812 19.5074 11.3951 18.9166 10.0216 18.9166H7.7167ZM6.33377 23.5099V13.6876H9.76161C10.9006 13.6876 11.7556 13.9079 12.3265 14.3496C12.9027 14.7901 13.1908 15.4416 13.1908 16.3054C13.1908 16.7643 13.0514 17.1705 12.7727 17.5266C12.494 17.8774 12.1147 18.149 11.635 18.3429C12.2018 18.4906 12.6481 18.7741 12.975 19.1922C13.306 19.6063 13.4709 20.1008 13.4709 20.6771C13.4709 21.5581 13.1667 22.2504 12.5569 22.7542C11.9472 23.258 11.0856 23.5099 9.972 23.5099H6.33377Z" fill="white"/>
<path fill-rule="evenodd" clip-rule="evenodd" d="M20.1265 22.7881C19.6079 23.3591 18.8467 23.6453 17.843 23.6453C17.0122 23.6453 16.3784 23.4198 15.9415 22.9701C15.51 22.5164 15.2916 21.8465 15.2862 20.9603V16.2114H16.6182V20.926C16.6182 22.0324 17.0993 22.5863 18.0601 22.5863C19.0772 22.5863 19.7539 22.2303 20.0903 21.5208V16.2114H21.4223V23.5095H20.1546L20.1265 22.7881Z" fill="white"/>
<path fill-rule="evenodd" clip-rule="evenodd" d="M27.2205 17.3307C27.0195 17.299 26.8011 17.2832 26.5652 17.2832C25.6915 17.2832 25.0979 17.6327 24.7857 18.329V23.5105H23.4537V16.2111H24.7495L24.7709 17.0551C25.2091 16.4023 25.8282 16.0765 26.6296 16.0765C26.8895 16.0765 27.0852 16.1082 27.2205 16.1702V17.3307Z" fill="white"/>
<path fill-rule="evenodd" clip-rule="evenodd" d="M32.0966 13.1484H33.71L31.779 15.1318H30.7056L32.0966 13.1484ZM29.2945 19.9414C29.2945 20.7511 29.4942 21.4013 29.8922 21.8905C30.2955 22.3811 30.8342 22.6264 31.5056 22.6264C32.1823 22.6264 32.721 22.3798 33.119 21.8839C33.5183 21.3854 33.7167 20.6878 33.7167 19.7937C33.7167 18.9932 33.513 18.3443 33.1043 17.8498C32.7009 17.3513 32.1636 17.1021 31.4909 17.1021C30.8342 17.1021 30.3036 17.3474 29.9002 17.8366C29.4969 18.3272 29.2945 19.0288 29.2945 19.9414ZM27.9558 19.7937C27.9558 19.0776 28.1046 18.4353 28.4021 17.8643C28.7036 17.2933 29.1217 16.8515 29.655 16.5416C30.1924 16.2317 30.8048 16.0761 31.4909 16.0761C32.5522 16.0761 33.4098 16.4203 34.0624 17.1073C34.7204 17.7957 35.05 18.711 35.05 19.853V19.9414C35.05 20.6522 34.9026 21.2905 34.6091 21.8576C34.3224 22.4194 33.907 22.8572 33.3642 23.1724C32.8255 23.4876 32.2064 23.6445 31.5056 23.6445C30.4496 23.6445 29.592 23.3003 28.9354 22.6132C28.2814 21.9248 27.9558 21.0136 27.9558 19.8807V19.7937Z" fill="white"/>
<path fill-rule="evenodd" clip-rule="evenodd" d="M5.11969 26.3734V27.9533H5.34482C5.52572 27.9533 5.66375 27.8913 5.76023 27.7674C5.85672 27.6408 5.9063 27.4614 5.90898 27.228V27.1067C5.90898 26.868 5.86208 26.6873 5.76827 26.562C5.67447 26.4354 5.53913 26.3734 5.3609 26.3734H5.11969ZM4.7753 28.258V26.0662H5.3609C5.53645 26.0662 5.69189 26.1097 5.82724 26.1954C5.96258 26.2824 6.06844 26.4038 6.14215 26.5633C6.21719 26.7216 6.25471 26.9023 6.25471 27.108V27.2175C6.25471 27.4245 6.21719 27.6078 6.14081 27.7647C6.0671 27.923 5.9599 28.0443 5.82053 28.13C5.68251 28.2144 5.52438 28.258 5.34616 28.258H4.7753Z" fill="white"/>
<path fill-rule="evenodd" clip-rule="evenodd" d="M7.09238 26.8925C7.0026 26.8925 6.92755 26.9281 6.87127 26.998C6.81633 27.0679 6.78149 27.1668 6.76541 27.2907H7.39657V27.2644C7.38853 27.1417 7.35905 27.0494 7.30813 26.9874C7.25586 26.9241 7.1835 26.8925 7.09238 26.8925ZM7.13258 28.2877C6.92219 28.2877 6.75201 28.2139 6.62068 28.0701C6.49204 27.9224 6.42638 27.7286 6.42638 27.4859V27.4411C6.42638 27.2776 6.45452 27.1325 6.5108 27.0046C6.56842 26.8767 6.64748 26.7777 6.75067 26.7052C6.85385 26.6353 6.96775 26.5984 7.09372 26.5984C7.29473 26.5984 7.45017 26.6696 7.55871 26.8107C7.6686 26.9531 7.72354 27.1523 7.72354 27.4121V27.5585H6.76005C6.77077 27.693 6.81097 27.7998 6.88199 27.8789C6.95301 27.9567 7.0428 27.995 7.15134 27.995C7.30277 27.995 7.42605 27.9277 7.52119 27.7932L7.70076 27.9805C7.64046 28.0781 7.56273 28.1532 7.46223 28.2073C7.36575 28.2614 7.25452 28.2877 7.13258 28.2877Z" fill="white"/>
<path fill-rule="evenodd" clip-rule="evenodd" d="M10.0146 27.2794H9.19986V27.9533H10.1526V28.258H8.85547V26.0662H10.1433V26.3734H9.19986V26.9774H10.0146V27.2794Z" fill="white"/>
<path fill-rule="evenodd" clip-rule="evenodd" d="M10.6912 26.6291L10.7006 26.8177C10.8091 26.6713 10.9525 26.5988 11.1294 26.5988C11.4363 26.5988 11.5931 26.794 11.5984 27.1817V28.2578H11.2674V27.2028C11.2674 27.0986 11.2473 27.0235 11.2058 26.9733C11.1656 26.9232 11.0999 26.8982 11.0088 26.8982C10.8748 26.8982 10.7756 26.9654 10.71 27.0986V28.2578H10.3803V26.6291H10.6912Z" fill="white"/>
<path fill-rule="evenodd" clip-rule="evenodd" d="M12.401 26.0663V26.6294H12.6609V26.8998H12.401V27.8084C12.401 27.8717 12.4117 27.9165 12.4331 27.9442C12.4559 27.9719 12.4961 27.9851 12.5537 27.9851C12.5912 27.9851 12.7092 27.9627 12.748 27.9535V28.237C12.673 28.2594 12.5216 28.2871 12.4519 28.2871C12.1973 28.2871 12.07 28.1328 12.07 27.8229V26.8998H11.8274V26.6294H12.07V26.0663H12.401Z" fill="white"/>
<path fill-rule="evenodd" clip-rule="evenodd" d="M12.9702 26.2061C12.9702 26.1507 12.9863 26.1032 13.0185 26.0663C13.0506 26.0294 13.0975 26.0109 13.1565 26.0109C13.2168 26.0109 13.2637 26.0294 13.2958 26.0663C13.3293 26.1032 13.3454 26.1507 13.3454 26.2061C13.3454 26.2615 13.3293 26.3076 13.2958 26.3446C13.2637 26.3815 13.2168 26.3986 13.1565 26.3986C13.0975 26.3986 13.0506 26.3815 13.0185 26.3446C12.9863 26.3076 12.9702 26.2615 12.9702 26.2061ZM12.9903 28.2581H13.3213V26.6294H12.9903V28.2581Z" fill="white"/>
<path fill-rule="evenodd" clip-rule="evenodd" d="M14.0727 27.463C14.0727 27.6278 14.1008 27.7584 14.1584 27.8507C14.2161 27.943 14.2991 27.9892 14.405 27.9892C14.5404 27.9892 14.6395 27.9233 14.7025 27.7901V27.0937C14.6409 26.9645 14.543 26.8986 14.4077 26.8986C14.3005 26.8986 14.2174 26.946 14.1598 27.0397C14.1022 27.1333 14.0727 27.2744 14.0727 27.463ZM13.7417 27.4314C13.7417 27.1808 13.7939 26.979 13.8998 26.8287C14.0057 26.6757 14.1464 26.5992 14.3233 26.5992C14.48 26.5992 14.606 26.6599 14.7025 26.7799V25.9464H15.0321V28.2582H14.7333L14.7172 28.0894C14.6181 28.2213 14.4854 28.2872 14.3206 28.2872C14.1477 28.2872 14.0084 28.2107 13.9011 28.0578C13.7953 27.9035 13.7417 27.6951 13.7417 27.4314Z" fill="white"/>
<path fill-rule="evenodd" clip-rule="evenodd" d="M15.8682 27.9942C15.9339 27.9942 15.9942 27.9757 16.0518 27.9415C16.1094 27.9058 16.1536 27.8584 16.1818 27.8003V27.4931H16.0049C15.8816 27.4931 15.7891 27.5168 15.7275 27.563C15.6659 27.6104 15.635 27.6777 15.635 27.7634C15.635 27.8333 15.6565 27.89 15.698 27.9322C15.7409 27.9731 15.7972 27.9942 15.8682 27.9942ZM16.2314 28.258C16.2166 28.2263 16.2046 28.1762 16.1938 28.105C16.088 28.2263 15.9593 28.287 15.8066 28.287C15.6592 28.287 15.5372 28.2408 15.4448 28.1472C15.3509 28.0535 15.304 27.9388 15.304 27.8017C15.304 27.6276 15.363 27.4957 15.4783 27.4021C15.5948 27.3084 15.7623 27.2623 15.9794 27.2623H16.1818V27.1555C16.1818 27.0711 16.1617 27.0051 16.1188 26.9537C16.0759 26.9023 16.0103 26.8772 15.9245 26.8772C15.8481 26.8772 15.7865 26.8983 15.7382 26.9405C15.69 26.9814 15.6672 27.0341 15.6672 27.0988H15.3362C15.3362 27.0091 15.363 26.926 15.4166 26.8482C15.4702 26.7704 15.5426 26.7097 15.6337 26.6649C15.7262 26.6214 15.8293 26.5989 15.9432 26.5989C16.1161 26.5989 16.2528 26.6477 16.356 26.744C16.4578 26.839 16.5101 26.9735 16.5128 27.1462V27.8808C16.5128 28.0272 16.5329 28.1445 16.5691 28.2316V28.258H16.2314Z" fill="white"/>
<path fill-rule="evenodd" clip-rule="evenodd" d="M17.0898 27.463C17.0898 27.6278 17.1179 27.7584 17.1755 27.8507C17.2332 27.943 17.3162 27.9892 17.4221 27.9892C17.5575 27.9892 17.6566 27.9233 17.7196 27.7901V27.0937C17.658 26.9645 17.5601 26.8986 17.4248 26.8986C17.3176 26.8986 17.2345 26.946 17.1769 27.0397C17.1193 27.1333 17.0898 27.2744 17.0898 27.463ZM16.7588 27.4314C16.7588 27.1808 16.8111 26.979 16.9169 26.8287C17.0228 26.6757 17.1635 26.5992 17.3404 26.5992C17.4972 26.5992 17.6231 26.6599 17.7196 26.7799V25.9464H18.0506V28.2582H17.7504L17.7343 28.0894C17.6352 28.2213 17.5039 28.2872 17.3377 28.2872C17.1662 28.2872 17.0255 28.2107 16.9183 28.0578C16.8124 27.9035 16.7588 27.6951 16.7588 27.4314Z" fill="white"/>
<path fill-rule="evenodd" clip-rule="evenodd" d="M18.9088 26.8925C18.8176 26.8925 18.7439 26.9281 18.6877 26.998C18.6327 27.0679 18.5979 27.1668 18.5818 27.2907H19.213V27.2644C19.2049 27.1417 19.1754 27.0494 19.1245 26.9874C19.0722 26.9241 18.9999 26.8925 18.9088 26.8925ZM18.9476 28.2877C18.7386 28.2877 18.5684 28.2139 18.4371 28.0701C18.3084 27.9224 18.2428 27.7286 18.2428 27.4859V27.4411C18.2428 27.2776 18.2709 27.1325 18.3272 27.0046C18.3848 26.8767 18.4639 26.7777 18.5671 26.7052C18.6689 26.6353 18.7841 26.5984 18.9101 26.5984C19.1111 26.5984 19.2652 26.6696 19.3751 26.8107C19.485 26.9531 19.5399 27.1523 19.5399 27.4121V27.5585H18.5764C18.5858 27.693 18.6274 27.7998 18.697 27.8789C18.7694 27.9567 18.8592 27.995 18.9677 27.995C19.1191 27.995 19.2424 27.9277 19.3376 27.7932L19.5158 27.9805C19.4568 28.0781 19.3778 28.1532 19.2786 28.2073C19.1808 28.2614 19.0709 28.2877 18.9476 28.2877Z" fill="white"/>
<path fill-rule="evenodd" clip-rule="evenodd" d="M20.4288 27.8153C20.4288 27.7493 20.4033 27.7005 20.3551 27.6663C20.3068 27.632 20.2264 27.6016 20.1139 27.5753C20.0013 27.5489 19.9075 27.5159 19.8325 27.4763C19.6676 27.388 19.5845 27.2601 19.5845 27.0926C19.5845 26.9528 19.6381 26.8341 19.7454 26.7405C19.8526 26.6468 19.9879 26.5994 20.1527 26.5994C20.3296 26.5994 20.4717 26.6468 20.5802 26.7444C20.6887 26.8394 20.7423 26.9647 20.7423 27.119H20.4127C20.4127 27.0477 20.3886 26.9897 20.3417 26.9436C20.2934 26.8961 20.2318 26.8737 20.1527 26.8737C20.0804 26.8737 20.0214 26.8908 19.9758 26.9291C19.9289 26.966 19.9075 27.0161 19.9075 27.0768C19.9075 27.1335 19.9276 27.1783 19.9705 27.2086C20.0134 27.239 20.0991 27.2706 20.2304 27.3036C20.3591 27.3339 20.4609 27.3722 20.5346 27.4157C20.6097 27.4592 20.6646 27.512 20.6995 27.5726C20.7356 27.6333 20.7544 27.7085 20.7544 27.7955C20.7544 27.9419 20.6995 28.0606 20.5896 28.1516C20.4797 28.2426 20.335 28.2874 20.1581 28.2874C20.0375 28.2874 19.9289 28.2637 19.8351 28.2149C19.74 28.1674 19.6676 28.1014 19.614 28.017C19.5618 27.9326 19.535 27.8417 19.535 27.7441H19.8566C19.8606 27.8311 19.8914 27.897 19.945 27.9445C20 27.9907 20.071 28.0131 20.1621 28.0131C20.2492 28.0131 20.3149 27.9959 20.3604 27.959C20.406 27.9221 20.4288 27.8746 20.4288 27.8153Z" fill="white"/>
<path fill-rule="evenodd" clip-rule="evenodd" d="M22.9126 27.329H22.1139V28.2574H21.7695V26.0656H23.0291V26.3729H22.1139V27.0257H22.9126V27.329Z" fill="white"/>
<path fill-rule="evenodd" clip-rule="evenodd" d="M23.2718 26.2061C23.2718 26.1507 23.2879 26.1032 23.3201 26.0663C23.3522 26.0294 23.3991 26.0109 23.4581 26.0109C23.5184 26.0109 23.5653 26.0294 23.5975 26.0663C23.631 26.1032 23.647 26.1507 23.647 26.2061C23.647 26.2615 23.631 26.3076 23.5975 26.3446C23.5653 26.3815 23.5184 26.3986 23.4581 26.3986C23.3991 26.3986 23.3522 26.3815 23.3201 26.3446C23.2879 26.3076 23.2718 26.2615 23.2718 26.2061ZM23.2919 28.2581H23.6229V26.6294H23.2919V28.2581Z" fill="white"/>
<path fill-rule="evenodd" clip-rule="evenodd" d="M24.2919 26.6291L24.3012 26.8177C24.4098 26.6713 24.5532 26.5988 24.7301 26.5988C25.0369 26.5988 25.1937 26.794 25.1991 27.1817V28.2578H24.8681V27.2028C24.8681 27.0986 24.848 27.0235 24.8064 26.9733C24.7662 26.9232 24.7006 26.8982 24.6095 26.8982C24.4755 26.8982 24.3763 26.9654 24.3106 27.0986V28.2578H23.981V26.6291H24.2919Z" fill="white"/>
<path fill-rule="evenodd" clip-rule="evenodd" d="M26.0539 27.9942C26.1196 27.9942 26.1812 27.9757 26.2375 27.9415C26.2964 27.9058 26.3393 27.8584 26.3688 27.8003V27.4931H26.1906C26.0673 27.4931 25.9748 27.5168 25.9145 27.563C25.8515 27.6104 25.8207 27.6777 25.8207 27.7634C25.8207 27.8333 25.8422 27.89 25.8837 27.9322C25.9266 27.9731 25.9829 27.9942 26.0539 27.9942ZM26.417 28.258C26.4036 28.2263 26.3902 28.1762 26.3795 28.105C26.275 28.2263 26.145 28.287 25.9936 28.287C25.8448 28.287 25.7242 28.2408 25.6304 28.1472C25.5366 28.0535 25.4911 27.9388 25.4911 27.8017C25.4911 27.6276 25.5487 27.4957 25.6639 27.4021C25.7819 27.3084 25.948 27.2623 26.1651 27.2623H26.3688V27.1555C26.3688 27.0711 26.3474 27.0051 26.3045 26.9537C26.2616 26.9023 26.1973 26.8772 26.1102 26.8772C26.0338 26.8772 25.9721 26.8983 25.9239 26.9405C25.877 26.9814 25.8529 27.0341 25.8529 27.0988H25.5219C25.5219 27.0091 25.5487 26.926 25.6023 26.8482C25.6559 26.7704 25.7283 26.7097 25.8194 26.6649C25.9132 26.6214 26.015 26.5989 26.1289 26.5989C26.3018 26.5989 26.4385 26.6477 26.5417 26.744C26.6435 26.839 26.6958 26.9735 26.6998 27.1462V27.8808C26.6998 28.0272 26.7186 28.1445 26.7547 28.2316V28.258H26.417Z" fill="white"/>
<path fill-rule="evenodd" clip-rule="evenodd" d="M27.3535 26.6291L27.3628 26.8177C27.4714 26.6713 27.6148 26.5988 27.7917 26.5988C28.0985 26.5988 28.254 26.794 28.2607 27.1817V28.2578H27.9297V27.2028C27.9297 27.0986 27.9096 27.0235 27.868 26.9733C27.8278 26.9232 27.7622 26.8982 27.671 26.8982C27.537 26.8982 27.4379 26.9654 27.3722 27.0986V28.2578H27.0412V26.6291H27.3535Z" fill="white"/>
<path fill-rule="evenodd" clip-rule="evenodd" d="M29.2038 27.9955C29.2869 27.9955 29.3552 27.9691 29.4088 27.9151C29.4638 27.8623 29.4932 27.7977 29.4959 27.7186H29.8082C29.8055 27.8201 29.776 27.9151 29.7224 28.0034C29.6688 28.0905 29.5964 28.1604 29.5053 28.2105C29.4128 28.2619 29.315 28.287 29.2078 28.287C29.0014 28.287 28.8393 28.2144 28.7174 28.0667C28.5968 27.919 28.5365 27.7159 28.5365 27.4548V27.4179C28.5365 27.17 28.5968 26.9722 28.716 26.8231C28.8366 26.6741 29.0001 26.5989 29.2065 26.5989C29.382 26.5989 29.5241 26.6556 29.6339 26.7691C29.7452 26.8812 29.8028 27.0302 29.8082 27.2135H29.4959C29.4932 27.1199 29.4638 27.0434 29.4088 26.9827C29.3552 26.9234 29.2869 26.893 29.2038 26.893C29.0966 26.893 29.0135 26.9352 28.9559 27.0223C28.8969 27.1067 28.8688 27.2372 28.8674 27.4113V27.4706C28.8674 27.6474 28.8969 27.7779 28.9532 27.8663C29.0108 27.952 29.0953 27.9955 29.2038 27.9955Z" fill="white"/>
<path fill-rule="evenodd" clip-rule="evenodd" d="M30.059 26.2061C30.059 26.1507 30.0751 26.1032 30.1073 26.0663C30.1394 26.0294 30.1863 26.0109 30.2453 26.0109C30.3056 26.0109 30.3525 26.0294 30.3847 26.0663C30.4168 26.1032 30.4329 26.1507 30.4329 26.2061C30.4329 26.2615 30.4168 26.3076 30.3847 26.3446C30.3525 26.3815 30.3056 26.3986 30.2453 26.3986C30.1863 26.3986 30.1394 26.3815 30.1073 26.3446C30.0751 26.3076 30.059 26.2615 30.059 26.2061ZM30.0791 28.2581H30.4101V26.6294H30.0791V28.2581Z" fill="white"/>
<path fill-rule="evenodd" clip-rule="evenodd" d="M31.3814 26.8925C31.2902 26.8925 31.2165 26.9281 31.1603 26.998C31.1053 27.0679 31.0705 27.1668 31.0544 27.2907H31.6856V27.2644C31.6775 27.1417 31.648 27.0494 31.5971 26.9874C31.5449 26.9241 31.4725 26.8925 31.3814 26.8925ZM31.4202 28.2877C31.2112 28.2877 31.041 28.2139 30.9097 28.0701C30.7797 27.9224 30.7154 27.7286 30.7154 27.4859V27.4411C30.7154 27.2776 30.7435 27.1325 30.7998 27.0046C30.8574 26.8767 30.9365 26.7777 31.0397 26.7052C31.1415 26.6353 31.2567 26.5984 31.3827 26.5984C31.5837 26.5984 31.7378 26.6696 31.8477 26.8107C31.9576 26.9531 32.0112 27.1523 32.0112 27.4121V27.5585H31.049C31.0584 27.693 31.1 27.7998 31.1696 27.8789C31.242 27.9567 31.3318 27.995 31.439 27.995C31.5918 27.995 31.715 27.9277 31.8102 27.7932L31.9884 27.9805C31.9295 28.0781 31.8504 28.1532 31.7512 28.2073C31.6534 28.2614 31.5435 28.2877 31.4202 28.2877Z" fill="white"/>
<path fill-rule="evenodd" clip-rule="evenodd" d="M33.0414 26.9633C32.9972 26.9554 32.953 26.9515 32.9061 26.9515C32.7547 26.9515 32.6528 27.0161 32.6005 27.144V28.2571H32.2696V26.6297H32.5858L32.5938 26.8117C32.6729 26.6693 32.7841 26.5994 32.9262 26.5994C32.9731 26.5994 33.0119 26.606 33.0428 26.6205L33.0414 26.9633Z" fill="white"/>
<path fill-rule="evenodd" clip-rule="evenodd" d="M33.7265 27.9942C33.7921 27.9942 33.8524 27.9757 33.91 27.9415C33.969 27.9058 34.0119 27.8584 34.04 27.8003V27.4931H33.8631C33.7399 27.4931 33.6474 27.5168 33.5857 27.563C33.5241 27.6104 33.4933 27.6777 33.4933 27.7634C33.4933 27.8333 33.5147 27.89 33.5563 27.9322C33.5991 27.9731 33.6554 27.9942 33.7265 27.9942ZM34.0896 28.258C34.0749 28.2263 34.0628 28.1762 34.0521 28.105C33.9462 28.2263 33.8176 28.287 33.6648 28.287C33.5174 28.287 33.3955 28.2408 33.303 28.1472C33.2092 28.0535 33.1623 27.9388 33.1623 27.8017C33.1623 27.6276 33.2213 27.4957 33.3365 27.4021C33.4531 27.3084 33.6206 27.2623 33.8377 27.2623H34.04V27.1555C34.04 27.0711 34.0199 27.0051 33.977 26.9537C33.9342 26.9023 33.8685 26.8772 33.7827 26.8772C33.7064 26.8772 33.6447 26.8983 33.5965 26.9405C33.5482 26.9814 33.5254 27.0341 33.5254 27.0988H33.1945C33.1945 27.0091 33.2213 26.926 33.2749 26.8482C33.3285 26.7704 33.4008 26.7097 33.4919 26.6649C33.5844 26.6214 33.6876 26.5989 33.8015 26.5989C33.9744 26.5989 34.111 26.6477 34.2142 26.744C34.3161 26.839 34.3683 26.9735 34.371 27.1462V27.8808C34.371 28.0272 34.3911 28.1445 34.4273 28.2316V28.258H34.0896Z" fill="white"/>
<path fill-rule="evenodd" clip-rule="evenodd" d="M35.5442 27.8153C35.5442 27.7493 35.5201 27.7005 35.4705 27.6663C35.4223 27.632 35.3419 27.6016 35.2293 27.5753C35.1168 27.5489 35.023 27.5159 34.9479 27.4763C34.7831 27.388 34.7 27.2601 34.7 27.0926C34.7 26.9528 34.7536 26.8341 34.8608 26.7405C34.968 26.6468 35.1034 26.5994 35.2695 26.5994C35.4451 26.5994 35.5871 26.6468 35.6957 26.7444C35.8042 26.8394 35.8591 26.9647 35.8591 27.119H35.5281C35.5281 27.0477 35.504 26.9897 35.4571 26.9436C35.4102 26.8961 35.3472 26.8737 35.2695 26.8737C35.1972 26.8737 35.1369 26.8908 35.0913 26.9291C35.0457 26.966 35.023 27.0161 35.023 27.0768C35.023 27.1335 35.0444 27.1783 35.0873 27.2086C35.1288 27.239 35.2159 27.2706 35.3459 27.3036C35.4759 27.3339 35.5764 27.3722 35.6514 27.4157C35.7251 27.4592 35.7801 27.512 35.8149 27.5726C35.8511 27.6333 35.8699 27.7085 35.8699 27.7955C35.8699 27.9419 35.8149 28.0606 35.705 28.1516C35.5952 28.2426 35.4518 28.2874 35.2735 28.2874C35.1529 28.2874 35.0444 28.2637 34.9506 28.2149C34.8554 28.1674 34.7831 28.1014 34.7308 28.017C34.6772 27.9326 34.6504 27.8417 34.6504 27.7441H34.972C34.9774 27.8311 35.0069 27.897 35.0605 27.9445C35.1154 27.9907 35.1878 28.0131 35.2776 28.0131C35.3647 28.0131 35.4317 27.9959 35.4759 27.959C35.5214 27.9221 35.5442 27.8746 35.5442 27.8153Z" fill="white"/>
<path d="M4.36525 28.776H36.3615" stroke="white" stroke-width="0.3"/>
<mask id="mask0_75_303" style="mask-type:alpha" maskUnits="userSpaceOnUse" x="0" y="0" width="41" height="41">
<path d="M0.591278 0.714417H40.7924V40.2775H0.591278V0.714417Z" fill="white"/>
</mask>
<g mask="url(#mask0_75_303)">
<path fill-rule="evenodd" clip-rule="evenodd" d="M5.41544 3.08821C4.08344 3.08821 3.00336 4.15114 3.00336 5.46201V35.5301C3.00336 36.8409 4.08344 37.9039 5.41544 37.9039H35.9685C37.3005 37.9039 38.3806 36.8409 38.3806 35.5301V5.46201C38.3806 4.15114 37.3005 3.08821 35.9685 3.08821H5.41544ZM3.00336 0.714417C1.67135 0.714417 0.591278 1.77735 0.591278 3.08821V37.9039C0.591278 39.2161 1.67135 40.2777 3.00336 40.2777H38.3806C39.7126 40.2777 40.7926 39.2161 40.7926 37.9039V3.08821C40.7926 1.77735 39.7126 0.714417 38.3806 0.714417H3.00336Z" fill="white"/>
</g>
</svg>
