<svg width="24" height="25" viewBox="0 0 24 25" fill="none" xmlns="http://www.w3.org/2000/svg">
<g id="Check 2">
<path id="Vector" d="M7.625 13.9591L9.51354 16.6393C9.58518 16.7463 9.68133 16.8347 9.79401 16.897C9.90668 16.9594 10.0326 16.9939 10.1613 16.9977C10.29 17.0016 10.4178 16.9746 10.534 16.9191C10.6502 16.8636 10.7515 16.7812 10.8294 16.6786L16.875 9.02965M4.73438 4.34375H19.7656C20.4042 4.34375 20.9219 4.86142 20.9219 5.5V20.5312C20.9219 21.1698 20.4042 21.6875 19.7656 21.6875H4.73438C4.0958 21.6875 3.57812 21.1698 3.57812 20.5312V5.5C3.57812 4.86142 4.0958 4.34375 4.73438 4.34375Z" stroke="#006FB9" stroke-width="1.5" stroke-linecap="round" stroke-linejoin="round"/>
</g>
</svg>
