<svg width="32" height="33" viewBox="0 0 32 33" fill="none" xmlns="http://www.w3.org/2000/svg">
<path d="M19.2882 10.8688H16.9994V9.4021C16.9994 8.84981 16.5517 8.4021 15.9994 8.4021C15.4471 8.4021 14.9994 8.84981 14.9994 9.4021V10.8688H14.7093C14.3164 10.843 13.9224 10.8997 13.5525 11.0354C13.1684 11.1764 12.8196 11.3993 12.5303 11.6886C12.241 11.9779 12.0181 12.3267 11.8771 12.7108C11.7406 13.0827 11.684 13.479 11.7109 13.8739C11.7313 14.9016 12.4845 15.6614 13.1146 16.1641C13.7973 16.7088 14.6834 17.2168 15.4812 17.6742L15.502 17.6861C16.345 18.1694 17.0948 18.6006 17.6411 19.0316C18.2415 19.5053 18.2881 19.7442 18.2881 19.7731L18.2884 19.7903C18.2905 19.915 18.2675 20.0389 18.2208 20.1546C18.1741 20.2702 18.1045 20.3753 18.0163 20.4635C17.9281 20.5517 17.823 20.6213 17.7073 20.668C17.5917 20.7148 17.4678 20.7376 17.3431 20.7355H16.0062L15.9994 20.7354L15.9925 20.7355H12.7105C12.1582 20.7355 11.7105 21.1832 11.7105 21.7355C11.7105 22.2877 12.1582 22.7355 12.7105 22.7355H14.9994V24.2021C14.9994 24.7544 15.4471 25.2021 15.9994 25.2021C16.5517 25.2021 16.9994 24.7544 16.9994 24.2021V22.7355H17.3181C17.7081 22.7409 18.0952 22.6684 18.4568 22.5223C18.8213 22.3749 19.1525 22.1557 19.4305 21.8777C19.7085 21.5997 19.9277 21.2685 20.0751 20.904C20.2214 20.542 20.2939 20.1544 20.2882 19.764C20.2837 18.7231 19.5109 17.9592 18.8798 17.4614C18.2106 16.9334 17.3442 16.4368 16.5589 15.9867L16.4967 15.951C15.6555 15.4687 14.9066 15.0352 14.3619 14.6007C13.7674 14.1264 13.7105 13.8781 13.7105 13.8312C13.7105 13.8039 13.7093 13.7767 13.7071 13.7495C13.6974 13.6309 13.7136 13.5117 13.7546 13.4C13.7956 13.2884 13.8604 13.187 13.9445 13.1028C14.0286 13.0187 14.13 12.9539 14.2417 12.9129C14.3534 12.8719 14.4726 12.8557 14.5912 12.8654C14.6183 12.8677 14.6456 12.8688 14.6728 12.8688H19.2882C19.8405 12.8688 20.2882 12.4211 20.2882 11.8688C20.2882 11.3165 19.8405 10.8688 19.2882 10.8688Z" fill="#006FB9"/>
<path fill-rule="evenodd" clip-rule="evenodd" d="M15.9993 3.46875C8.63555 3.46875 2.66602 9.43829 2.66602 16.8021C2.66602 24.1659 8.63555 30.1354 15.9993 30.1354C23.3631 30.1354 29.3327 24.1659 29.3327 16.8021C29.3327 9.43829 23.3631 3.46875 15.9993 3.46875ZM4.66602 16.8021C4.66602 10.5429 9.74012 5.46875 15.9993 5.46875C22.2586 5.46875 27.3327 10.5429 27.3327 16.8021C27.3327 23.0613 22.2586 28.1354 15.9993 28.1354C9.74012 28.1354 4.66602 23.0613 4.66602 16.8021Z" fill="#006FB9"/>
</svg>
