<svg width="24" height="25" viewBox="0 0 24 25" fill="none" xmlns="http://www.w3.org/2000/svg">
<path fill-rule="evenodd" clip-rule="evenodd" d="M3.94768 2.53991C3.95957 2.53935 3.97147 2.53906 3.98337 2.53906H12.7228C13.2484 2.53917 13.7527 2.74795 14.1245 3.11952L16.4861 5.48111C16.8576 5.85292 17.0666 6.35719 17.0667 6.88284V8.83906C17.0667 9.25328 16.7309 9.58906 16.3167 9.58906C15.9025 9.58906 15.5667 9.25328 15.5667 8.83906V6.88316C15.5667 6.8831 15.5667 6.88321 15.5667 6.88316C15.5666 6.75511 15.5158 6.63217 15.4252 6.5416L13.0642 4.18052C12.9736 4.09001 12.8508 4.03913 12.7228 4.03906C12.7227 4.03906 12.7228 4.03906 12.7228 4.03906H4.00503C3.86967 4.04901 3.74269 4.10916 3.64916 4.20798C3.55241 4.31022 3.49896 4.44592 3.50002 4.58667L3.50006 4.59228L3.50004 18.1546C3.50091 18.211 3.51299 18.2668 3.5356 18.3185C3.55856 18.371 3.59189 18.4184 3.6336 18.4577C3.6753 18.4971 3.72453 18.5276 3.77832 18.5475C3.83211 18.5673 3.88936 18.5761 3.94662 18.5733C3.95886 18.5727 3.97112 18.5724 3.98337 18.5724H8.30004C8.71425 18.5724 9.05004 18.9082 9.05004 19.3224C9.05004 19.7366 8.71425 20.0724 8.30004 20.0724H3.99951C3.74737 20.0821 3.49572 20.0421 3.25888 19.9547C3.01559 19.8648 2.79295 19.7268 2.6043 19.5489C2.41566 19.3709 2.2649 19.1567 2.16107 18.9191C2.05724 18.6814 2.00248 18.4252 2.00007 18.1659L2 18.1589L2.00004 4.59477C1.9969 4.06774 2.19736 3.55979 2.55969 3.17694C2.92273 2.79332 3.42011 2.56505 3.94768 2.53991ZM8.91667 7.4724C9.33088 7.4724 9.66667 7.80818 9.66667 8.2224L9.66667 14.3891C9.66667 14.588 9.58765 14.7787 9.447 14.9194C9.30634 15.06 9.11558 15.1391 8.91667 15.1391H5.21667C4.80245 15.1391 4.46667 14.8033 4.46667 14.3891C4.46667 13.9748 4.80245 13.6391 5.21667 13.6391H5.7V10.6891C5.7 10.2748 6.03579 9.93906 6.45 9.93906C6.86421 9.93906 7.2 10.2748 7.2 10.6891V13.6391H8.16667L8.16667 8.2224C8.16667 7.80818 8.50245 7.4724 8.91667 7.4724ZM11.3833 8.70573C11.7975 8.70573 12.1333 9.04151 12.1333 9.45573V10.6891C12.1333 11.1033 11.7975 11.4391 11.3833 11.4391C10.9691 11.4391 10.6333 11.1033 10.6333 10.6891V9.45573C10.6333 9.04151 10.9691 8.70573 11.3833 8.70573ZM12.2979 12.837C13.3638 11.7712 14.8094 11.1724 16.3167 11.1724C17.824 11.1724 19.2696 11.7712 20.3354 12.837C21.4012 13.9028 22 15.3484 22 16.8557C22 18.363 21.4012 19.8086 20.3354 20.8745C19.2696 21.9403 17.824 22.5391 16.3167 22.5391C14.8094 22.5391 13.3638 21.9403 12.2979 20.8745C11.2321 19.8086 10.6333 18.363 10.6333 16.8557C10.6333 15.3484 11.2321 13.9028 12.2979 12.837ZM16.3167 12.6724C15.2072 12.6724 14.1431 13.1131 13.3586 13.8977C12.5741 14.6822 12.1333 15.7462 12.1333 16.8557C12.1333 17.9652 12.5741 19.0293 13.3586 19.8138C14.1431 20.5983 15.2072 21.0391 16.3167 21.0391C17.4262 21.0391 18.4902 20.5983 19.2747 19.8138C20.0593 19.0293 20.5 17.9652 20.5 16.8557C20.5 15.7462 20.0593 14.6822 19.2747 13.8977C18.4902 13.1131 17.4262 12.6724 16.3167 12.6724ZM16.3179 15.1391C16.3175 15.1391 16.3171 15.1391 16.3167 15.1391C16.3163 15.1391 16.3159 15.1391 16.3155 15.1391H15.8789C15.7968 15.1391 15.7174 15.1677 15.6541 15.22C15.5908 15.2722 15.5477 15.3449 15.5321 15.4254C15.5166 15.506 15.5295 15.5894 15.5688 15.6615C15.608 15.7335 15.6709 15.7896 15.7469 15.8202C15.7468 15.8202 15.747 15.8203 15.7469 15.8202L17.4443 16.4995C17.8435 16.6601 18.1744 16.9547 18.3802 17.3326C18.586 17.7105 18.6539 18.1482 18.5722 18.5707C18.4905 18.9932 18.2644 19.3741 17.9326 19.6481C17.6801 19.8566 17.3784 19.9933 17.059 20.0469C17.0067 20.41 16.6943 20.6891 16.3167 20.6891C15.948 20.6891 15.6414 20.423 15.5785 20.0724H15.0833C14.6691 20.0724 14.3333 19.7366 14.3333 19.3224C14.3333 18.9082 14.6691 18.5724 15.0833 18.5724H16.7527C16.8347 18.5723 16.9142 18.5437 16.9775 18.4915C17.0408 18.4392 17.0839 18.3666 17.0995 18.286C17.115 18.2055 17.1021 18.122 17.0628 18.0499C17.0236 17.978 16.9607 17.9219 16.8847 17.8912C16.8846 17.8912 16.8848 17.8913 16.8847 17.8912L15.1873 17.2119C14.7881 17.0513 14.4572 16.7568 14.2514 16.3789C14.0456 16.001 13.9777 15.5633 14.0594 15.1408C14.1411 14.7183 14.3672 14.3374 14.699 14.0634C14.9519 13.8545 15.2543 13.7176 15.5744 13.6643C15.6268 13.3013 15.9392 13.0224 16.3167 13.0224C16.6854 13.0224 16.9919 13.2885 17.0548 13.6391H17.55C17.9642 13.6391 18.3 13.9748 18.3 14.3891C18.3 14.8033 17.9642 15.1391 17.55 15.1391H16.3179Z" fill="#006FB9"/>
</svg>
