<svg width="24" height="25" viewBox="0 0 24 25" fill="none" xmlns="http://www.w3.org/2000/svg">
<path fill-rule="evenodd" clip-rule="evenodd" d="M11.9989 3.8044L9.32201 9.11253C9.20644 9.3417 8.9817 9.49586 8.72628 9.52116L3.60705 10.0283L7.83491 14.2155C8.02752 14.4063 8.1022 14.6861 8.03025 14.9475L6.46446 20.6353L11.666 18.0593C11.8758 17.9554 12.122 17.9554 12.3317 18.0593L17.5407 20.6386L15.9749 14.9508C15.903 14.6895 15.9776 14.4098 16.17 14.219L20.3949 10.0316L15.2756 9.52445C15.0203 9.49916 14.7956 9.3451 14.68 9.11606L11.9989 3.8044ZM11.2563 2.41996C11.4799 2.28327 11.7368 2.21094 11.9989 2.21094C12.2609 2.21094 12.5179 2.28327 12.7414 2.41996C12.965 2.55665 13.1465 2.7524 13.2659 2.98564L13.2678 2.98949L15.8334 8.07237L20.7139 8.55587C20.9803 8.57935 21.2345 8.67798 21.4471 8.84034C21.6615 9.00414 21.8245 9.22594 21.9167 9.47951C22.009 9.73306 22.0267 10.0078 21.9677 10.271C21.9087 10.5343 21.7755 10.7752 21.5839 10.9651L17.5375 14.9756L19.0386 20.4284C19.1088 20.6925 19.1011 20.9714 19.0165 21.2313C18.932 21.4912 18.7741 21.7211 18.562 21.8934C18.3499 22.0658 18.0925 22.1731 17.8207 22.2026C17.5499 22.232 17.2764 22.1829 17.0329 22.061L17.0304 22.0597L11.9989 19.5683L6.97478 22.0565L6.97238 22.0577C6.7288 22.1796 6.45526 22.2288 6.18442 22.1994C5.9127 22.1699 5.65529 22.0625 5.44316 21.8902C5.23102 21.7178 5.07318 21.4879 4.98863 21.228C4.90408 20.9681 4.89642 20.6893 4.96656 20.4251L4.96831 20.4185L6.46757 14.9725L2.41821 10.9621C2.22656 10.7721 2.09316 10.5311 2.03417 10.2678C1.97517 10.0045 1.99285 9.72978 2.08512 9.47622C2.17739 9.22266 2.34038 9.00085 2.5548 8.83705C2.76735 8.67469 3.0216 8.57606 3.28794 8.55259L8.16826 8.0691L10.7319 2.98563C10.8513 2.75239 11.0328 2.55665 11.2563 2.41996Z" fill="#006FB9"/>
</svg>
