<svg width="33" height="33" viewBox="0 0 33 33" fill="none" xmlns="http://www.w3.org/2000/svg">
<path fill-rule="evenodd" clip-rule="evenodd" d="M24.4695 3.50052C24.8215 3.61038 25.0845 3.90503 25.1537 4.2672L25.5765 6.47715L27.7865 6.89994C28.1487 6.96922 28.4433 7.23219 28.5532 7.58419C28.663 7.93618 28.5703 8.32006 28.3118 8.58306L24.8124 12.1438C24.6607 12.2982 24.463 12.3992 24.2489 12.4316L20.4626 13.0051L16.1267 17.3409C15.7362 17.7315 15.103 17.7315 14.7125 17.3409C14.322 16.9504 14.322 16.3172 14.7125 15.9267L19.0484 11.5908L19.6221 7.80467C19.6545 7.59067 19.7555 7.39296 19.9099 7.24125L23.4706 3.74187C23.7336 3.48341 24.1175 3.39066 24.4695 3.50052ZM21.1799 10.8736L23.6197 10.5041L25.5762 8.51335L24.534 8.31397C24.1315 8.23697 23.8167 7.92219 23.7397 7.51969L23.5403 6.47752L21.5496 8.43398L21.1799 10.8736ZM17.0706 7.1492C15.0164 6.94029 12.9492 7.39307 11.1704 8.44152C9.39166 9.48997 7.99435 11.0792 7.18225 12.9776C6.37015 14.876 6.18574 16.9841 6.65591 18.9946C7.12608 21.0052 8.22624 22.8129 9.79596 24.1543C10.0967 24.4112 10.4116 24.6485 10.7388 24.8653C10.941 24.918 11.1128 25.0292 11.2405 25.1761C12.5005 25.9047 13.9154 26.3439 15.3821 26.4513C17.4413 26.6023 19.495 26.0914 21.2435 24.9932C22.992 23.895 24.3439 22.267 25.1022 20.3465C25.8604 18.426 25.9853 16.3135 25.4586 14.317C25.3178 13.783 25.6365 13.2359 26.1705 13.095C26.7045 12.9541 27.2516 13.2728 27.3925 13.8068C28.0279 16.2154 27.8772 18.764 26.9624 21.0809C26.1665 23.0968 24.8283 24.8456 23.1046 26.1387L23.7898 28.8792C23.9237 29.415 23.598 29.958 23.0622 30.0919C22.5264 30.2259 21.9834 29.9001 21.8495 29.3643L21.319 27.2426C19.4429 28.1809 17.3419 28.6003 15.2359 28.446C13.8052 28.3411 12.4152 27.9746 11.1319 27.3735L10.6342 29.3643C10.5003 29.9001 9.95733 30.2259 9.42154 30.0919C8.88574 29.958 8.55998 29.415 8.69393 28.8792L9.33232 26.3257C9.04497 26.1221 8.76609 25.905 8.49668 25.6747C6.60293 24.0565 5.27568 21.8756 4.70845 19.4501C4.14123 17.0245 4.36371 14.4812 5.34344 12.191C6.32317 9.90076 8.00892 7.98342 10.1549 6.71855C12.3008 5.45368 14.7947 4.90743 17.2729 5.15946C17.8224 5.21534 18.2225 5.70606 18.1666 6.25551C18.1107 6.80496 17.62 7.20508 17.0706 7.1492ZM16.0847 12.0329C15.0948 12.0335 14.1297 12.343 13.324 12.9182C12.5183 13.4934 11.9122 14.3056 11.59 15.2417C11.2679 16.1778 11.2459 17.191 11.527 18.1402C11.8081 19.0894 12.3783 19.9272 13.1582 20.5369C13.9381 21.1467 14.8888 21.4978 15.8778 21.5415C16.8668 21.5852 17.8447 21.3193 18.6754 20.7808C19.506 20.2423 20.148 19.458 20.5117 18.5373C20.8755 17.6166 20.9429 16.6054 20.7046 15.6445C20.5717 15.1085 20.8984 14.5662 21.4345 14.4332C21.9705 14.3003 22.5128 14.6271 22.6458 15.1631C22.9843 16.5279 22.8885 17.9644 22.3718 19.2722C21.8551 20.58 20.9433 21.694 19.7634 22.459C18.5835 23.2239 17.1943 23.6017 15.7895 23.5396C14.3847 23.4775 13.0342 22.9787 11.9264 22.1126C10.8186 21.2465 10.0086 20.0564 9.60929 18.7081C9.20999 17.3598 9.24132 15.9205 9.69889 14.5909C10.1565 13.2613 11.0175 12.1075 12.1619 11.2904C13.3064 10.4734 14.6773 10.0338 16.0834 10.0329C16.6357 10.0325 17.0837 10.4799 17.0841 11.0322C17.0844 11.5845 16.637 12.0325 16.0847 12.0329Z" fill="#006FB9"/>
</svg>
