<svg width="93" height="97" viewBox="0 0 93 97" fill="none" xmlns="http://www.w3.org/2000/svg">
<path d="M43.3617 96.2276C42.2752 96.2276 41.1888 96.1313 40.1162 95.9385L8.59273 90.235C5.7971 89.729 3.76611 87.3093 3.76611 84.4833V75.1622C3.76611 70.1988 7.50977 66.0855 12.4748 65.5899C20.0624 64.836 27.6812 66.2301 34.5042 69.6239L38.3205 71.5205C38.6942 71.7064 39.1129 71.8062 39.5315 71.8062H50.4926C53.0875 71.8062 55.3123 73.3999 56.2326 75.6579L71.1969 71.5102C73.9925 70.45 77.2068 71.6857 78.5492 74.3568C79.2516 75.7543 79.3658 77.3376 78.8676 78.8211C78.3728 80.3012 77.3244 81.5025 75.9197 82.2012L51.579 94.307C49.036 95.5736 46.2023 96.2276 43.3651 96.2276H43.3617Z" fill="#275BA7"/>
<path d="M16.4919 68.5469C15.2602 68.5469 14.0215 68.6088 12.7863 68.7293C9.45092 69.0597 6.93555 71.8272 6.93555 75.1625V84.4836C6.93555 85.7847 7.86973 86.8999 9.15683 87.1306L40.6803 92.8341C43.8808 93.4123 47.2473 92.9339 50.1571 91.4882L74.4977 79.3825C75.1448 79.0624 75.6257 78.5082 75.854 77.8267C76.0824 77.1451 76.0305 76.4154 75.7087 75.7718C75.0859 74.5292 73.5809 73.9612 72.2834 74.4775C72.2315 74.4982 72.1761 74.5154 72.1208 74.5326L56.6203 78.8283C56.1981 81.8195 53.6101 84.1291 50.4892 84.1291H32.9854C32.1101 84.1291 31.4008 83.4235 31.4008 82.5526C31.4008 81.6818 32.1101 80.9762 32.9854 80.9762H50.4892C52.1535 80.9762 53.5098 79.6269 53.5098 77.9712C53.5098 76.3156 52.1535 74.9663 50.4892 74.9663H39.5282C38.6217 74.9663 37.7117 74.7529 36.8986 74.3502L33.0823 72.4536C27.9097 69.8789 22.2389 68.5538 16.4919 68.5538V68.5469Z" fill="white"/>
<path d="M48.6036 66.6237C47.7663 66.6237 46.9117 66.4792 46.0606 66.1935C42.7875 65.0886 40.4797 62.0389 40.3205 58.6037C40.2202 56.4008 40.9606 54.4388 42.4726 52.9312C45.3236 50.0812 50.6657 48.8524 58.807 49.1862C59.281 49.2069 59.7239 49.4375 60.011 49.8127C60.2982 50.1913 60.3985 50.6767 60.2844 51.1344C58.3468 59.0064 55.6826 63.7737 52.1397 65.7081C51.0256 66.3174 49.8319 66.6203 48.6071 66.6203L48.6036 66.6237Z" fill="#275BA7"/>
<path d="M56.3606 52.2891C49.1778 52.2891 46.0673 53.8105 44.7214 55.1563C43.8322 56.0478 43.4273 57.1286 43.4896 58.4607C43.59 60.6085 45.0328 62.5154 47.0776 63.2073C48.3474 63.6375 49.503 63.5515 50.6102 62.9457C52.309 62.0163 54.6894 59.4004 56.6997 52.2925C56.5855 52.2925 56.4713 52.2925 56.3606 52.2925V52.2891Z" fill="#00AEE8"/>
<path d="M36.7016 67.6989C35.7293 67.6989 34.7813 67.4545 33.8955 66.9726C31.1691 65.4856 29.1347 61.8749 27.6711 55.9408C27.5569 55.483 27.6573 54.9942 27.9444 54.6191C28.2316 54.2439 28.671 54.0098 29.1485 53.9926C35.2899 53.7413 39.338 54.6879 41.5316 56.8805C42.7322 58.0783 43.3204 59.6376 43.2408 61.3827C43.1163 64.0882 41.2998 66.4907 38.7187 67.3616C38.044 67.5887 37.3693 67.7023 36.705 67.7023L36.7016 67.6989Z" fill="#275BA7"/>
<path d="M31.273 57.1016C32.6812 61.8206 34.2762 63.5761 35.4215 64.2025C36.1307 64.5915 36.8781 64.6431 37.6981 64.3678C39.0509 63.91 40.0024 62.6502 40.0682 61.232C40.1097 60.3681 39.8502 59.6728 39.2793 59.1014C38.3555 58.1789 36.2172 57.1429 31.2695 57.105L31.273 57.1016Z" fill="#00AEE8"/>
<path d="M41.8013 49.0819C50.3161 49.0819 57.2188 42.2149 57.2188 33.7441C57.2188 25.2732 50.3161 18.4062 41.8013 18.4062C33.2864 18.4062 26.3838 25.2732 26.3838 33.7441C26.3838 42.2149 33.2864 49.0819 41.8013 49.0819Z" fill="#FFE539"/>
<path d="M41.6594 73.4265C40.784 73.4265 40.0747 72.7209 40.0747 71.8501V49.0843C40.0747 48.2134 40.784 47.5078 41.6594 47.5078C42.5347 47.5078 43.244 48.2134 43.244 49.0843V71.8501C43.244 72.7209 42.5347 73.4265 41.6594 73.4265Z" fill="#275BA7"/>
<path d="M37.7912 36.588C38.7461 37.4761 40.22 38.3228 41.5487 38.3228C42.4206 38.3228 43.5001 37.8272 43.5001 36.8152C43.5001 35.6587 41.8808 35.4522 40.2408 34.8532C38.6215 34.2543 36.9815 33.325 36.9815 30.8054C36.9815 28.2858 38.6838 26.1173 41.2165 25.9521V23.4531H43.1471V25.9521C44.455 26.076 45.8044 26.4271 46.9254 27.1499L45.3892 30.1445C44.6418 29.5456 43.7077 29.1325 42.732 29.1325C41.8185 29.1325 40.9674 29.463 40.9674 30.2891C40.9674 31.2391 42.2752 31.6521 43.0018 31.8999C45.3684 32.6847 47.5067 33.5521 47.5067 36.4228C47.5067 39.2935 45.8459 40.8011 43.1471 41.462V44.0435H41.2165V41.5859C40.3031 41.5859 39.4104 41.4 38.5385 41.0696C37.6666 40.7392 36.7739 40.3468 36.0889 39.7065L37.7912 36.588Z" fill="#275BA7"/>
<path d="M77.5088 25.0078L81.5033 29.0189" stroke="white" stroke-width="0.77037" stroke-linecap="round" stroke-linejoin="round"/>
<path d="M84.6841 32.2109L88.6786 36.222" stroke="white" stroke-width="0.77037" stroke-linecap="round" stroke-linejoin="round"/>
<path d="M88.6786 25.0078L84.6841 29.0189" stroke="white" stroke-width="0.77037" stroke-linecap="round" stroke-linejoin="round"/>
<path d="M81.5033 32.2109L77.5088 36.222" stroke="white" stroke-width="0.77037" stroke-linecap="round" stroke-linejoin="round"/>
<path d="M70.8455 17.0663C74.7483 18.1164 78.7444 15.7891 79.7845 11.8913C80.8246 7.99351 78.5227 3.97163 74.6199 2.92154C70.7171 1.87146 66.721 4.19878 65.6809 8.09655C64.6408 11.9943 66.9427 16.0162 70.8455 17.0663Z" stroke="#FFDD35" stroke-width="5.00741"/>
</svg>
