<svg width="100" height="101" viewBox="0 0 100 101" fill="none" xmlns="http://www.w3.org/2000/svg">
<path d="M51.7358 90.1992C50.6281 90.1992 49.5203 90.1004 48.4267 89.9029L16.2846 84.0572C13.4341 83.5386 11.3633 81.0586 11.3633 78.1622V68.6088C11.3633 63.5217 15.1804 59.3059 20.2428 58.7979C27.9794 58.0253 35.7477 59.4541 42.7046 62.9326L46.5958 64.8764C46.9768 65.0669 47.4036 65.1692 47.8305 65.1692H59.0067C61.6526 65.1692 63.921 66.8026 64.8594 69.1169L80.1173 64.8658C82.9678 63.7792 86.2451 65.0457 87.6139 67.7833C88.3301 69.2156 88.4465 70.8384 87.9385 72.3589C87.434 73.8759 86.3651 75.1071 84.9327 75.8233L60.1144 88.2307C57.5215 89.5289 54.6322 90.1992 51.7393 90.1992H51.7358Z" fill="#275BA7"/>
<path d="M24.3386 61.8281C23.0827 61.8281 21.8197 61.8916 20.5603 62.0151C17.1595 62.3538 14.5947 65.1902 14.5947 68.6086V78.162C14.5947 79.4955 15.5472 80.6385 16.8596 80.8749L49.0017 86.7205C52.2649 87.3132 55.6975 86.8228 58.6644 85.3411L83.4828 72.9337C84.1425 72.6057 84.6328 72.0377 84.8657 71.3392C85.0985 70.6407 85.0456 69.8928 84.7175 69.233C84.0825 67.9595 82.5479 67.3774 81.225 67.9066C81.172 67.9278 81.1156 67.9454 81.0591 67.963L65.2544 72.3658C64.824 75.4315 62.1852 77.7986 59.0031 77.7986H41.1558C40.2633 77.7986 39.5401 77.0754 39.5401 76.1829C39.5401 75.2903 40.2633 74.5671 41.1558 74.5671H59.0031C60.7 74.5671 62.0829 73.1842 62.0829 71.4873C62.0829 69.7904 60.7 68.4075 59.0031 68.4075H47.8269C46.9026 68.4075 45.9748 68.1888 45.1458 67.7761L41.2546 65.8322C35.9805 63.1934 30.1983 61.8352 24.3386 61.8352V61.8281Z" fill="white"/>
<path d="M57.0808 59.8565C56.227 59.8565 55.3557 59.7083 54.4878 59.4155C51.1505 58.283 48.7974 55.1574 48.6351 51.6366C48.5328 49.3788 49.2878 47.3679 50.8295 45.8227C53.7364 42.9017 59.1834 41.6422 67.4844 41.9844C67.9677 42.0056 68.4192 42.242 68.7121 42.6265C69.0049 43.0146 69.1072 43.512 68.9908 43.9812C67.0152 52.0494 64.2987 56.9354 60.6862 58.9181C59.5503 59.5425 58.3332 59.8529 57.0843 59.8529L57.0808 59.8565Z" fill="#275BA7"/>
<path d="M64.9902 45.1621C57.6665 45.1621 54.4949 46.7214 53.1226 48.1008C52.216 49.0145 51.8032 50.1222 51.8667 51.4875C51.969 53.6889 53.4401 55.6433 55.5251 56.3524C56.8198 56.7934 57.9981 56.7052 59.127 56.0843C60.8591 55.1318 63.2863 52.4506 65.336 45.1656C65.2195 45.1656 65.1031 45.1656 64.9902 45.1656V45.1621Z" fill="#00AEE8"/>
<path d="M44.9451 60.9574C43.9538 60.9574 42.9872 60.707 42.084 60.2131C39.3041 58.689 37.2297 54.9883 35.7374 48.9064C35.621 48.4372 35.7233 47.9362 36.0161 47.5517C36.309 47.1671 36.757 46.9272 37.2438 46.9096C43.5057 46.6521 47.6333 47.6222 49.87 49.8695C51.0941 51.0971 51.6938 52.6953 51.6127 54.4839C51.4857 57.2567 49.6336 59.7192 47.0018 60.6117C46.3139 60.8446 45.626 60.961 44.9486 60.961L44.9451 60.9574Z" fill="#275BA7"/>
<path d="M39.4098 50.0977C40.8456 54.9343 42.4719 56.7335 43.6397 57.3756C44.3629 57.7742 45.1249 57.8271 45.961 57.5449C47.3404 57.0757 48.3105 55.7845 48.3775 54.3311C48.4199 53.4456 48.1553 52.7329 47.5732 52.1473C46.6313 51.2019 44.4511 50.14 39.4062 50.1012L39.4098 50.0977Z" fill="#00AEE8"/>
<path d="M50.1448 41.8776C58.8268 41.8776 65.8649 34.8395 65.8649 26.1575C65.8649 17.4756 58.8268 10.4375 50.1448 10.4375C41.4629 10.4375 34.4248 17.4756 34.4248 26.1575C34.4248 34.8395 41.4629 41.8776 50.1448 41.8776Z" fill="#FFE539"/>
<path d="M49.9995 66.8302C49.107 66.8302 48.3838 66.107 48.3838 65.2145V41.8814C48.3838 40.9888 49.107 40.2656 49.9995 40.2656C50.8921 40.2656 51.6153 40.9888 51.6153 41.8814V65.2145C51.6153 66.107 50.8921 66.8302 49.9995 66.8302Z" fill="#275BA7"/>
<path d="M46.056 29.0677C47.0297 29.9779 48.5325 30.8457 49.8872 30.8457C50.7763 30.8457 51.8769 30.3377 51.8769 29.3005C51.8769 28.1152 50.2259 27.9035 48.5537 27.2897C46.9027 26.6758 45.2305 25.7233 45.2305 23.1409C45.2305 20.5585 46.9662 18.336 49.5486 18.1667V15.6055H51.5171V18.1667C52.8506 18.2937 54.2265 18.6535 55.3695 19.3944L53.8031 22.4636C53.0411 21.8497 52.0886 21.4264 51.0938 21.4264C50.1624 21.4264 49.2946 21.7651 49.2946 22.6118C49.2946 23.5854 50.6281 24.0088 51.3689 24.2628C53.782 25.0671 55.9622 25.9561 55.9622 28.8984C55.9622 31.8406 54.2688 33.3858 51.5171 34.0631V36.709H49.5486V34.1901C48.6172 34.1901 47.707 33.9996 46.818 33.6609C45.929 33.3223 45.0188 32.9201 44.3203 32.2639L46.056 29.0677Z" fill="#275BA7"/>
</svg>
