<svg width="24" height="25" viewBox="0 0 24 25" fill="none" xmlns="http://www.w3.org/2000/svg">
<path d="M14.6 10.6891C14.6 10.2751 14.264 9.93906 13.85 9.93906H6.44902C6.03502 9.93906 5.69902 10.2751 5.69902 10.6891C5.69902 11.1031 6.03502 11.4391 6.44902 11.4391H13.85C14.264 11.4391 14.6 11.1031 14.6 10.6891Z" fill="#006FB9"/>
<path d="M8.91602 18.5721H3.98202C3.85502 18.5721 3.73102 18.5201 3.63902 18.4291C3.55002 18.3401 3.49802 18.2161 3.49802 18.0881V4.52206C3.49802 4.39306 3.54802 4.27206 3.64002 4.18006C3.73102 4.09006 3.85502 4.03906 3.98202 4.03906H16.315C16.443 4.03906 16.567 4.09006 16.657 4.18106C16.748 4.27206 16.799 4.39406 16.799 4.52306V10.0731C16.799 10.4871 17.135 10.8231 17.549 10.8231C17.963 10.8231 18.299 10.4871 18.299 10.0731V4.52306C18.299 3.99306 18.093 3.49506 17.719 3.12206C17.351 2.75106 16.839 2.53906 16.315 2.53906H3.98202C3.45902 2.53906 2.94802 2.75106 2.58002 3.12006C2.20602 3.49506 1.99902 3.99306 1.99902 4.52206V18.0891C1.99902 18.6121 2.21102 19.1241 2.58002 19.4901C2.94902 19.8601 3.46002 20.0721 3.98302 20.0721H8.91602C9.33002 20.0721 9.66602 19.7361 9.66602 19.3221C9.66602 18.9081 9.33002 18.5721 8.91602 18.5721Z" fill="#006FB9"/>
<path d="M13.85 6.23906H8.91602C8.50202 6.23906 8.16602 6.57506 8.16602 6.98906C8.16602 7.40306 8.50102 7.73906 8.91602 7.73906H13.85C14.264 7.73906 14.6 7.40306 14.6 6.98906C14.6 6.57506 14.264 6.23906 13.85 6.23906Z" fill="#006FB9"/>
<path d="M21.266 11.9011C21.033 11.6691 20.761 11.4871 20.459 11.3621C19.852 11.1121 19.162 11.1101 18.554 11.3621C18.249 11.4881 17.978 11.6701 17.746 11.9021L11.472 18.1751C11.367 18.2791 11.296 18.4131 11.267 18.5581L10.65 21.6421C10.601 21.8881 10.678 22.1431 10.855 22.3201C10.997 22.4631 11.188 22.5401 11.385 22.5401C11.434 22.5401 11.483 22.5351 11.532 22.5251L14.615 21.9081C14.76 21.8791 14.893 21.8071 14.998 21.7031L21.269 15.4311C21.733 14.9691 21.999 14.3281 22 13.6731C22.002 13.0071 21.744 12.3821 21.266 11.9011ZM20.211 14.3671L14.099 20.4811L12.342 20.8331L12.694 19.0751L18.808 12.9611C18.898 12.8711 19.009 12.7961 19.128 12.7471C19.369 12.6471 19.646 12.6471 19.885 12.7471C20.005 12.7971 20.114 12.8691 20.212 12.9681C20.399 13.1561 20.502 13.4041 20.501 13.6681C20.5 13.9291 20.395 14.1841 20.211 14.3671Z" fill="#006FB9"/>
<path d="M6.44902 13.6391C6.03502 13.6391 5.69902 13.9751 5.69902 14.3891C5.69902 14.8031 6.03502 15.1391 6.44902 15.1391H12.616C13.03 15.1391 13.366 14.8031 13.366 14.3891C13.366 13.9751 13.03 13.6391 12.616 13.6391H6.44902Z" fill="#006FB9"/>
</svg>
