<svg width="33" height="33" viewBox="0 0 33 33" fill="none" xmlns="http://www.w3.org/2000/svg">
<path fill-rule="evenodd" clip-rule="evenodd" d="M8.27811 5.09961C7.14062 5.09961 6.04973 5.55147 5.2454 6.3558C4.44108 7.16012 3.98922 8.25102 3.98922 9.38851C3.98922 10.526 4.44108 11.6169 5.2454 12.4212C5.7411 12.9169 6.34564 13.2787 7.00285 13.4834C6.65518 13.573 6.31638 13.6994 5.99234 13.8614C5.14336 14.2859 4.42935 14.9384 3.93033 15.7458C3.43131 16.5533 3.16699 17.4837 3.16699 18.4329V20.8996C3.16699 21.4519 3.61471 21.8996 4.16699 21.8996H4.92865L5.64138 27.6014C5.70393 28.1018 6.12934 28.4774 6.63366 28.4774H9.92255C10.4267 28.4774 10.8521 28.102 10.9148 27.6017L11.1209 25.9573C11.1896 25.4093 10.801 24.9094 10.253 24.8407C9.70501 24.772 9.2051 25.1606 9.13641 25.7086L9.04006 26.4774H7.51644L6.80371 20.7755C6.74116 20.2751 6.31576 19.8996 5.81144 19.8996H5.16699V18.4329C5.16699 17.8551 5.32788 17.2888 5.63163 16.7973C5.93539 16.3058 6.37 15.9086 6.88677 15.6502C7.40355 15.3918 7.98206 15.2825 8.5575 15.3343C9.13293 15.3862 9.68255 15.5973 10.1448 15.944C10.5866 16.2754 11.2134 16.1858 11.5448 15.744C11.8761 15.3022 11.7866 14.6754 11.3448 14.344C10.8076 13.9411 10.1985 13.6497 9.55337 13.4834C10.2106 13.2787 10.8151 12.9169 11.3108 12.4212C12.1151 11.6169 12.567 10.526 12.567 9.38851C12.567 8.25102 12.1151 7.16012 11.3108 6.3558C10.5065 5.55147 9.41559 5.09961 8.27811 5.09961ZM6.65962 7.77001C7.08887 7.34076 7.67106 7.09961 8.27811 7.09961C8.88516 7.09961 9.46734 7.34076 9.89659 7.77001C10.3258 8.19926 10.567 8.78145 10.567 9.38851C10.567 9.99556 10.3258 10.5777 9.89659 11.007C9.46734 11.4363 8.88516 11.6774 8.27811 11.6774C7.67106 11.6774 7.08887 11.4363 6.65962 11.007C6.23037 10.5777 5.98922 9.99556 5.98922 9.38851C5.98922 8.78145 6.23037 8.19926 6.65962 7.77001Z" fill="#006FB9"/>
<path fill-rule="evenodd" clip-rule="evenodd" d="M21.6899 6.3558C22.4942 5.55147 23.5851 5.09961 24.7226 5.09961C25.86 5.09961 26.9509 5.55147 27.7553 6.3558C28.5596 7.16012 29.0115 8.25102 29.0115 9.38851C29.0115 10.526 28.5596 11.6169 27.7553 12.4212C27.2596 12.9169 26.655 13.2787 25.9978 13.4834C26.3455 13.573 26.6843 13.6994 27.0083 13.8614C27.8573 14.2859 28.5713 14.9384 29.0703 15.7458C29.5693 16.5533 29.8337 17.4837 29.8337 18.4329V20.8996C29.8337 21.4519 29.3859 21.8996 28.8337 21.8996H28.072L27.3593 27.6014C27.2967 28.1018 26.8713 28.4774 26.367 28.4774H23.0781C22.5739 28.4774 22.1486 28.102 22.0859 27.6017L21.8798 25.9573C21.8111 25.4093 22.1996 24.9094 22.7476 24.8407C23.2956 24.772 23.7956 25.1606 23.8642 25.7086L23.9606 26.4774H25.4842L26.1969 20.7755C26.2595 20.2751 26.6849 19.8996 27.1892 19.8996H27.8337V18.4329C27.8337 17.8551 27.6728 17.2888 27.369 16.7973C27.0653 16.3058 26.6306 15.9086 26.1139 15.6502C25.5971 15.3918 25.0186 15.2825 24.4432 15.3343C23.8677 15.3862 23.3181 15.5973 22.8559 15.944C22.4141 16.2754 21.7872 16.1858 21.4559 15.744C21.1245 15.3022 21.214 14.6754 21.6559 14.344C22.1931 13.9411 22.8022 13.6496 23.4473 13.4834C22.7901 13.2787 22.1856 12.9169 21.6899 12.4212C20.8855 11.6169 20.4337 10.526 20.4337 9.38851C20.4337 8.25102 20.8855 7.16012 21.6899 6.3558ZM24.7226 7.09961C24.1155 7.09961 23.5333 7.34076 23.1041 7.77001C22.6748 8.19926 22.4337 8.78145 22.4337 9.38851C22.4337 9.99556 22.6748 10.5777 23.1041 11.007C23.5333 11.4363 24.1155 11.6774 24.7226 11.6774C25.3296 11.6774 25.9118 11.4363 26.3411 11.007C26.7703 10.5777 27.0115 9.99556 27.0115 9.38851C27.0115 8.78145 26.7703 8.19926 26.3411 7.77001C25.9118 7.34076 25.3296 7.09961 24.7226 7.09961Z" fill="#006FB9"/>
<path fill-rule="evenodd" clip-rule="evenodd" d="M16.5003 10.0329C15.5809 10.0329 14.6991 10.3981 14.049 11.0482C13.3989 11.6984 13.0337 12.5801 13.0337 13.4995C13.0337 14.419 13.3989 15.3007 14.049 15.9509C14.4074 16.3093 14.8363 16.5811 15.303 16.7529C14.3954 16.9716 13.5572 17.4367 12.8862 18.1077C11.9277 19.0662 11.3892 20.3662 11.3892 21.7218V22.544C11.3892 23.0963 11.8369 23.544 12.3892 23.544H13.1865L13.8695 27.6418C13.9498 28.124 14.367 28.4774 14.8559 28.4774H18.1448C18.6336 28.4774 19.0508 28.124 19.1312 27.6418L19.8141 23.544H20.6114C21.1637 23.544 21.6114 23.0963 21.6114 22.544V21.7218C21.6114 20.3662 21.0729 19.0662 20.1144 18.1077C19.4435 17.4367 18.6052 16.9716 17.6977 16.7529C18.1644 16.5811 18.5932 16.3093 18.9516 15.9509C19.6017 15.3007 19.967 14.419 19.967 13.4995C19.967 12.5801 19.6017 11.6984 18.9516 11.0482C18.3015 10.3981 17.4197 10.0329 16.5003 10.0329ZM16.5003 18.6107C15.6752 18.6107 14.8839 18.9385 14.3004 19.5219C13.759 20.0633 13.4378 20.7837 13.3943 21.544H14.0336C14.5225 21.544 14.9397 21.8974 15.02 22.3796L15.703 26.4774H17.2976L17.9806 22.3796C18.061 21.8974 18.4782 21.544 18.967 21.544H19.6064C19.5629 20.7837 19.2416 20.0633 18.7002 19.5219C18.1168 18.9385 17.3254 18.6107 16.5003 18.6107C16.5003 18.6107 16.5003 18.6107 16.5003 18.6107ZM15.4632 12.4625C15.7383 12.1874 16.1113 12.0329 16.5003 12.0329C16.8893 12.0329 17.2624 12.1874 17.5374 12.4625C17.8125 12.7375 17.967 13.1106 17.967 13.4995C17.967 13.8885 17.8125 14.2616 17.5374 14.5366C17.2624 14.8117 16.8893 14.9662 16.5003 14.9662C16.1113 14.9662 15.7383 14.8117 15.4632 14.5366C15.1882 14.2616 15.0337 13.8885 15.0337 13.4995C15.0337 13.1106 15.1882 12.7375 15.4632 12.4625Z" fill="#006FB9"/>
</svg>
