<svg width="21" height="21" viewBox="0 0 21 21" fill="none" xmlns="http://www.w3.org/2000/svg">
<path d="M18.1659 0.351562H2.92783C1.61497 0.351562 0.546875 1.41966 0.546875 2.73251V17.9706C0.546875 19.2835 1.61497 20.3516 2.92783 20.3516H18.1659C19.4788 20.3516 20.5469 19.2835 20.5469 17.9706V2.73251C20.5469 1.41966 19.4788 0.351562 18.1659 0.351562ZM16.264 9.0768C16.1559 9.0868 16.0464 9.09347 15.9354 9.09347C14.6864 9.09347 13.5888 8.45109 12.9502 7.48013C12.9502 10.0273 12.9502 12.9254 12.9502 12.9739C12.9502 15.2163 11.1321 17.0344 8.88973 17.0344C6.64735 17.0344 4.82926 15.2163 4.82926 12.9739C4.82926 10.7316 6.64735 8.91347 8.88973 8.91347C8.97449 8.91347 9.05735 8.92109 9.14069 8.92632V10.9273C9.05735 10.9173 8.97545 10.902 8.88973 10.902C7.74497 10.902 6.81735 11.8297 6.81735 12.9744C6.81735 14.1192 7.74497 15.0468 8.88973 15.0468C10.0345 15.0468 11.0454 14.1449 11.0454 13.0001C11.0454 12.9549 11.0654 3.66966 11.0654 3.66966H12.9778C13.1578 5.37966 14.5383 6.72918 16.264 6.85299V9.0768Z" fill="white"/>
</svg>
