<svg width="33" height="33" viewBox="0 0 33 33" fill="none" xmlns="http://www.w3.org/2000/svg">
<path fill-rule="evenodd" clip-rule="evenodd" d="M5.40966 3.45513H23.4837C23.4837 3.45513 23.4837 3.45513 23.4837 3.45513C24.074 3.45511 24.6405 3.68827 25.0598 4.10384C25.4791 4.51942 25.7173 5.0838 25.7225 5.67413L25.7226 5.68298L25.7225 10.2107C25.7225 10.763 25.2748 11.2107 24.7225 11.2107C24.3329 11.2107 23.9952 10.9878 23.8302 10.6625H5.16703V20.4878C5.16828 20.5498 5.19359 20.6089 5.23768 20.6526C5.28241 20.6969 5.34283 20.7218 5.4058 20.7218H12.3892C12.9415 20.7218 13.3892 21.1695 13.3892 21.7218C13.3892 22.274 12.9415 22.7218 12.3892 22.7218H5.40588C5.40587 22.7218 5.4059 22.7218 5.40588 22.7218C4.81554 22.7218 4.24905 22.4886 3.82977 22.073C3.41047 21.6575 3.17229 21.0931 3.16707 20.5028L3.16699 20.4939L3.16703 9.66514C3.16703 9.66427 3.16703 9.6634 3.16703 9.66253C3.16703 9.66166 3.16703 9.66079 3.16703 9.65992V5.66313C3.16963 5.37056 3.22988 5.08137 3.34424 4.81206C3.45861 4.54276 3.62491 4.29863 3.83363 4.0936C4.04236 3.88857 4.28942 3.72666 4.56072 3.61712C4.83043 3.50822 5.11884 3.45319 5.40966 3.45513ZM5.16703 8.66253H23.7225V5.68911C23.7213 5.62713 23.696 5.56802 23.6519 5.52433C23.6072 5.47999 23.5467 5.45513 23.4838 5.45513H5.39688C5.36695 5.45486 5.33727 5.46045 5.30953 5.47165C5.28178 5.48285 5.25651 5.49941 5.23516 5.52038C5.21382 5.54135 5.19681 5.56632 5.18511 5.59386C5.17376 5.62058 5.16763 5.64922 5.16703 5.67823V8.66253ZM18.7892 13.4996C18.7892 12.9473 19.2369 12.4996 19.7892 12.4996H24.7225C25.2748 12.4996 25.7225 12.9473 25.7225 13.4996C25.7225 14.0519 25.2748 14.4996 24.7225 14.4996H23.2559L23.2559 15.0316C26.9683 15.5211 29.8336 18.6979 29.8336 22.544C29.8336 26.7291 26.441 30.1218 22.2559 30.1218C18.0708 30.1218 14.6781 26.7291 14.6781 22.544C14.6781 18.6979 17.5434 15.5211 21.2559 15.0316L21.2559 14.4996H19.7892C19.2369 14.4996 18.7892 14.0519 18.7892 13.4996ZM22.2559 16.9662C19.1754 16.9662 16.6781 19.4635 16.6781 22.544C16.6781 25.6245 19.1754 28.1218 22.2559 28.1218C25.3364 28.1218 27.8336 25.6245 27.8336 22.544C27.8336 19.4635 25.3364 16.9662 22.2559 16.9662ZM22.2559 18.2551C22.8082 18.2551 23.2559 18.7028 23.2559 19.2551V22.3662H24.4923C25.0446 22.3662 25.4923 22.8139 25.4923 23.3662C25.4923 23.9185 25.0446 24.3662 24.4923 24.3662H22.2559C21.7036 24.3662 21.2559 23.9185 21.2559 23.3662V19.2551C21.2559 18.7028 21.7036 18.2551 22.2559 18.2551Z" fill="#006FB9"/>
</svg>
