<svg width="25" height="26" viewBox="0 0 25 26" fill="none" xmlns="http://www.w3.org/2000/svg">
<path d="M11.6331 0.724623C9.62588 0.854721 7.5183 1.57583 5.85306 2.7021C4.09489 3.89156 2.70099 5.49733 1.79774 7.37073C1.30338 8.39664 0.994859 9.36308 0.782987 10.5525C0.623153 11.4446 0.589699 12.7902 0.701211 13.8236C0.849894 15.2137 1.35913 16.879 2.04679 18.2394L2.24379 18.6223L1.78659 19.9864C1.53383 20.7373 1.07663 22.1052 0.768118 23.027C0.455885 23.9525 0.203125 24.7331 0.203125 24.7703C0.203125 24.8038 0.251447 24.8521 0.31092 24.8744C0.407563 24.9115 0.418715 24.9264 0.400129 25.0416C0.377827 25.1606 0.381544 25.168 0.467036 25.142C0.619436 25.0937 3.94621 24.0343 5.35126 23.5808C6.08723 23.3467 6.71914 23.1534 6.75631 23.1534C6.78976 23.1534 6.94959 23.2166 7.10943 23.2983C8.46987 23.9823 9.91953 24.3912 11.4621 24.5324C12.0717 24.5844 13.3132 24.5584 13.9117 24.4729C17.4577 23.9823 20.476 22.0234 22.3345 19.0163C22.9404 18.035 23.5165 16.6671 23.8251 15.4776C24.1187 14.3365 24.26 12.9203 24.1819 11.8275C23.9812 8.92446 22.8586 6.35225 20.9072 4.33017C19.0152 2.37128 16.6065 1.15952 13.8633 0.791531C13.4619 0.739492 12.0717 0.694887 11.6331 0.724623ZM13.0865 3.26709C14.4135 3.37489 15.5026 3.66854 16.6511 4.22981C18.2086 4.99553 19.5133 6.14038 20.4797 7.59747C21.2231 8.71631 21.6803 9.92064 21.8587 11.2365C21.9442 11.8609 21.9442 13.1247 21.8587 13.7641C21.2528 18.258 17.5432 21.7223 13.0419 22.0048C11.4547 22.1014 9.979 21.8413 8.53678 21.2094C8.13905 21.0347 7.48113 20.6778 7.27669 20.5291C7.2135 20.4808 7.13173 20.4399 7.09456 20.4399C7.0611 20.4399 6.26937 20.6815 5.34011 20.9789C4.41084 21.2763 3.64512 21.5179 3.64141 21.5104C3.63397 21.503 3.87187 20.7782 4.16551 19.9009C4.45916 19.02 4.70077 18.258 4.70077 18.1985C4.70077 18.1391 4.63386 18.0015 4.53722 17.864C2.98349 15.6375 2.47797 12.5635 3.23253 9.95781C3.3998 9.39281 3.53733 9.04712 3.80868 8.50815C4.55209 7.05478 5.68579 5.78726 7.07969 4.858C8.83786 3.6834 11.0346 3.10354 13.0865 3.26709Z" fill="white"/>
<path d="M8.16815 6.702C8.08266 6.72802 7.96 6.78749 7.88937 6.82838C7.6998 6.94733 7.14968 7.53462 6.97869 7.80225C6.43228 8.65346 6.30962 9.78716 6.63672 10.8948C6.88576 11.7312 7.19056 12.3705 7.74812 13.2329C8.45437 14.3183 8.91156 14.9056 9.64383 15.6601C10.7441 16.7938 11.6696 17.4294 13.0895 18.0205C14.1378 18.4591 14.9109 18.7081 15.3458 18.7527C15.6469 18.7825 16.3048 18.6784 16.6914 18.5371C17.2266 18.3438 17.8399 17.9127 18.0778 17.5633C18.3157 17.2064 18.5611 16.3998 18.5908 15.8646L18.6131 15.5114L18.4979 15.3776C18.4161 15.2884 18.0816 15.0877 17.4051 14.7234C15.7993 13.8611 15.5948 13.7793 15.3421 13.9131C15.2789 13.9428 15.041 14.1844 14.818 14.4446C14.1563 15.2141 14.0188 15.3479 13.9073 15.3479C13.766 15.3479 12.8405 14.8758 12.4093 14.5859C11.9075 14.2439 11.5804 13.9689 11.1678 13.5414C10.6772 13.0322 10.1456 12.3036 9.84826 11.7349L9.78136 11.6011L10.049 11.3074C10.4021 10.932 10.5471 10.7053 10.6883 10.3113C10.8333 9.90982 10.8259 9.78716 10.614 9.23332C10.4244 8.73895 10.272 8.33007 10.0081 7.62011C9.79251 7.03654 9.63267 6.79864 9.40965 6.72802C9.19778 6.66483 8.34285 6.64624 8.16815 6.702Z" fill="white"/>
</svg>
