<svg width="32" height="33" viewBox="0 0 32 33" fill="none" xmlns="http://www.w3.org/2000/svg">
<path fill-rule="evenodd" clip-rule="evenodd" d="M6.99935 14.2344C5.71068 14.2344 4.66602 15.279 4.66602 16.5677C4.66602 17.8564 5.71068 18.901 6.99935 18.901C8.28801 18.901 9.33268 17.8564 9.33268 16.5677C9.33268 15.279 8.28801 14.2344 6.99935 14.2344ZM2.66602 16.5677C2.66602 14.1745 4.60612 12.2344 6.99935 12.2344C9.0484 12.2344 10.7653 13.6566 11.2167 15.5677H23.5327C24.085 15.5677 24.5327 16.0154 24.5327 16.5677V19.901C24.5327 20.4533 24.085 20.901 23.5327 20.901C22.9804 20.901 22.5327 20.4533 22.5327 19.901V17.5677H21.1993V19.901C21.1993 20.4533 20.7516 20.901 20.1993 20.901C19.6471 20.901 19.1993 20.4533 19.1993 19.901V17.5677H11.2167C10.7653 19.4788 9.0484 20.901 6.99935 20.901C4.60612 20.901 2.66602 18.9609 2.66602 16.5677Z" fill="#006FB9"/>
<path fill-rule="evenodd" clip-rule="evenodd" d="M13.666 5.23438C13.1137 5.23438 12.666 5.68209 12.666 6.23438V9.90104C12.666 10.4533 12.2183 10.901 11.666 10.901C11.1137 10.901 10.666 10.4533 10.666 9.90104V6.23438C10.666 4.57752 12.0092 3.23438 13.666 3.23438H26.3327C27.9895 3.23438 29.3327 4.57752 29.3327 6.23438V26.901C29.3327 28.5579 27.9895 29.901 26.3327 29.901H13.666C12.0092 29.901 10.666 28.5579 10.666 26.901V23.2344C10.666 22.6821 11.1137 22.2344 11.666 22.2344C12.2183 22.2344 12.666 22.6821 12.666 23.2344V26.901C12.666 27.4533 13.1137 27.901 13.666 27.901H26.3327C26.885 27.901 27.3327 27.4533 27.3327 26.901V6.23438C27.3327 5.68209 26.885 5.23438 26.3327 5.23438H13.666Z" fill="#006FB9"/>
</svg>
