<svg width="32" height="33" viewBox="0 0 32 33" fill="none" xmlns="http://www.w3.org/2000/svg">
<path d="M9.29747 5.21491C9.81728 5.02832 10.0874 4.45567 9.90081 3.93586C9.71422 3.41605 9.14157 3.14592 8.62176 3.33251C6.95254 3.93169 3.84897 5.48924 2.71042 9.19322C2.54815 9.72113 2.84456 10.2806 3.37246 10.4429C3.90037 10.6052 4.45987 10.3088 4.62214 9.78086C5.48367 6.9781 7.84677 5.73565 9.29747 5.21491Z" fill="#006FB9"/>
<path d="M23.3775 3.33251C22.8577 3.14592 22.2851 3.41605 22.0985 3.93586C21.9119 4.45567 22.182 5.02832 22.7018 5.21491C24.1525 5.73565 26.5156 6.9781 27.3771 9.78086C27.5394 10.3088 28.0989 10.6052 28.6268 10.4429C29.1547 10.2806 29.4511 9.72113 29.2889 9.19322C28.1503 5.48924 25.0467 3.93169 23.3775 3.33251Z" fill="#006FB9"/>
<path fill-rule="evenodd" clip-rule="evenodd" d="M17.0065 5.92708C17.0065 5.3748 16.5588 4.92708 16.0065 4.92708C15.4542 4.92708 15.0065 5.3748 15.0065 5.92708V7.36688C10.7847 7.88154 7.51439 11.4783 7.51385 15.839C7.50962 17.8515 7.34534 21.3367 6.47564 23.6787C6.36166 23.9857 6.40516 24.329 6.59208 24.5978C6.779 24.8666 7.08568 25.0269 7.41309 25.0269H24.5999C24.9288 25.0269 25.2367 24.8651 25.4234 24.5942C25.61 24.3234 25.6515 23.978 25.5343 23.6707C25.102 22.5364 24.8584 21.053 24.7282 19.5801C24.5992 18.1215 24.5866 16.7419 24.5866 15.8401C24.5866 11.4488 21.2709 7.83204 17.0065 7.35668V5.92708ZM16.0502 9.30371C12.4403 9.30371 9.51385 12.2301 9.51385 15.8401L9.51385 15.8422C9.51033 17.5374 9.4015 20.5109 8.76456 23.0269H23.2482C22.9851 21.9619 22.8299 20.8191 22.7359 19.7562C22.599 18.2079 22.5866 16.7575 22.5866 15.8401C22.5866 12.2301 19.6602 9.30371 16.0502 9.30371Z" fill="#006FB9"/>
<path d="M18.3937 26.4317C18.908 26.633 19.1617 27.213 18.9605 27.7273C18.4957 28.9148 17.391 29.8414 16.0066 29.8414C14.6232 29.8414 13.5176 28.9132 13.0529 27.7278C12.8514 27.2136 13.1049 26.6334 13.6191 26.4319C14.1333 26.2303 14.7135 26.4838 14.915 26.998C15.1309 27.5487 15.5788 27.8414 16.0066 27.8414C16.436 27.8414 16.8823 27.5497 17.098 26.9984C17.2993 26.4841 17.8794 26.2304 18.3937 26.4317Z" fill="#006FB9"/>
<path d="M21.4554 6.87414C21.7203 6.38953 22.3279 6.21142 22.8125 6.47632C23.967 7.10738 25.4716 8.45558 26.2432 10.1533C26.4718 10.6561 26.2494 11.249 25.7467 11.4775C25.2439 11.706 24.651 11.4837 24.4225 10.9809C23.8609 9.74525 22.6988 8.69345 21.8532 8.23125C21.3686 7.96634 21.1905 7.35875 21.4554 6.87414Z" fill="#006FB9"/>
<path d="M10.5437 6.87406C10.8086 7.35866 10.6305 7.96626 10.1459 8.23116C9.30035 8.69337 8.13828 9.74517 7.57663 10.9808C7.3481 11.4836 6.75525 11.7059 6.25247 11.4774C5.74968 11.2489 5.52736 10.656 5.75589 10.1532C6.52757 8.4555 8.03217 7.1073 9.18661 6.47624C9.67122 6.21134 10.2788 6.38945 10.5437 6.87406Z" fill="#006FB9"/>
</svg>
