<svg width="32" height="33" viewBox="0 0 32 33" fill="none" xmlns="http://www.w3.org/2000/svg">
<path d="M19.4674 14.101C19.4674 13.549 19.0194 13.101 18.4674 13.101H8.59935C8.04735 13.101 7.59935 13.549 7.59935 14.101C7.59935 14.653 8.04735 15.101 8.59935 15.101H18.4674C19.0194 15.101 19.4674 14.653 19.4674 14.101Z" fill="#006FB9"/>
<path d="M11.8887 24.6117H5.31002C5.14068 24.6117 4.97535 24.5424 4.85268 24.421C4.73402 24.3024 4.66468 24.137 4.66468 23.9664V5.87838C4.66468 5.70638 4.73135 5.54504 4.85402 5.42238C4.97535 5.30238 5.14068 5.23438 5.31002 5.23438H21.754C21.9247 5.23438 22.09 5.30238 22.21 5.42371C22.3314 5.54504 22.3993 5.70771 22.3993 5.87971V13.2797C22.3993 13.8317 22.8473 14.2797 23.3993 14.2797C23.9513 14.2797 24.3993 13.8317 24.3993 13.2797V5.87971C24.3993 5.17304 24.1247 4.50904 23.626 4.01171C23.1353 3.51704 22.4527 3.23438 21.754 3.23438H5.31002C4.61268 3.23438 3.93135 3.51704 3.44068 4.00904C2.94202 4.50904 2.66602 5.17304 2.66602 5.87838V23.9677C2.66602 24.665 2.94868 25.3477 3.44068 25.8357C3.93268 26.329 4.61402 26.6117 5.31135 26.6117H11.8887C12.4407 26.6117 12.8887 26.1637 12.8887 25.6117C12.8887 25.0597 12.4407 24.6117 11.8887 24.6117Z" fill="#006FB9"/>
<path d="M18.4673 8.16771H11.8887C11.3367 8.16771 10.8887 8.61571 10.8887 9.16771C10.8887 9.71971 11.3354 10.1677 11.8887 10.1677H18.4673C19.0194 10.1677 19.4674 9.71971 19.4674 9.16771C19.4674 8.61571 19.0194 8.16771 18.4673 8.16771Z" fill="#006FB9"/>
<path d="M28.3554 15.717C28.0447 15.4077 27.682 15.165 27.2793 14.9984C26.47 14.665 25.55 14.6624 24.7393 14.9984C24.3327 15.1664 23.9713 15.409 23.662 15.7184L15.2967 24.0824C15.1567 24.221 15.062 24.3997 15.0233 24.593L14.2007 28.705C14.1353 29.033 14.238 29.373 14.474 29.609C14.6633 29.7997 14.918 29.9024 15.1807 29.9024C15.246 29.9024 15.3113 29.8957 15.3767 29.8824L19.4873 29.0597C19.6807 29.021 19.858 28.925 19.998 28.7864L28.3594 20.4237C28.978 19.8077 29.3327 18.953 29.334 18.0797C29.3367 17.1917 28.9927 16.3584 28.3554 15.717ZM26.9487 19.005L18.7994 27.157L16.4567 27.6264L16.926 25.2824L25.078 17.1304C25.198 17.0104 25.346 16.9104 25.5047 16.845C25.826 16.7117 26.1954 16.7117 26.514 16.845C26.674 16.9117 26.8194 17.0077 26.95 17.1397C27.1994 17.3904 27.3367 17.721 27.3353 18.073C27.334 18.421 27.194 18.761 26.9487 19.005Z" fill="#006FB9"/>
<path d="M8.59935 18.0344C8.04735 18.0344 7.59935 18.4824 7.59935 19.0344C7.59935 19.5864 8.04735 20.0344 8.59935 20.0344H16.822C17.374 20.0344 17.822 19.5864 17.822 19.0344C17.822 18.4824 17.374 18.0344 16.822 18.0344H8.59935Z" fill="#006FB9"/>
</svg>
