<svg width="32" height="33" viewBox="0 0 32 33" fill="none" xmlns="http://www.w3.org/2000/svg">
<path d="M28.5447 17.5504L15.51 4.51571C14.682 3.68904 13.582 3.23438 12.4113 3.23438H5.35802C4.63935 3.23438 3.96335 3.51438 3.45535 4.02238C2.94735 4.53038 2.66602 5.20638 2.66602 5.92504V12.9797C2.66602 14.149 3.12068 15.2504 3.94868 16.0784L16.982 29.113C17.49 29.621 18.166 29.901 18.886 29.901C19.606 29.901 20.282 29.621 20.79 29.113L28.546 21.3557C29.054 20.8464 29.3327 20.1704 29.3327 19.453C29.3327 18.737 29.054 18.061 28.5447 17.5504ZM27.1314 19.9424L19.3767 27.6984C19.1167 27.9584 18.658 27.9584 18.398 27.6984L5.36468 14.6637C4.91402 14.2144 4.66602 13.6157 4.66602 12.9797V5.92504C4.66602 5.74371 4.73935 5.56504 4.86868 5.43571C4.99802 5.30638 5.17535 5.23438 5.35802 5.23438H12.4127C13.0487 5.23438 13.6473 5.48237 14.098 5.93171L27.1314 18.9637C27.2634 19.0957 27.334 19.269 27.334 19.453C27.3327 19.6384 27.2607 19.813 27.1314 19.9424Z" fill="#006FB9"/>
<path d="M11.4873 8.24904C11.2367 7.99838 10.9433 7.80237 10.6167 7.66771C9.96068 7.39437 9.21002 7.39437 8.55402 7.66771C8.22602 7.80371 7.93268 7.99971 7.68202 8.25038C7.43002 8.50238 7.23402 8.79704 7.09935 9.12238C6.96335 9.45038 6.89402 9.79704 6.89402 10.153C6.89402 10.509 6.96335 10.8557 7.09802 11.181C7.23268 11.5077 7.42868 11.801 7.68202 12.0557C7.93268 12.3064 8.22602 12.5024 8.55668 12.6397C8.88468 12.7757 9.23002 12.8437 9.58468 12.8437C9.93935 12.8437 10.2847 12.7757 10.6153 12.6384C10.942 12.5024 11.2353 12.3064 11.4887 12.0544C11.7393 11.8037 11.9353 11.5117 12.0727 11.181C12.2087 10.853 12.2767 10.5077 12.2767 10.153C12.2767 9.79838 12.2073 9.45304 12.0713 9.12238C11.934 8.79304 11.738 8.49971 11.4873 8.24904ZM10.2247 10.4157C10.1887 10.501 10.138 10.577 10.0753 10.641C10.01 10.7064 9.93402 10.757 9.85135 10.7904C9.68202 10.861 9.48602 10.8597 9.32202 10.7917C9.23668 10.757 9.16068 10.7064 9.09802 10.6437C9.03135 10.577 8.98202 10.5024 8.94602 10.4157C8.91135 10.333 8.89402 10.2437 8.89402 10.153C8.89402 10.0624 8.91135 9.97304 8.94735 9.88771C8.98068 9.80504 9.03268 9.72771 9.09668 9.66504C9.16068 9.60104 9.23668 9.55038 9.32202 9.51438C9.40602 9.47971 9.49402 9.46104 9.58468 9.46104C9.67535 9.46104 9.76468 9.47838 9.84735 9.51304C9.93268 9.54904 10.0087 9.59971 10.0727 9.66371C10.138 9.72904 10.1887 9.80371 10.2233 9.88771C10.258 9.97171 10.2767 10.061 10.2767 10.153C10.2767 10.245 10.258 10.3344 10.2247 10.4157Z" fill="#006FB9"/>
</svg>
